<svg width="1585" height="1393" viewBox="0 0 1585 1393" fill="none" xmlns="http://www.w3.org/2000/svg">
<path d="M709.616 1256.24C709.616 1256.24 674.817 1238.65 672.14 1262.53C669.463 1286.41 668.125 1301.49 668.125 1301.49C668.125 1301.49 664.11 1330.39 701.585 1324.11C739.06 1317.82 725.676 1300.23 725.676 1300.23C725.676 1300.23 712.292 1280.12 712.292 1275.09C712.292 1270.07 709.616 1256.24 709.616 1256.24Z" fill="#8482A5"/>
<path opacity="0.1" d="M1411 848.941C1411 849.707 1411 850.474 1411 851.228C1410.88 864.447 1410.18 877.633 1408.91 890.786C1408.92 890.865 1408.92 890.945 1408.91 891.025C1408.81 892.118 1408.7 893.199 1408.59 894.292C1408.4 896.139 1408.2 897.974 1407.97 899.821C1405.38 922.306 1401.08 944.499 1395.12 966.158C1387.15 995.425 1375.87 1023.42 1361.57 1049.45C1357.17 1057.41 1352.48 1065.11 1347.51 1072.56C1344.86 1076.5 1342.15 1080.36 1339.35 1084.15C1337.39 1086.81 1335.39 1089.42 1333.36 1092L1332.08 1093.58C1321.37 1106.84 1309.82 1119.21 1297.53 1130.6C1277.46 1149.35 1255.86 1165.66 1233.91 1180.79C1232.66 1181.66 1231.4 1182.51 1230.14 1183.3C1230.06 1183.37 1229.96 1183.44 1229.87 1183.49C1200.04 1203.82 1169.1 1222.17 1137.23 1236.86C1102.34 1252.98 1066.32 1264.71 1029.35 1269.83C977.83 1276.97 925.683 1271.16 874.474 1261.19C831.884 1252.94 789.809 1241.6 748.511 1227.26L741.712 1224.86C738.189 1223.59 734.67 1222.3 731.155 1220.99C709.924 1213.07 688.93 1204.27 668.174 1194.6C616.045 1170.39 566.245 1140.25 519.55 1104.64C513.604 1100.13 507.745 1095.52 501.971 1090.81C493.9 1084.26 485.926 1077.52 478.049 1070.58L473.189 1066.34C452.574 1048.14 433.26 1028.14 415.424 1006.53C391.436 977.103 370.936 943.903 357.459 906.004C355.334 900.047 353.387 893.978 351.618 887.795L351.451 887.179C350.559 884.038 349.734 880.896 348.976 877.629C347.862 872.955 346.885 868.221 346.045 863.429C345.866 862.512 345.71 861.595 345.565 860.665C342.901 844.538 341.724 828.144 342.054 811.745C342.333 797.376 343.826 783.069 346.513 769.02C349.263 754.455 353.501 740.299 359.143 726.835C364.241 714.728 370.736 703.433 378.461 693.246C383.888 686.123 389.993 679.693 396.664 674.07C408.758 663.916 422.168 656.841 436.069 651.25C442.601 648.611 449.222 646.298 455.877 644.15C460.593 642.617 465.33 641.159 470.045 639.726L483.957 635.492C492.875 632.752 501.792 629.937 510.576 626.896C534.52 618.653 557.985 608.675 579.688 593.797C583.122 591.447 586.622 588.871 590.122 586.106C594.581 582.613 598.973 578.818 603.32 574.721C607.712 570.575 612.015 566.139 616.117 561.439C616.752 560.71 617.377 559.981 618.001 559.24C621.345 555.269 624.589 551.11 627.599 546.787C629.07 544.676 630.497 542.527 631.857 540.34C633.741 537.312 635.524 534.233 637.174 531.067C645.445 515.233 650.55 497.766 649.949 479.357C649.861 476.324 649.619 473.299 649.224 470.297C647.775 459.201 646.381 448.369 645.356 437.775C641.053 393.957 642.87 354.223 672.042 316.889C708.315 270.482 765.243 261.019 817.066 264.726C966.894 275.408 1103.29 371.841 1223.16 486.645C1233.52 496.564 1243.76 506.617 1253.88 516.804C1256.43 519.367 1258.98 521.948 1261.53 524.545C1280.48 543.784 1299.15 563.739 1316.52 585.114C1317.93 586.848 1319.33 588.582 1320.71 590.329C1321.56 591.409 1322.42 592.478 1323.26 593.571C1328.67 600.482 1333.93 607.561 1339.03 614.808C1352.69 634.045 1364.75 654.657 1375.06 676.382C1390.85 710.476 1401.53 747.275 1406.69 785.293C1408.63 799.099 1409.91 813.013 1410.52 826.975C1410.71 831.084 1410.83 835.206 1410.89 839.315C1410.89 840.634 1410.89 841.941 1410.89 843.261C1411.01 845.171 1411.01 847.031 1411 848.941Z" fill="#6C63FF"/>
<path d="M923.308 969.901L909.568 1213.54L923.308 1213.72L934.471 966.479L923.308 969.901Z" fill="#3F3D56"/>
<path d="M874.645 1113.34H704.624V1150.13H874.645V1113.34Z" fill="#6C63FF"/>
<path d="M885.808 1145.84V1168.94H710.179C703.962 1164.48 697.82 1159.89 691.752 1155.17V1145.84H885.808Z" fill="#3F3D56"/>
<path d="M866.671 1263.85C866.671 1263.85 890.187 1243.3 894.926 1264.82C899.665 1286.35 902.399 1299.99 902.399 1299.99C902.399 1299.99 908.705 1325.94 880.451 1324.97C852.196 1324 859.983 1306.18 859.983 1306.18C859.983 1306.18 867.478 1286.06 866.895 1281.46C866.311 1276.86 866.671 1263.85 866.671 1263.85Z" fill="#8482A5"/>
<path d="M721.231 1216.86C721.231 1255.33 693.338 1255.69 673.427 1255.69C653.517 1255.69 631.84 1174.42 631.84 1135.94C631.84 1097.47 670.6 976.688 706.259 1096.79C726.17 1096.79 721.231 1178.38 721.231 1216.86Z" fill="#35323E"/>
<path d="M919.223 1075.33C918.743 1077.54 918.116 1079.73 917.454 1081.92C915.505 1088.22 913.161 1094.44 912.706 1100.99C912.096 1109.65 914.423 1119.72 908.412 1126.01C906.867 1127.63 904.849 1128.85 903.466 1130.59C903.253 1130.86 903.058 1131.14 902.882 1131.44C901.646 1133.48 901.5 1135.96 901.483 1138.29C901.497 1143.25 901.821 1148.21 902.453 1153.13C904.488 1170.07 908.507 1187.04 903.226 1203.03C902.269 1205.8 901.154 1208.52 899.886 1211.17C897.31 1216.81 902.324 1215.6 901.483 1221.71C900.865 1226.25 895.558 1255.45 895.523 1260.06C892.81 1259.2 872.848 1269.95 870.141 1269.06C829.585 1262.63 852.537 1228.3 836.548 1221.71C836.591 1221.48 836.514 1211.4 836.548 1211.17C837.776 1203.55 836.214 1205.61 834.17 1198.19C829.876 1182.45 823.797 1166.88 820.199 1151.03C818.75 1144.84 817.8 1138.55 817.357 1132.21C817.254 1130.79 817.194 1129.36 817.185 1127.93C817.142 1126.07 817.185 1124.2 817.262 1122.32C817.443 1118.57 817.606 1114.11 814.592 1111.82C812.934 1110.58 810.745 1110.37 808.813 1109.62C805.086 1108.17 802.536 1104.82 799.582 1102.13C798.173 1100.77 796.452 1099.77 794.569 1099.22C792.685 1098.67 790.695 1098.58 788.771 1098.97C769.467 1103.37 755.282 1119.69 737.318 1127.93C736.622 1128.26 735.927 1128.57 735.223 1128.86C732.899 1129.71 730.687 1130.83 728.637 1132.21C727.196 1133.21 726.15 1134.68 725.683 1136.36C725.228 1138.17 725.623 1140.07 725.846 1141.94C726.207 1144.97 726.077 1148.04 725.459 1151.03C725.227 1152.19 724.92 1153.33 724.541 1154.45C723.854 1156.48 722.935 1158.47 722.059 1160.44C717.479 1157.37 712.966 1154.24 708.517 1151.03C702.301 1146.57 696.158 1141.98 690.09 1137.26L686.406 1134.31C670.526 1121.92 655.648 1108.3 641.909 1093.59C643.738 1088.46 646.383 1083.69 647.653 1078.42C648.375 1075.41 648.641 1072.27 649.637 1069.33C650.786 1066.29 652.383 1063.43 654.377 1060.86C661.679 1050.72 670.595 1041.83 680.773 1034.55C691.412 1026.95 703.7 1020.86 713.275 1012.23C717.16 1008.85 720.51 1004.89 723.21 1000.51C723.373 1000.24 723.527 999.958 723.665 999.65C724.412 998.101 724.93 996.453 725.202 994.756C725.889 990.923 725.786 986.714 726.129 983.036C737.793 985.047 749.683 985.404 761.447 984.096C775.143 982.565 788.539 978.775 802.235 977.304C803.266 977.184 804.305 977.09 805.344 977.004C809.732 976.654 814.128 976.577 818.533 976.628C822.217 976.628 825.901 976.79 829.585 976.91L870.141 978.279C874.631 978.433 879.217 978.604 883.399 980.238C888.362 982.18 892.338 986.047 895.523 990.299C895.927 990.846 896.331 991.394 896.708 991.959C899.33 995.768 901.432 999.908 902.96 1004.27C903.123 1004.71 903.277 1005.12 903.423 1005.61C903.81 1006.8 904.145 1008 904.445 1009.21C904.677 1010.16 904.883 1011.11 905.072 1012.07C906.017 1016.81 906.575 1021.65 908.069 1026.23C908.172 1026.56 908.284 1026.9 908.404 1027.22C910.198 1032.24 913.178 1036.73 915.428 1041.54C917.05 1045.03 918.288 1048.68 919.12 1052.43C920.802 1059.97 920.837 1067.78 919.223 1075.33Z" fill="#35323E"/>
<path d="M795.603 767.111C791.979 764.237 786.724 766.341 782.482 768.198C778.925 769.763 775.264 771.081 771.525 772.142C770.76 772.435 769.93 772.521 769.121 772.39C767.403 771.979 766.682 769.952 765.403 768.72C763.179 766.59 759.538 767.094 756.67 768.249C753.802 769.404 750.968 771.072 747.894 770.816C744.614 770.559 741.763 768.147 738.448 768.07C732.609 767.933 727.706 775.102 722.185 773.203C718.819 772.048 716.174 767.685 712.859 768.925C710.283 769.9 710.051 773.451 708.497 775.769C706.668 778.473 703.105 779.234 700.056 780.432C690.447 784.213 684.084 794.881 685.338 805.096C686.034 810.734 688.773 815.901 690.585 821.282C695.96 836.93 694.114 854.579 700.889 869.67C701.748 868.866 702.229 868.566 703.062 867.771C700.919 872.197 700.506 877.259 701.902 881.972C702.615 884.342 703.774 886.549 704.65 888.868C705.56 891.468 706.294 894.126 706.848 896.824L714.319 929.658C717.239 942.491 720.167 955.324 720.673 968.464C720.989 977.009 720.332 985.561 718.716 993.958C732.249 991.725 744.631 985.746 758.344 985.823C763.376 985.823 768.365 986.678 773.354 987.362C787.9 989.39 802.572 990.382 817.259 990.331C819.543 990.461 821.831 990.141 823.991 989.39C825.88 988.586 827.426 987.157 829.212 986.122C832.707 984.069 836.94 983.555 840.968 983.555C859.335 983.222 877.033 989.92 895.28 992.282C902.484 977.216 902.914 959.165 897.384 943.415C895.744 938.735 893.537 934.175 892.884 929.256C892.622 926.232 892.553 923.195 892.678 920.162C892.649 912.398 891.245 904.7 888.531 897.423C887.466 894.574 886.186 891.674 886.298 888.637C886.41 885.6 887.912 882.768 889.389 880.081C892.386 874.606 895.4 869.08 899.633 864.46C903.97 859.686 909.397 856.05 914.764 852.483L928.013 843.62C926.201 832.216 923.866 820.204 919.014 809.716C914.162 799.227 906.907 789.586 897.092 783.452C893.783 781.468 890.32 779.752 886.736 778.319C881.721 776.214 876.5 774.358 871.065 774.041C864.882 773.69 858.794 775.341 852.689 776.368C833.471 779.593 810.853 779.2 795.603 767.111Z" fill="#6C63FF"/>
<path d="M940.481 965.008L934.179 972.938L922.294 987.884L908.555 1005.16L904.717 1009.98H897.272L712.919 1010.2L597.468 1010.32H592.316C591.629 1008.19 590.994 1006.05 590.41 1003.82C589.551 1000.64 588.798 997.417 588.151 994.155C588.014 993.531 587.894 992.906 587.782 992.273L629.669 964.991L645.418 964.905L693.59 964.631L720.493 964.478H725.405H728.487L746.417 964.383L883.069 963.605L890.059 963.562H893.09L901.119 963.519L930.993 963.348L936.729 961.175L937.15 961.62L940.481 965.008Z" fill="#3F3D56"/>
<path d="M937.905 960.73L937.193 961.586L932.504 967.087L922.852 978.439L902.613 1002.21L723.318 997.654L588.117 994.232C587.98 993.608 587.859 992.983 587.748 992.35C585.695 981.371 584.789 970.21 585.043 959.045L600.036 951.397L603.471 949.634L630.202 935.946L653.661 923.969L714.851 931.891L728.402 933.645L734.533 934.432L743.506 935.596L744.262 935.698L884.976 953.878L900.526 955.888L909.654 957.069L937.785 960.713L937.905 960.73Z" fill="#504F60"/>
<path d="M908.71 1001.79L908.564 1005.16L907.705 1024.14L903.085 1128.51L902.106 1151.07L899.53 1209.11L898.079 1241.89L892.841 1240.26C890.128 1239.4 887.417 1238.52 884.709 1237.62L897.272 1010.06L897.538 1005.29L903.068 1003.57L908.71 1001.79Z" fill="#3F3D56"/>
<path d="M597.863 1001.55L597.477 1010.33L596.91 1023.17C595.273 1019.11 593.773 1014.98 592.41 1010.77L592.282 1010.35C591.595 1008.21 590.959 1006.07 590.375 1003.85L597.863 1001.55Z" fill="#3F3D56"/>
<path d="M822.411 872.194C844.226 872.194 861.911 848.446 861.911 819.152C861.911 789.858 844.226 766.11 822.411 766.11C800.596 766.11 782.911 789.858 782.911 819.152C782.911 848.446 800.596 872.194 822.411 872.194Z" fill="#A1616A"/>
<path opacity="0.1" d="M822.411 872.194C844.226 872.194 861.911 848.446 861.911 819.152C861.911 789.858 844.226 766.11 822.411 766.11C800.596 766.11 782.911 789.858 782.911 819.152C782.911 848.446 800.596 872.194 822.411 872.194Z" fill="black"/>
<path d="M827.993 830.823C858.344 830.823 882.949 806.309 882.949 776.07C882.949 745.831 858.344 721.318 827.993 721.318C797.641 721.318 773.036 745.831 773.036 776.07C773.036 806.309 797.641 830.823 827.993 830.823Z" fill="#A1616A"/>
<path d="M829.083 702.683C825.728 702.95 822.396 703.456 819.114 704.197C810.424 706.302 802.91 710.973 795.594 715.558C792.314 717.62 788.939 719.767 786.904 722.796C783.246 728.228 784.663 735.141 782.611 741.172C781.546 744.269 779.588 747.05 777.931 749.933C773.371 757.838 770.984 766.521 768.64 775.119C768.159 776.898 768.022 779.311 769.971 779.995C771.093 780.228 772.261 780.096 773.303 779.619C779.459 777.591 787.282 777.01 791.85 781.125C796.419 785.24 796.032 792.537 801.468 795.668C807.693 799.287 817.414 794.915 823.064 799.184C825.485 801.015 826.361 803.95 828.345 806.157C832.965 811.29 841.852 811.042 849.245 810.007C853.487 809.408 858.691 809.006 861.267 811.974C862.504 813.377 862.856 815.302 864.29 816.568C866.866 818.861 871.58 817.698 874.096 815.345C876.612 812.992 877.814 809.81 879.909 807.166C883.988 802.033 891.158 799.236 895.366 794.163C898.886 789.885 899.951 784.53 900.913 779.362L904.494 760.207C905.945 752.439 907.267 743.953 902.879 737.109C901.316 734.645 899.075 732.523 897.727 729.974C896.825 728.263 896.319 726.458 895.271 724.841C894.029 723.156 892.545 721.663 890.866 720.409L882.391 713.42C879.493 710.893 876.395 708.604 873.126 706.576C861.027 699.552 842.908 701.4 829.083 702.683Z" fill="#464353"/>
<path d="M648.071 843.722C646.036 845.878 644.155 848.205 641.974 850.224C640.056 851.924 638.049 853.523 635.963 855.015C632.597 857.525 629.306 860.122 626.088 862.809C622.732 865.453 619.695 868.476 617.038 871.817C612.452 877.951 610.28 885.582 605.986 891.922C602.191 897.542 596.841 901.983 592.986 907.56C591.294 909.906 590.038 912.534 589.276 915.32C588.708 918.017 588.451 920.769 588.512 923.524C588.435 928.041 588.366 932.61 589.293 937.033C590.221 941.456 592.256 945.802 595.742 948.702C598.98 951.397 603.161 952.637 607.257 953.664C609.37 954.186 611.654 954.673 613.663 953.843C615.133 953.104 616.41 952.031 617.39 950.712L627.84 938.735C634.83 930.693 642.094 922.481 651.686 917.775C654.691 916.312 657.86 915.209 660.874 913.789C673.651 907.655 682.685 895.096 686.188 881.408C687.047 878.062 687.597 874.649 688.155 871.236L689.666 861.876C689.782 861.407 689.782 860.917 689.666 860.448C689.429 859.92 689.048 859.469 688.567 859.147C681.288 853.29 674.473 846.884 668.182 839.984C666.687 838.341 665.288 836.091 663.562 834.714C661.398 833.003 661.561 833.131 658.959 834.714C654.957 837.239 651.297 840.266 648.071 843.722Z" fill="#A1616A"/>
<path d="M719.557 906.003C719.47 905.805 719.344 905.626 719.186 905.477C719.028 905.328 718.841 905.212 718.637 905.137C718.433 905.062 718.216 905.029 717.998 905.039C717.781 905.05 717.568 905.104 717.372 905.199C717.177 905.293 717.002 905.426 716.859 905.59C716.717 905.753 716.608 905.944 716.541 906.15C716.474 906.356 716.45 906.574 716.469 906.79C716.489 907.006 716.552 907.215 716.655 907.406L715.796 907.826L741.402 960.114L746.031 957.864L720.424 905.541L719.557 906.003Z" fill="#3F3D56"/>
<path opacity="0.04" d="M648.071 843.722C646.036 845.878 644.155 848.205 641.974 850.224C640.056 851.924 638.049 853.523 635.963 855.015C632.597 857.525 629.306 860.122 626.088 862.809C622.732 865.453 619.695 868.476 617.038 871.817C612.452 877.951 610.28 885.582 605.986 891.922C602.191 897.542 596.841 901.983 592.986 907.56C591.294 909.906 590.038 912.534 589.276 915.32C588.708 918.017 588.451 920.769 588.512 923.524C588.435 928.041 588.366 932.61 589.293 937.033C590.221 941.456 592.256 945.802 595.742 948.702C598.98 951.397 603.161 952.637 607.257 953.664C609.37 954.186 611.654 954.673 613.663 953.843C615.133 953.104 616.41 952.031 617.39 950.712L627.84 938.735C634.83 930.693 642.094 922.481 651.686 917.775C654.691 916.312 657.86 915.209 660.874 913.789C673.651 907.655 682.685 895.096 686.188 881.408C687.047 878.062 687.597 874.649 688.155 871.236L689.666 861.876C689.782 861.407 689.782 860.917 689.666 860.448C689.429 859.92 689.048 859.469 688.567 859.147C681.288 853.29 674.473 846.884 668.182 839.984C666.687 838.341 665.288 836.091 663.562 834.714C661.398 833.003 661.561 833.131 658.959 834.714C654.957 837.239 651.297 840.266 648.071 843.722Z" fill="black"/>
<path d="M944.097 940.087C944.011 945.545 943.796 951.166 941.52 956.145C940.542 958.301 939.022 960.422 936.746 961.132C935.369 961.449 933.944 961.502 932.547 961.286C915.7 959.811 898.725 961.153 882.322 965.256C886.702 956.53 884.186 946.067 885.396 936.383C885.731 933.739 886.341 931.138 886.573 928.486C887.431 919.076 883.387 909.939 881.532 900.648C879.922 892.606 879.922 884.325 881.532 876.283C881.848 874.213 882.562 872.223 883.636 870.423C884.894 868.671 886.547 867.238 888.462 866.239C895.417 862.295 903.618 861.842 911.432 862.364C916.696 862.715 927.249 862.218 931.637 865.444C936.437 868.977 937.957 880.843 939.253 886.327C941.195 894.737 942.515 903.278 943.203 911.881C944.045 921.257 944.225 930.676 944.097 940.087Z" fill="#A1616A"/>
<path d="M636.504 959.028L667.417 979.561L806.525 974.428L714.645 959.028H636.504Z" fill="white"/>
<path d="M677.266 795.891C672.192 800.348 667.89 805.601 663.081 810.349C656.486 816.868 648.99 822.412 641.528 827.93C644.203 828.675 646.639 830.099 648.595 832.064C650.552 834.028 651.963 836.466 652.691 839.137C653.017 840.394 653.18 841.703 653.549 842.935C654.408 845.853 656.297 848.368 658.324 850.635C667.031 860.413 679.216 867.651 684.351 879.722C684.518 880.31 684.882 880.822 685.381 881.177C685.799 881.361 686.263 881.415 686.712 881.331C691.358 880.843 694.913 877.113 697.875 873.485C704.058 865.786 709.424 857.282 712.473 847.889C715.521 838.495 716.011 828.109 712.688 818.801C711.03 814.164 708.471 809.904 705.93 805.686C703.703 801.996 701.482 798.312 699.266 794.633C698.107 792.691 696.63 788.747 694.354 787.789C689.443 785.685 680.418 792.751 677.266 795.891Z" fill="#6C63FF"/>
<path d="M930.186 851.182L937.493 868.293C929.538 865.523 921.036 864.68 912.689 865.833C904.342 866.986 896.391 870.102 889.492 874.923C885.328 877.891 881.506 881.621 879.626 886.361C878.698 886.537 877.739 886.448 876.859 886.104C875.979 885.76 875.215 885.176 874.654 884.419C873.555 882.883 872.918 881.067 872.816 879.183C872.138 872.613 874.637 866.171 877.11 860.028C878.261 857.154 879.446 854.219 881.489 851.884C883.533 849.548 886.246 848.008 888.96 846.554C897.617 841.784 906.683 837.793 916.052 834.628C920.002 833.354 924.14 833.379 926.356 837.058C928.923 841.447 928.176 846.511 930.186 851.182Z" fill="#6C63FF"/>
<path d="M636.685 902.522C638.514 903.976 640.119 905.695 642 907.081C643.989 908.457 646.105 909.64 648.32 910.615L656.787 914.67C659.41 916.028 662.156 917.14 664.987 917.989C668.611 918.956 672.415 919.05 676.056 919.948C680.65 921.078 684.849 923.43 689.374 924.79C693.899 926.151 699.198 926.373 702.976 923.541C705.337 921.77 707.123 918.845 710.051 918.408C711.94 918.16 713.761 919.067 715.444 919.948L737.478 931.489C740.449 933.046 743.592 934.774 745.146 937.743C746.7 940.711 745.653 945.22 742.381 945.99C741.241 946.121 740.094 946.186 738.946 946.187C737.813 946.324 736.576 946.991 736.422 948.129C736.416 948.835 736.603 949.53 736.963 950.139C737.95 952.398 738.242 955.101 737.092 957.291C735.941 959.481 733.116 960.842 730.857 959.858C731.244 963.169 727.629 965.487 724.409 966.368C716.285 968.584 707.673 967.224 699.369 965.821C696.106 965.273 692.792 964.709 689.821 963.254C688.395 962.561 687.073 961.671 685.63 961.03C681.672 959.276 677.172 959.507 672.844 959.584C652.828 959.935 632.984 956.239 613.303 952.56C609.653 951.876 605.901 951.149 602.784 949.138C596.773 945.237 594.54 937.23 595.528 930.146C596.515 923.062 600.122 916.646 603.668 910.418L608.262 902.35C608.863 901.115 609.703 900.01 610.735 899.099C617.493 893.958 630.897 897.885 636.685 902.522Z" fill="#A1616A"/>
<path opacity="0.04" d="M636.685 902.522C638.514 903.976 640.119 905.695 642 907.081C643.989 908.457 646.105 909.64 648.32 910.615L656.787 914.67C659.41 916.028 662.156 917.14 664.987 917.989C668.611 918.956 672.415 919.05 676.056 919.948C680.65 921.078 684.849 923.43 689.374 924.79C693.899 926.151 699.198 926.373 702.976 923.541C705.337 921.77 707.123 918.845 710.051 918.408C711.94 918.16 713.761 919.067 715.444 919.948L737.478 931.489C740.449 933.046 743.592 934.774 745.146 937.743C746.7 940.711 745.653 945.22 742.381 945.99C741.241 946.121 740.094 946.186 738.946 946.187C737.813 946.324 736.576 946.991 736.422 948.129C736.416 948.835 736.603 949.53 736.963 950.139C737.95 952.398 738.242 955.101 737.092 957.291C735.941 959.481 733.116 960.842 730.857 959.858C731.244 963.169 727.629 965.487 724.409 966.368C716.285 968.584 707.673 967.224 699.369 965.821C696.106 965.273 692.792 964.709 689.821 963.254C688.395 962.561 687.073 961.671 685.63 961.03C681.672 959.276 677.172 959.507 672.844 959.584C652.828 959.935 632.984 956.239 613.303 952.56C609.653 951.876 605.901 951.149 602.784 949.138C596.773 945.237 594.54 937.23 595.528 930.146C596.515 923.062 600.122 916.646 603.668 910.418L608.262 902.35C608.863 901.115 609.703 900.01 610.735 899.099C617.493 893.958 630.897 897.885 636.685 902.522Z" fill="black"/>
<path d="M898.809 917.305C894.335 919.409 889.2 919.615 884.529 921.231C879.858 922.848 875.891 925.757 871.606 928.127C860.443 934.338 847.562 936.682 834.914 938.915C827.246 940.284 819.457 941.653 811.729 941.327C801.27 940.883 791.224 937.409 781.091 934.791C770.958 932.173 760.147 930.411 750.109 933.354C744.867 934.944 740.076 937.743 736.122 941.522C732.168 945.302 729.165 949.957 727.354 955.11C725.25 961.261 724.958 967.891 725.362 974.376C727.474 975.924 730.428 973.777 731.579 971.424C732.729 969.072 733.356 966.189 735.589 964.82C739.462 966.129 740.406 971.27 743.6 973.811C745.593 975.402 748.255 975.822 750.788 976.181L763.84 978.029C766.983 978.474 770.632 978.773 772.908 976.566C774.015 975.496 774.625 973.999 775.638 972.853C777.716 970.56 781.185 970.167 784.277 970.475C793.928 971.433 802.979 977.669 812.562 976.189C815.859 975.685 818.925 974.282 822.068 973.178C840.693 966.625 861.387 970.612 880.768 966.856C888.161 965.427 895.28 962.895 902.313 960.226C906.134 958.78 909.998 957.266 913.261 954.819C916.352 952.451 918.79 949.34 920.346 945.777C921.902 942.215 922.525 938.317 922.157 934.449C921.438 928.555 918.486 923.156 913.905 919.358C912.394 918.075 910.41 915.619 908.598 914.815C905.138 913.301 901.746 915.927 898.809 917.305Z" fill="#A1616A"/>
<g opacity="0.1">
<path opacity="0.1" d="M873.718 808.013C872.284 806.747 871.932 804.822 870.696 803.419C868.119 800.451 862.916 800.853 858.674 801.452C851.28 802.487 842.359 802.726 837.773 797.602C835.79 795.395 834.914 792.469 832.492 790.629C826.842 786.352 817.122 790.732 810.896 787.113C805.461 783.956 805.813 776.633 801.279 772.57C796.745 768.506 788.888 769.036 782.731 771.064C781.689 771.541 780.522 771.673 779.399 771.44C777.45 770.756 777.588 768.343 778.068 766.564C780.413 757.966 782.8 749.283 787.359 741.378C789.017 738.495 790.975 735.714 792.039 732.617C793.903 727.193 792.95 721.059 795.397 715.926C792.769 717.637 790.245 719.502 788.622 721.915C784.964 727.347 786.381 734.26 784.328 740.291C783.263 743.388 781.306 746.169 779.648 749.052C775.089 756.957 772.702 765.64 770.357 774.238C769.876 776.017 769.739 778.43 771.688 779.114C772.811 779.346 773.978 779.215 775.02 778.738C781.177 776.71 789 776.129 793.568 780.244C798.136 784.359 797.75 791.656 803.185 794.787C809.411 798.406 819.131 794.034 824.781 798.303C827.203 800.134 828.079 803.068 830.062 805.276C834.682 810.409 843.569 810.161 850.963 809.126C855.205 808.527 860.408 808.125 862.984 811.093C864.221 812.496 864.573 814.421 866.007 815.687C868.583 817.98 873.297 816.817 875.813 814.464C877.427 812.79 878.807 810.908 879.918 808.869C877.685 809.545 875.307 809.442 873.718 808.013Z" fill="black"/>
<path opacity="0.1" d="M889.363 798.603C888.81 799.313 888.297 800.053 887.826 800.819C891.124 798.475 894.619 796.284 897.083 793.299C897.723 792.526 898.297 791.702 898.8 790.835C895.374 793.282 891.802 795.532 889.363 798.603Z" fill="black"/>
</g>
<path d="M720.141 903.505C720.054 903.306 719.928 903.127 719.77 902.978C719.612 902.829 719.425 902.714 719.221 902.638C719.017 902.563 718.799 902.53 718.582 902.541C718.365 902.551 718.152 902.605 717.956 902.7C717.761 902.795 717.586 902.928 717.443 903.091C717.3 903.255 717.192 903.445 717.125 903.651C717.058 903.858 717.034 904.075 717.053 904.291C717.073 904.507 717.136 904.717 717.239 904.908L716.38 905.327L741.986 957.616L746.614 955.366L721.008 903.043L720.141 903.505Z" fill="#3F3D56"/>
<g opacity="0.1">
<path opacity="0.1" d="M1297.11 692.152C1296.1 689.478 1294.94 686.864 1293.63 684.324C1292.78 684.486 1291.94 684.7 1291.12 684.965C1292.59 687.403 1293.92 689.926 1295.1 692.52C1295.76 692.349 1296.43 692.229 1297.11 692.152Z" fill="black"/>
<path opacity="0.1" d="M1346.93 725.884C1347.17 726.073 1347.39 726.287 1347.61 726.484C1347.6 726.428 1347.58 726.374 1347.55 726.321C1347.36 726.178 1347.15 726.033 1346.93 725.884Z" fill="black"/>
<path opacity="0.1" d="M1267.11 729.649C1267.56 729.298 1267.97 728.93 1268.45 728.588L1268.31 724.524L1259.14 724.43C1257.66 725.79 1256.08 727.741 1256.95 729.563L1267.11 729.649Z" fill="black"/>
<path opacity="0.1" d="M1367.37 798.055C1365.74 801.084 1363.39 803.924 1360.17 805.147C1357.69 806.088 1354.95 806.003 1352.3 805.883C1343.25 805.515 1334.05 805.113 1325.49 802.127C1321.49 800.724 1317.66 798.765 1313.47 797.901C1308.57 796.892 1303.49 797.465 1298.52 798.047L1276.61 800.613C1270.14 801.366 1262.94 801.931 1257.78 797.978C1254.82 795.72 1252.92 792.203 1249.68 790.39C1248.31 789.62 1246.69 789.124 1245.81 787.823C1245.25 786.858 1244.95 785.764 1244.95 784.649C1244.88 783.751 1244.84 782.853 1244.8 781.954C1244.71 784.565 1244.76 787.178 1244.95 789.782C1244.95 790.897 1245.25 791.991 1245.81 792.956C1246.67 794.248 1248.31 794.744 1249.68 795.523C1252.92 797.337 1254.83 800.853 1257.78 803.111C1262.93 807.064 1270.14 806.533 1276.61 805.746L1298.52 803.18C1303.49 802.598 1308.57 802.025 1313.47 803.034C1317.63 803.89 1321.46 805.857 1325.49 807.26C1334.08 810.246 1343.25 810.683 1352.3 811.016C1354.95 811.127 1357.69 811.221 1360.17 810.28C1363.39 809.057 1365.74 806.217 1367.37 803.188C1370.53 797.328 1371.42 790.681 1371.08 783.982C1370.9 788.888 1369.63 793.693 1367.37 798.055Z" fill="black"/>
</g>
<path opacity="0.1" d="M1296.86 697.653L1308.89 708.775C1308.89 708.775 1298.58 704.497 1296.86 697.653Z" fill="black"/>
<path d="M949.526 1185.28C944.564 1184.56 940.036 1182.01 936.806 1178.1C933.575 1174.2 931.867 1169.23 932.008 1164.12C932.149 1159.02 934.128 1154.15 937.569 1150.44C941.01 1146.73 945.672 1144.44 950.666 1144L948.987 1152.39L955.239 1144.12C955.257 1144.12 955.276 1144.13 955.294 1144.13C960.653 1144.91 965.489 1147.82 968.737 1152.23C971.986 1156.64 973.381 1162.19 972.616 1167.64C971.851 1173.1 968.989 1178.02 964.659 1181.33C960.329 1184.64 954.885 1186.06 949.526 1185.28Z" fill="#57B894"/>
<path d="M954.361 1205.71C954.733 1202.25 954.244 1198.74 952.938 1195.52C951.631 1192.3 949.55 1189.46 946.885 1187.28L940.971 1195.64L942.802 1184.66C938.891 1182.77 934.493 1182.19 930.243 1183.01C925.993 1183.83 922.11 1186.01 919.156 1189.23C916.203 1192.44 914.33 1196.53 913.809 1200.91C913.288 1205.28 914.145 1209.71 916.258 1213.56C918.37 1217.4 921.628 1220.47 925.561 1222.31C929.493 1224.15 933.898 1224.68 938.138 1223.8C942.378 1222.93 946.234 1220.71 949.15 1217.46C952.066 1214.2 953.891 1210.09 954.361 1205.71L954.361 1205.71Z" fill="#57B894"/>
<path d="M980.542 1077.37C977.413 1076.91 974.429 1075.73 971.826 1073.9C969.223 1072.07 967.073 1069.65 965.545 1066.84C964.016 1064.02 963.151 1060.88 963.018 1057.66C962.885 1054.44 963.487 1051.24 964.778 1048.3C966.068 1045.36 968.011 1042.77 970.454 1040.73C972.896 1038.68 975.771 1037.24 978.853 1036.53C981.934 1035.81 985.137 1035.83 988.21 1036.58C991.283 1037.34 994.141 1038.81 996.559 1040.89L991.166 1050.08L999.788 1044.37C1003.02 1048.77 1004.4 1054.29 1003.63 1059.72C1003.36 1061.63 1002.84 1063.49 1002.06 1065.25C1000.26 1069.37 997.182 1072.79 993.298 1074.98C989.414 1077.16 984.936 1078 980.542 1077.37Z" fill="#57B894"/>
<path d="M1262.54 321.365C1259.41 320.913 1256.43 319.726 1253.83 317.899C1251.22 316.071 1249.07 313.653 1247.54 310.836C1246.02 308.018 1245.15 304.877 1245.02 301.661C1244.89 298.444 1245.49 295.241 1246.78 292.302C1248.07 289.363 1250.01 286.77 1252.45 284.726C1254.9 282.682 1257.77 281.244 1260.85 280.525C1263.93 279.806 1267.14 279.826 1270.21 280.582C1273.28 281.339 1276.14 282.812 1278.56 284.885L1273.17 294.081L1281.79 288.371C1285.02 292.768 1286.4 298.289 1285.63 303.722C1285.36 305.629 1284.84 307.489 1284.06 309.246C1282.26 313.374 1279.18 316.791 1275.3 318.978C1271.41 321.165 1266.94 322.003 1262.54 321.365Z" fill="#57B894"/>
<path d="M589.392 1267.17C592.08 1265.51 595.129 1264.5 598.297 1264.23C601.466 1263.95 604.667 1264.42 607.649 1265.6C610.631 1266.78 613.313 1268.63 615.482 1271C617.651 1273.38 619.249 1276.22 620.15 1279.3C621.05 1282.39 621.229 1285.62 620.672 1288.76C620.114 1291.89 618.836 1294.84 616.938 1297.37C615.039 1299.91 612.573 1301.95 609.733 1303.34C606.893 1304.74 603.756 1305.45 600.571 1305.42L598.791 1294.9L595.857 1304.82C590.559 1303.53 585.952 1300.18 583.049 1295.53C582.024 1293.9 581.231 1292.14 580.695 1290.29C579.424 1285.97 579.586 1281.37 581.155 1277.2C582.725 1273.03 585.616 1269.51 589.392 1267.17Z" fill="#57B894"/>
<path d="M529.996 809.661C529.543 812.791 528.357 815.775 526.529 818.378C524.702 820.98 522.284 823.131 519.466 824.659C516.649 826.188 513.508 827.053 510.292 827.186C507.075 827.319 503.872 826.716 500.933 825.426C497.994 824.136 495.401 822.193 493.357 819.75C491.313 817.308 489.875 814.432 489.156 811.351C488.437 808.27 488.456 805.066 489.213 801.994C489.97 798.921 491.443 796.063 493.516 793.644L502.712 799.038L497.002 790.415C501.399 787.189 506.92 785.808 512.353 786.577C514.26 786.839 516.12 787.365 517.877 788.139C522.005 789.944 525.422 793.022 527.608 796.906C529.795 800.79 530.634 805.268 529.996 809.661Z" fill="#57B894"/>
<path d="M1003.62 1056.72C1004.1 1053.27 1003.72 1049.75 1002.52 1046.49C1001.32 1043.23 999.332 1040.32 996.74 1038.05L990.558 1046.22L992.743 1035.3C988.895 1033.29 984.518 1032.57 980.244 1033.25C975.969 1033.94 972.019 1035.98 968.962 1039.1C965.906 1042.22 963.902 1046.25 963.24 1050.6C962.578 1054.96 963.292 1059.41 965.279 1063.33C967.266 1067.24 970.423 1070.41 974.294 1072.38C978.166 1074.35 982.551 1075.01 986.817 1074.28C991.083 1073.54 995.009 1071.44 998.029 1068.29C1001.05 1065.13 1003 1061.08 1003.62 1056.72V1056.72Z" stroke="#3F3D56" stroke-miterlimit="10"/>
<path d="M1283.62 295.718C1284.1 292.269 1283.72 288.751 1282.52 285.488C1281.32 282.225 1279.33 279.323 1276.74 277.049L1270.56 285.219L1272.74 274.3C1268.9 272.285 1264.52 271.568 1260.24 272.252C1255.97 272.935 1252.02 274.984 1248.96 278.103C1245.91 281.222 1243.9 285.249 1243.24 289.603C1242.58 293.957 1243.29 298.413 1245.28 302.327C1247.27 306.241 1250.42 309.411 1254.29 311.379C1258.17 313.346 1262.55 314.011 1266.82 313.275C1271.08 312.54 1275.01 310.443 1278.03 307.287C1281.05 304.131 1283 300.08 1283.62 295.718V295.718Z" stroke="#3F3D56" stroke-miterlimit="10"/>
<path d="M584.881 1299.52C586.727 1302.48 589.276 1304.93 592.294 1306.66C595.311 1308.38 598.7 1309.33 602.148 1309.4L601.632 1299.17L606.977 1308.94C611.219 1308.01 615.034 1305.75 617.869 1302.48C620.704 1299.2 622.413 1295.1 622.749 1290.74C623.086 1286.39 622.032 1282.02 619.74 1278.25C617.449 1274.49 614.038 1271.54 610 1269.82C605.962 1268.1 601.506 1267.7 597.276 1268.68C593.045 1269.66 589.259 1271.97 586.464 1275.28C583.668 1278.58 582.009 1282.71 581.724 1287.07C581.44 1291.43 582.545 1295.79 584.881 1299.52L584.881 1299.52Z" stroke="#3F3D56" stroke-miterlimit="10"/>
<path d="M527.616 801.718C528.1 798.269 527.724 794.751 526.523 791.488C525.321 788.225 523.332 785.323 520.74 783.049L514.558 791.219L516.743 780.3C512.895 778.285 508.518 777.568 504.244 778.252C499.969 778.935 496.019 780.984 492.962 784.103C489.906 787.222 487.902 791.249 487.24 795.603C486.578 799.957 487.292 804.413 489.279 808.327C491.266 812.241 494.423 815.411 498.294 817.379C502.166 819.346 506.551 820.011 510.817 819.275C515.083 818.54 519.009 816.443 522.029 813.287C525.048 810.131 527.005 806.08 527.616 801.718V801.718Z" stroke="#3F3D56" stroke-miterlimit="10"/>
<path d="M941.526 1185.28C936.564 1184.56 932.036 1182.01 928.806 1178.1C925.575 1174.2 923.867 1169.23 924.008 1164.12C924.149 1159.02 926.129 1154.15 929.569 1150.44C933.01 1146.73 937.672 1144.44 942.666 1144L940.987 1152.39L947.239 1144.12C947.257 1144.12 947.276 1144.13 947.294 1144.13C949.947 1144.52 952.5 1145.43 954.807 1146.82C957.114 1148.21 959.129 1150.05 960.737 1152.23C962.346 1154.42 963.516 1156.9 964.182 1159.55C964.847 1162.19 964.995 1164.94 964.616 1167.64C964.238 1170.34 963.34 1172.94 961.975 1175.29C960.609 1177.64 958.803 1179.69 956.659 1181.33C954.515 1182.97 952.075 1184.16 949.478 1184.84C946.882 1185.52 944.18 1185.67 941.526 1185.28V1185.28Z" stroke="#3F3D56" stroke-miterlimit="10"/>
<path d="M1007.47 1117.57C1004.59 1121.33 1000.52 1123.96 995.963 1125.02C991.401 1126.09 986.618 1125.52 982.416 1123.43C978.214 1121.33 974.848 1117.82 972.884 1113.49C970.919 1109.17 970.476 1104.29 971.627 1099.67C972.778 1095.05 975.454 1090.97 979.206 1088.12C982.958 1085.27 987.558 1083.82 992.234 1084.02C996.911 1084.21 1001.38 1086.04 1004.89 1089.19C1008.4 1092.34 1010.74 1096.63 1011.52 1101.33L997.055 1109.27L1011.44 1108.69C1010.83 1111.93 1009.47 1114.98 1007.47 1117.57Z" fill="#57B894"/>
<path d="M1004.47 1117.57C1001.59 1121.33 997.525 1123.96 992.963 1125.02C988.401 1126.09 983.618 1125.52 979.416 1123.43C975.214 1121.33 971.848 1117.82 969.884 1113.49C967.919 1109.17 967.476 1104.29 968.627 1099.67C969.778 1095.05 972.454 1090.97 976.206 1088.12C979.958 1085.27 984.558 1083.82 989.234 1084.02C993.911 1084.21 998.38 1086.04 1001.89 1089.19C1005.4 1092.34 1007.74 1096.63 1008.52 1101.33L994.055 1109.27L1008.44 1108.69C1007.83 1111.93 1006.47 1114.98 1004.47 1117.57V1117.57Z" stroke="#3F3D56" stroke-miterlimit="10"/>
<path d="M977.674 635H910V711.901H977.674V635Z" fill="#6C63FF"/>
<path d="M509.674 195H442V271.901H509.674V195Z" fill="#6C63FF"/>
<path d="M991.674 77H924V153.901H991.674V77Z" fill="#6C63FF"/>
<path d="M520.674 696H453V772.901H520.674V696Z" fill="#F2F2F2"/>
<path d="M986.368 642.5H918.694V719.401H986.368V642.5Z" stroke="#3F3D56" stroke-miterlimit="10"/>
<path d="M1122.7 771.334H1055.02V848.235H1122.7V771.334Z" fill="#6C63FF"/>
<path d="M1134.47 764.343H1066.79V841.244H1134.47V764.343Z" stroke="#3F3D56" stroke-miterlimit="10"/>
<path d="M1230.09 1211.87C1276.95 1211.87 1314.93 1168 1314.93 1113.89C1314.93 1059.78 1276.95 1015.92 1230.09 1015.92C1183.24 1015.92 1145.25 1059.78 1145.25 1113.89C1145.25 1168 1183.24 1211.87 1230.09 1211.87Z" fill="#36334A"/>
<path d="M1338.99 787.887C1318.6 796.944 1296.37 800.865 1274.18 799.318C1279.88 795.178 1283.54 788.53 1285.02 781.559C1286.49 774.589 1285.93 767.304 1284.41 760.345C1284.13 759.55 1284.14 758.68 1284.45 757.896C1284.76 757.503 1285.16 757.186 1285.61 756.969C1286.05 756.751 1286.55 756.639 1287.04 756.64C1295.64 755.422 1320.25 750.133 1326.79 757.625C1329.9 761.174 1328.71 768.07 1329.84 772.406C1330.31 774.197 1336.29 789.091 1338.99 787.887Z" fill="#FBBEBE"/>
<path opacity="0.1" d="M1338.99 787.887C1318.6 796.944 1296.37 800.865 1274.18 799.318C1279.88 795.178 1283.54 788.53 1285.02 781.559C1286.49 774.589 1285.93 767.304 1284.41 760.345C1284.13 759.55 1284.14 758.68 1284.45 757.896C1284.76 757.503 1285.16 757.186 1285.61 756.969C1286.05 756.751 1286.55 756.639 1287.04 756.64C1295.64 755.422 1320.25 750.133 1326.79 757.625C1329.9 761.174 1328.71 768.07 1329.84 772.406C1330.31 774.197 1336.29 789.091 1338.99 787.887Z" fill="black"/>
<path d="M1267.36 936.622L1139.86 940.616C1139.86 940.616 1027.07 1052.47 1120.24 1086.43C1120.24 1086.43 1235 1105.4 1262.46 1083.43C1262.46 1083.43 1296.79 945.61 1267.36 936.622ZM1261.48 973.574L1125.15 982.563C1125.15 982.563 1134.96 948.606 1174.19 948.606C1213.42 948.606 1257.55 939.618 1261.48 960.591C1265.4 981.564 1261.48 973.574 1261.48 973.574Z" fill="#3F3D56"/>
<path d="M1166.85 918.703C1160.49 917.712 1153.57 917.14 1148 920.419C1146.15 921.599 1144.43 922.983 1142.87 924.544C1140.63 926.639 1138.4 928.752 1136.2 930.883C1134.59 932.442 1132.9 934.16 1132.48 936.385C1131.63 940.964 1136.83 944.65 1141.4 944.472C1145.97 944.293 1150.07 941.734 1154.39 940.193C1163.09 937.089 1195.07 942.395 1196.82 932.859C1199.04 920.733 1173.92 919.849 1166.85 918.703Z" fill="#FBBEBE"/>
<path d="M1226.45 911.046C1218.13 915.347 1209.08 917.965 1199.78 918.756C1198.33 918.781 1196.9 919.091 1195.56 919.671C1194.76 920.177 1194.14 920.944 1193.81 921.849C1190.54 928.815 1188.52 936.318 1187.85 944.007C1187.76 944.376 1187.78 944.763 1187.9 945.122C1188.02 945.481 1188.24 945.796 1188.53 946.03C1189.43 946.486 1190.42 946.713 1191.42 946.689C1206.68 947.676 1221.98 948.205 1237.34 948.278C1238.02 948.331 1238.7 948.237 1239.34 948.001C1239.57 947.881 1239.76 947.716 1239.92 947.517C1240.08 947.318 1240.19 947.089 1240.26 946.843C1243.87 937.718 1245.57 927.93 1245.25 918.1C1244.85 906.523 1241.52 902.898 1226.45 911.046Z" fill="#D7E5F2"/>
<path opacity="0.1" d="M1226.45 911.046C1218.13 915.347 1209.08 917.965 1199.78 918.756C1198.33 918.781 1196.9 919.091 1195.56 919.671C1194.76 920.177 1194.14 920.944 1193.81 921.849C1190.54 928.815 1188.52 936.318 1187.85 944.007C1187.76 944.376 1187.78 944.763 1187.9 945.122C1188.02 945.481 1188.24 945.796 1188.53 946.03C1189.43 946.486 1190.42 946.713 1191.42 946.689C1206.68 947.676 1221.98 948.205 1237.34 948.278C1238.02 948.331 1238.7 948.237 1239.34 948.001C1239.57 947.881 1239.76 947.716 1239.92 947.517C1240.08 947.318 1240.19 947.089 1240.26 946.843C1243.87 937.718 1245.57 927.93 1245.25 918.1C1244.85 906.523 1241.52 902.898 1226.45 911.046Z" fill="black"/>
<path d="M1397.81 1015.52L1230.09 1009.53L1269.32 840.745C1269.32 840.745 1426.25 828.76 1422.33 869.708C1418.4 910.655 1397.81 1015.52 1397.81 1015.52Z" fill="#36334A"/>
<path d="M1235.9 1096.2C1235.9 1096.2 1134.96 1114.39 1098.67 1060.46C1062.38 1006.53 1235.98 1035.49 1235.98 1035.49L1250.69 1076.44L1235.9 1096.2Z" fill="#36334A"/>
<path d="M1207.57 1345.12C1233.03 1345.12 1253.67 1324.11 1253.67 1298.18C1253.67 1272.26 1233.03 1251.24 1207.57 1251.24C1182.11 1251.24 1161.48 1272.26 1161.48 1298.18C1161.48 1324.11 1182.11 1345.12 1207.57 1345.12Z" fill="#36334A"/>
<path d="M1211.99 1332.14C1227.97 1332.14 1240.92 1316.94 1240.92 1298.18C1240.92 1279.43 1227.97 1264.23 1211.99 1264.23C1196.01 1264.23 1183.05 1279.43 1183.05 1298.18C1183.05 1316.94 1196.01 1332.14 1211.99 1332.14Z" fill="#3F3D56"/>
<path d="M1457.63 835.751C1457.63 835.751 1419.38 813.779 1417.42 865.713L1385.06 1107.4H1398.79L1436.06 848.734C1436.06 848.734 1454.69 851.731 1457.63 851.731C1460.58 851.731 1457.63 835.751 1457.63 835.751Z" fill="#3F3D56"/>
<path d="M1228.17 1110.42C1228.17 1110.42 1157.55 1102.43 1137.94 1171.35C1118.32 1240.26 1120.28 1293.19 1103.61 1289.19C1086.94 1285.2 1051.63 1271.22 1051.63 1271.22L1054.57 1292.19C1054.57 1292.19 1116.36 1324.15 1126.17 1290.19C1135.98 1256.24 1141.86 1131.4 1197.77 1134.39C1253.67 1137.39 1263.48 1131.4 1263.48 1131.4L1228.17 1110.42Z" fill="#3F3D56"/>
<path d="M1091.8 1057.47C1091.8 1057.47 1036.88 1064.46 1015.3 1105.4C993.724 1146.35 982.935 1220.26 982.935 1220.26H1003.53C1003.53 1220.26 1015.3 1073.45 1077.09 1081.44L1091.8 1057.47Z" fill="#3F3D56"/>
<path d="M1056.53 1306.17L969.243 1251.24C969.243 1251.24 964.339 1231.27 1020.24 1223.28C1020.24 1223.28 1125.94 1260.92 1115.76 1275.06C1105.57 1289.19 1071.24 1311.17 1056.53 1306.17Z" fill="#36334A"/>
<path d="M1191.88 1127.4V1244.25H1204.63V1125.4L1191.88 1127.4Z" fill="#3F3D56"/>
<path d="M1210.52 1199.31C1210.52 1199.31 1235.03 1297.18 1219.34 1311.17C1219.34 1311.17 1198.75 1249.25 1183.05 1257.24L1187.96 1199.31H1210.52Z" fill="#36334A"/>
<path d="M1303.65 771.833C1324.78 771.833 1341.9 754.395 1341.9 732.883C1341.9 711.372 1324.78 693.933 1303.65 693.933C1282.53 693.933 1265.4 711.372 1265.4 732.883C1265.4 754.395 1282.53 771.833 1303.65 771.833Z" fill="#FBBEBE"/>
<path d="M1296.42 791.918C1312.02 794.617 1325.5 776.149 1341.11 778.746C1344.51 779.454 1347.76 780.756 1350.72 782.595C1362.22 789.221 1372.24 798.212 1380.15 808.996C1388.06 819.779 1393.67 832.12 1396.65 845.233C1398.41 853.243 1399.09 861.93 1395.77 869.41C1394 873.386 1391.21 876.782 1388.42 880.091C1378.03 892.395 1366.62 904.656 1351.8 910.61C1350.35 915.717 1351.74 921.246 1353.48 926.26C1360.73 947.191 1349.2 969.749 1348.61 991.936C1348.51 995.731 1348.62 999.889 1346.29 1002.85C1343.7 1006.14 1339.09 1006.73 1334.95 1006.96C1297.08 1009.14 1259.26 1003.22 1221.77 997.321C1220.79 997.253 1219.84 996.926 1219.02 996.373C1217.79 995.371 1217.6 993.58 1217.34 991.996C1215.95 983.612 1223.26 976.815 1219.79 969.08C1213.84 955.783 1226.83 941.242 1230.58 927.134C1234.33 913.025 1235.81 910.544 1238.43 896.174C1239.41 890.8 1236.59 874.602 1237.45 869.208C1240.26 851.589 1238.13 831.52 1247.26 816.276C1252.74 807.117 1251.31 799.996 1261.09 796.014C1271.41 791.812 1285.38 793.226 1296.42 791.918Z" fill="#D7E5F2"/>
<path d="M1123.67 1024.2C1112.25 1026.44 1100.13 1028.58 1091.34 1036.34C1085.98 1041.08 1082.37 1047.5 1078.86 1053.79L1043.11 1117.97C1032.21 1137.55 1021.3 1157.13 1011.42 1177.26C1010.55 1178.72 1010.05 1180.38 1009.94 1182.08C1009.98 1184.48 1011.56 1186.55 1013.19 1188.29C1018.83 1194.25 1025.76 1198.77 1033.42 1201.52C1041.08 1204.26 1049.27 1205.14 1057.33 1204.1C1059.79 1191.13 1071.89 1182.56 1077.82 1170.82C1081.08 1164.37 1082.39 1157.11 1084.49 1150.18C1092.34 1124.32 1110.97 1103.56 1129.06 1083.73C1137.61 1074.36 1146.36 1064.82 1157.37 1058.67C1170.29 1051.46 1185.28 1049.46 1199.72 1046.47C1214.16 1043.47 1229.11 1038.93 1239.33 1028.11C1243.67 1023.46 1246.93 1017.88 1248.89 1011.77C1250.85 1005.67 1251.45 999.207 1250.66 992.84C1241.41 992.181 1231.11 990.956 1222.19 993.985C1211.82 997.504 1201.8 1002.31 1191.42 1005.91C1169.28 1013.58 1146.64 1019.69 1123.67 1024.2Z" fill="#696880"/>
<path opacity="0.1" d="M1123.67 1024.2C1112.25 1026.44 1100.13 1028.58 1091.34 1036.34C1085.98 1041.08 1082.37 1047.5 1078.86 1053.79L1043.11 1117.97C1032.21 1137.55 1021.3 1157.13 1011.42 1177.26C1010.55 1178.72 1010.05 1180.38 1009.94 1182.08C1009.98 1184.48 1011.56 1186.55 1013.19 1188.29C1018.83 1194.25 1025.76 1198.77 1033.42 1201.52C1041.08 1204.26 1049.27 1205.14 1057.33 1204.1C1059.79 1191.13 1071.89 1182.56 1077.82 1170.82C1081.08 1164.37 1082.39 1157.11 1084.49 1150.18C1092.34 1124.32 1110.97 1103.56 1129.06 1083.73C1137.61 1074.36 1146.36 1064.82 1157.37 1058.67C1170.29 1051.46 1185.28 1049.46 1199.72 1046.47C1214.16 1043.47 1229.11 1038.93 1239.33 1028.11C1243.67 1023.46 1246.93 1017.88 1248.89 1011.77C1250.85 1005.67 1251.45 999.207 1250.66 992.84C1241.41 992.181 1231.11 990.956 1222.19 993.985C1211.82 997.504 1201.8 1002.31 1191.42 1005.91C1169.28 1013.58 1146.64 1019.69 1123.67 1024.2Z" fill="black"/>
<path d="M971.545 1247.73C970.272 1248.66 969.293 1249.94 968.729 1251.43C967.43 1255.93 972.966 1259.11 977.396 1260.41C987.35 1263.32 997.968 1266.25 1007.9 1263.24C1013.98 1261.4 1019.28 1257.45 1025.33 1255.47C1034.31 1252.54 1044.03 1254.21 1053.31 1255.9C1055.38 1244.02 1053.99 1231.78 1049.3 1220.7C1046.32 1213.71 1034.4 1210.3 1027.31 1210C1019.55 1209.66 1016.86 1215.49 1012.38 1220.85C1001.48 1233.91 984.107 1236.94 971.545 1247.73Z" fill="#3F3D56"/>
<path d="M1130.96 1043.33C1125.47 1045.56 1119.85 1047.87 1115.54 1051.99C1111 1056.33 1108.34 1062.29 1105.91 1068.14C1098.74 1085.43 1092.64 1103.16 1087.64 1121.22C1085.11 1130.34 1082.86 1139.58 1079.45 1148.4C1072.66 1166.02 1061.13 1182.88 1062.21 1201.78C1062.21 1204.07 1062.81 1206.32 1063.97 1208.3C1065.51 1210.57 1068.12 1211.78 1070.61 1212.88L1083.65 1218.64C1090.65 1221.74 1099.19 1224.71 1105.44 1220.26C1109.63 1217.28 1111.3 1211.88 1112.56 1206.84C1117.12 1188.65 1119.94 1169.75 1128.1 1152.92C1137.34 1133.89 1152.94 1118.51 1161.2 1099.03C1162.37 1096.27 1163.48 1093.31 1165.78 1091.43C1167.68 1089.88 1170.14 1089.27 1172.51 1088.72C1221.49 1077.36 1271.58 1071.15 1320.17 1058.16C1327.08 1056.32 1334.3 1054.13 1339.23 1048.86C1346.07 1041.56 1346.67 1030.47 1346.89 1020.39C1347.03 1014.07 1347 1007.21 1343.22 1002.2C1338.96 996.548 1331.32 995.056 1324.36 994.311C1297.67 991.452 1273.05 995.956 1246.76 999.254C1222.71 1002.27 1198.48 1016.1 1176.05 1025.13C1161.01 1031.18 1145.98 1037.25 1130.96 1043.33Z" fill="#696880"/>
<path d="M1072.61 1243.88C1068.94 1252.75 1064.98 1262.02 1057.54 1267.95C1054.43 1270.43 1050.41 1272.91 1050.29 1276.93C1050.16 1281.18 1054.54 1283.99 1058.47 1285.43C1068.48 1289.11 1079.87 1289.9 1089.63 1285.59C1096.31 1282.65 1101.82 1277.57 1107.19 1272.57C1108.81 1271.07 1110.49 1269.48 1111.25 1267.38C1111.76 1265.62 1111.92 1263.77 1111.7 1261.94C1111.06 1250.84 1109.11 1239.87 1105.91 1229.24C1105.67 1228.4 1084.56 1225.73 1082.69 1226.22C1076.8 1227.79 1074.88 1238.39 1072.61 1243.88Z" fill="#3F3D56"/>
<path d="M1398.79 966.583L1271.29 970.578C1271.29 970.578 1158.5 1082.43 1251.67 1116.39C1251.67 1116.39 1366.42 1135.37 1393.88 1113.39C1393.88 1113.39 1428.21 975.572 1398.79 966.583ZM1392.9 1003.54L1256.57 1012.52C1256.57 1012.52 1266.38 978.568 1305.61 978.568C1344.84 978.568 1388.98 969.579 1392.9 990.552C1396.83 1011.53 1392.9 1003.54 1392.9 1003.54Z" fill="#3F3D56"/>
<path d="M1369.85 1325.12C1440.54 1325.12 1497.85 1258.95 1497.85 1177.31C1497.85 1095.68 1440.54 1029.5 1369.85 1029.5C1299.17 1029.5 1241.86 1095.68 1241.86 1177.31C1241.86 1258.95 1299.17 1325.12 1369.85 1325.12Z" fill="#36334A"/>
<path d="M1375.74 1287.17C1429.09 1287.17 1472.35 1237.99 1472.35 1177.31C1472.35 1116.64 1429.09 1067.45 1375.74 1067.45C1322.38 1067.45 1279.13 1116.64 1279.13 1177.31C1279.13 1237.99 1322.38 1287.17 1375.74 1287.17Z" fill="#3F3D56"/>
<path d="M1400.75 1175.81C1400.75 1173.9 1400.56 1171.99 1400.19 1170.11L1472.35 1133.37L1467.44 1122.38L1394.55 1158.54C1393.82 1157.77 1393 1157.08 1392.13 1156.48L1392.19 1156.49L1413.5 1048.48L1394.65 1048.04L1382.11 1154.34L1383.31 1154.6C1382.34 1154.8 1381.4 1155.13 1380.5 1155.58L1317.46 1089.69L1308.55 1102.41L1373.32 1163.09C1371.7 1166.26 1370.72 1169.74 1370.46 1173.31L1279.13 1211.27L1277.17 1227.25L1372.36 1186.48C1373.25 1188.72 1374.51 1190.79 1376.09 1192.6L1346.81 1294.16H1357.59L1382.17 1196.74C1383.26 1197.1 1384.4 1197.28 1385.55 1197.29C1387.76 1197.27 1389.92 1196.61 1391.78 1195.38L1442.92 1264.2L1458.61 1253.21L1398.69 1186.56C1400.07 1183.15 1400.77 1179.5 1400.75 1175.81Z" fill="#36334A"/>
<path d="M1262.54 707.999C1264.26 703.58 1269.84 701.753 1271.66 697.375C1273.62 692.667 1270.55 686.677 1273.22 682.346C1275.91 677.981 1282.18 678.493 1287.17 679.336C1293.07 680.331 1299.33 681.001 1304.83 678.619C1307.28 677.56 1309.45 675.943 1311.81 674.716C1315.58 672.772 1319.77 671.844 1323.99 672.021C1324.94 671.999 1325.88 672.228 1326.72 672.685C1327.52 673.271 1328.13 674.08 1328.49 675.013C1330.21 678.806 1330.45 683.54 1333.57 686.261C1335.06 687.568 1337 688.183 1338.79 689.02C1342.97 691.07 1346.42 694.374 1348.69 698.486C1350.96 702.597 1351.93 707.319 1351.48 712.013C1351.07 714.186 1350.81 716.387 1350.71 718.598C1350.83 723.455 1353.95 728.306 1352.36 732.885C1351.17 736.289 1347.71 738.304 1344.32 739.353C1343.35 739.752 1342.28 739.808 1341.28 739.509C1339.54 738.791 1339.2 736.514 1338.64 734.687C1337.85 732.295 1336.34 730.222 1334.31 728.769C1332.29 727.316 1329.86 726.56 1327.39 726.612C1323.43 726.783 1319.43 729.045 1315.69 727.699C1313.86 727.038 1312.42 725.594 1310.96 724.291C1307.58 721.293 1303.59 718.799 1299.16 718.16C1294.72 717.522 1289.81 719.045 1287.2 722.749C1286.15 724.246 1285.51 726.007 1284.5 727.537C1275.46 741.288 1258.8 717.54 1262.54 707.999Z" fill="#36334A"/>
<path d="M1125 983.976L1268.68 986.973L1313.31 971.991L1193.65 965L1125 983.976Z" fill="white"/>
<path d="M1279.58 945.597C1277.9 945.375 1276.19 945.573 1274.61 946.174C1273.02 946.776 1271.6 947.762 1270.48 949.048C1261.89 957.01 1252.8 965.985 1251.24 977.701C1251 978.769 1251.13 979.888 1251.6 980.873C1252.42 982.251 1254.24 982.556 1255.83 982.583C1259.84 982.624 1263.81 981.791 1267.48 980.142C1271.15 978.492 1274.43 976.063 1277.1 973.017C1278.57 971.316 1279.92 969.37 1281.94 968.412C1283.78 967.713 1285.76 967.463 1287.72 967.682C1293.1 967.861 1305.4 970.668 1310.09 967.948C1315.03 965.088 1313.67 956.124 1311.37 951.801C1305.89 941.527 1288.9 945.494 1279.58 945.597Z" fill="#FBBEBE"/>
<path d="M1399.37 859.31C1402.67 870.113 1400.74 882.281 1405.41 892.545C1408.51 899.357 1414.35 904.849 1416.15 912.129C1417.86 919.009 1415.57 926.422 1411.56 932.225C1407.55 938.028 1401.97 942.485 1396.37 946.708C1390.24 951.332 1383.87 955.845 1376.64 958.345C1369.44 960.839 1361.71 961.216 1354.11 961.571L1303.72 963.924L1294.43 935.589L1327.27 922.492C1330.56 921.181 1333.91 919.856 1337.43 919.591C1343.5 919.133 1350.92 921.405 1354.82 916.639C1356.06 914.887 1356.85 912.847 1357.11 910.705C1360.3 894.059 1357.53 876.447 1362.43 860.239C1364.85 852.217 1371.86 836.126 1381.4 834.71C1391.52 833.209 1397.09 851.815 1399.37 859.31Z" fill="#D7E5F2"/>
<path d="M931.203 1224.01C928.073 1223.56 925.089 1222.37 922.487 1220.55C919.884 1218.72 917.734 1216.3 916.205 1213.48C914.677 1210.67 913.812 1207.53 913.679 1204.31C913.546 1201.09 914.148 1197.89 915.438 1194.95C916.729 1192.01 918.672 1189.42 921.114 1187.37C923.557 1185.33 926.432 1183.89 929.513 1183.17C932.595 1182.45 935.798 1182.47 938.871 1183.23C941.944 1183.99 944.802 1185.46 947.22 1187.53L941.827 1196.73L950.449 1191.02C953.676 1195.42 955.056 1200.94 954.287 1206.37C954.026 1208.28 953.5 1210.14 952.726 1211.89C950.92 1216.02 947.842 1219.44 943.958 1221.63C940.075 1223.81 935.597 1224.65 931.203 1224.01V1224.01Z" stroke="#3F3D56" stroke-miterlimit="10"/>
<path d="M841.674 548H774V624.901H841.674V548Z" fill="#6C63FF"/>
<path d="M919.533 1237.69C925.285 1230.5 922.301 1219.74 918.096 1211.52C913.89 1203.29 908.526 1194.54 910.375 1185.47C913.033 1172.42 928.123 1167.34 940.323 1162.52C949.376 1158.94 957.979 1154.28 965.954 1148.64C969.152 1146.37 972.296 1143.9 974.527 1140.65C977.739 1135.97 978.767 1130.14 979.675 1124.5C982.699 1105.74 985.287 1086.9 987.439 1068" stroke="#3F3D56" stroke-miterlimit="10"/>
<path d="M909.674 449.991H842V526.892H909.674V449.991Z" fill="#F2F2F2"/>
<path d="M921.443 443H853.769V519.901H921.443V443Z" stroke="#3F3D56" stroke-miterlimit="10"/>
<path d="M519.674 213H452V289.901H519.674V213Z" stroke="#3F3D56" stroke-miterlimit="10"/>
<path d="M977.674 72H910V148.901H977.674V72Z" stroke="#3F3D56" stroke-miterlimit="10"/>
<path d="M530.674 714H463V790.901H530.674V714Z" stroke="#3F3D56" stroke-miterlimit="10"/>
<path d="M1279.02 737.894C1277.7 741.786 1275.8 743.693 1274.12 744.617C1273.05 745.217 1271.84 745.462 1270.64 745.321C1269.45 745.18 1268.31 744.66 1267.39 743.827C1267.21 743.662 1267.04 743.487 1266.88 743.3C1266.55 742.919 1266.27 742.498 1266.03 742.045C1265.73 741.469 1265.5 740.855 1265.35 740.217C1265.18 739.518 1265.08 738.8 1265.05 738.077C1265.03 737.611 1265.05 737.143 1265.1 736.679C1264.45 733.177 1267.18 731.893 1269.24 731.423C1269.83 731.288 1270.43 731.201 1271.04 731.162C1271.22 731.151 1271.32 731.151 1271.32 731.151C1272.4 730.994 1273.5 730.959 1274.58 731.047C1277.42 731.292 1280.81 732.617 1279.02 737.894Z" fill="#55545A"/>
<path d="M1298.42 736.68C1298.42 736.68 1299.02 741.172 1296.13 743.828C1295.21 744.661 1294.07 745.181 1292.87 745.322C1291.68 745.462 1290.46 745.217 1289.4 744.618C1288.44 744.078 1287.58 743.345 1286.88 742.457C1286.57 742.067 1286.28 741.655 1286.02 741.224C1285.64 740.597 1285.31 739.94 1285.02 739.258C1284.84 738.833 1284.66 738.379 1284.5 737.895C1284.47 737.802 1284.44 737.71 1284.41 737.62C1282.91 732.826 1285.83 731.428 1288.51 731.093C1289.07 731.025 1289.64 730.994 1290.21 731.001C1290.87 731.004 1291.54 731.055 1292.2 731.152C1292.2 731.152 1292.25 731.152 1292.35 731.156C1292.86 731.182 1293.37 731.243 1293.87 731.338C1295.95 731.729 1299.12 732.939 1298.42 736.68Z" fill="#55545A"/>
<path d="M1299.03 736.253H1297.74C1298.31 731.209 1291.45 731.151 1291.45 731.151C1290.36 730.993 1289.26 730.959 1288.17 731.049V731.029H1274.75V731.044C1273.68 730.96 1272.6 730.996 1271.53 731.151C1271.53 731.151 1264.67 731.209 1265.24 736.253H1264V737.59H1265.25C1265.24 739.042 1265.51 741.912 1267.59 743.827C1268.52 744.66 1269.65 745.18 1270.85 745.321C1272.05 745.461 1273.26 745.217 1274.33 744.617C1276 743.693 1277.9 741.786 1279.22 737.894C1279.62 736.854 1279.78 735.724 1279.68 734.604C1280.88 734.539 1282.09 734.539 1283.29 734.604C1283.19 735.724 1283.35 736.854 1283.75 737.894C1285.07 741.786 1286.97 743.693 1288.65 744.617C1289.72 745.217 1290.93 745.461 1292.13 745.321C1293.33 745.18 1294.46 744.66 1295.38 743.827C1297.47 741.912 1297.74 739.042 1297.73 737.59H1299.03V736.253ZM1278.63 737.918C1277.37 741.622 1275.54 743.355 1273.96 744.154C1273.03 744.634 1271.98 744.821 1270.95 744.691C1269.92 744.562 1268.94 744.122 1268.13 743.423C1266.14 741.691 1265.88 739.028 1265.89 737.671C1265.89 737.132 1265.87 736.593 1265.85 736.055C1265.69 731.82 1271.61 731.77 1271.61 731.77C1271.61 731.77 1281.26 730.164 1278.63 737.918ZM1283.35 734.3C1282.11 734.197 1280.87 734.197 1279.63 734.3C1279.32 732.812 1278.27 731.974 1277.03 731.515H1285.95C1284.7 731.974 1283.66 732.812 1283.35 734.3ZM1297.19 736.035C1297.17 736.579 1297.15 737.123 1297.15 737.666C1297.16 739.036 1296.89 741.724 1294.89 743.471C1294.07 744.177 1293.08 744.621 1292.04 744.751C1291 744.882 1289.95 744.695 1289 744.211C1287.41 743.404 1285.56 741.656 1284.29 737.916C1281.63 730.09 1291.37 731.711 1291.37 731.711C1291.37 731.711 1297.35 731.761 1297.19 736.035Z" fill="#3F3D56"/>
<path d="M1497.82 862.283C1497.47 863.566 1496.85 864.758 1496.01 865.778C1495.17 866.799 1494.13 867.626 1492.95 868.202C1491.77 868.779 1490.49 869.092 1489.18 869.122C1487.87 869.151 1486.57 868.895 1485.37 868.372L1441 849.054L1449.05 831L1492.78 851.282C1494.77 852.205 1496.37 853.82 1497.29 855.836C1498.22 857.853 1498.4 860.139 1497.82 862.283Z" fill="#36334A"/>
</svg>
