<svg width="903" height="749" viewBox="0 0 903 749" fill="none" xmlns="http://www.w3.org/2000/svg">
<g clip-path="url(#clip0)">
<path d="M13.7112 344.605L13.7541 344.571L13.7887 344.529C14.894 343.189 17.1306 341.281 19.1999 340.106C20.2415 339.515 21.1812 339.144 21.8823 339.087C22.2265 339.059 22.4709 339.11 22.6384 339.205C22.7941 339.294 22.9334 339.449 23.0218 339.741C23.1236 340.079 23.1228 340.306 23.0843 340.466C23.0467 340.623 22.9623 340.762 22.8138 340.908C22.6585 341.059 22.4469 341.205 22.1711 341.371C22.0765 341.429 21.9685 341.492 21.8539 341.559C21.6618 341.671 21.4512 341.794 21.2543 341.918C20.5914 342.337 19.866 342.898 19.3466 343.826C18.8299 344.748 18.5452 345.981 18.6548 347.699C18.4339 351.254 17.9999 353.745 17.4382 355.457C16.8729 357.181 16.1983 358.056 15.5434 358.469C14.9058 358.871 14.1978 358.889 13.4176 358.68C12.6828 358.484 11.9394 358.103 11.207 357.711C11.0414 357.213 10.8098 356.672 10.5741 356.12C10.4441 355.817 10.3128 355.51 10.1906 355.205C9.80311 354.24 9.46846 353.222 9.38518 352.138C9.22286 350.023 10.0057 347.505 13.7112 344.605Z" stroke="#B4ABAB"/>
<path d="M20.2773 337.57L23.1576 335L178.701 531.958L177.845 532.95L20.2773 337.57Z" fill="#2F2E41"/>
<rect x="22.9537" y="341.631" width="4.66186" height="13" transform="rotate(-39.3668 22.9537 341.631)" fill="#7D7474"/>
<path d="M644.799 169.558H638.385C637.12 169.558 636.095 170.583 636.095 171.848V257.872C636.095 259.137 637.12 260.162 638.385 260.162H644.799C646.064 260.162 647.089 259.137 647.089 257.872V171.848C647.089 170.583 646.064 169.558 644.799 169.558Z" fill="#3F3D56"/>
<path d="M603.036 0H313.238C291.704 0 274.248 17.4564 274.248 38.99V708.465C274.248 729.999 291.704 747.455 313.238 747.455H603.036C624.57 747.455 642.026 729.999 642.026 708.465V38.99C642.026 17.4564 624.57 0 603.036 0Z" fill="#3F3D56"/>
<path d="M590.837 19.469H548.649V24.544C548.649 27.703 548.027 30.831 546.817 33.7494C545.608 36.6678 543.836 39.3192 541.601 41.5524C539.367 43.7855 536.714 45.5565 533.795 46.7643C530.876 47.972 527.748 48.5927 524.589 48.591H390.42C387.261 48.5927 384.133 47.972 381.214 46.7643C378.295 45.5565 375.642 43.7855 373.408 41.5524C371.173 39.3192 369.401 36.6678 368.192 33.7494C366.982 30.831 366.36 27.703 366.36 24.544V19.469H326.86C319.113 19.469 311.684 22.5464 306.206 28.0241C300.728 33.5019 297.651 40.9313 297.651 48.678V698.828C297.651 706.575 300.728 714.004 306.206 719.482C311.684 724.96 319.113 728.037 326.86 728.037H590.837C598.584 728.037 606.013 724.96 611.491 719.482C616.969 714.004 620.046 706.575 620.046 698.828V48.728C620.053 44.888 619.302 41.0844 617.837 37.5348C616.372 33.9853 614.222 30.7594 611.509 28.0418C608.796 25.3242 605.573 23.1682 602.026 21.6972C598.479 20.2262 594.677 19.469 590.837 19.469Z" fill="white"/>
<path d="M470.149 22.322H426.532C424.395 22.322 422.662 24.0546 422.662 26.192V28.875C422.662 31.0123 424.395 32.745 426.532 32.745H470.149C472.286 32.745 474.019 31.0123 474.019 28.875V26.192C474.019 24.0546 472.286 22.322 470.149 22.322Z" fill="#E6E8EC"/>
<path d="M487.706 33.453C490.975 33.453 493.625 30.803 493.625 27.534C493.625 24.265 490.975 21.615 487.706 21.615C484.437 21.615 481.787 24.265 481.787 27.534C481.787 30.803 484.437 33.453 487.706 33.453Z" fill="#E6E8EC"/>
<path d="M460.383 452.477C498.807 452.477 529.956 421.328 529.956 382.904C529.956 344.48 498.807 313.331 460.383 313.331C421.959 313.331 390.81 344.48 390.81 382.904C390.81 421.328 421.959 452.477 460.383 452.477Z" fill="white"/>
<path d="M551.891 373.189C551.89 391.58 546.436 409.558 536.218 424.849C526 440.141 511.477 452.059 494.486 459.096C477.494 466.133 458.798 467.974 440.76 464.386C422.723 460.797 406.154 451.94 393.15 438.936C380.146 425.931 371.29 409.362 367.703 391.324C364.116 373.286 365.958 354.59 372.996 337.599C380.035 320.608 391.954 306.086 407.246 295.868C422.538 285.651 440.516 280.198 458.907 280.199C471.118 280.199 483.21 282.605 494.491 287.278C505.773 291.952 516.023 298.801 524.658 307.436C533.292 316.071 540.141 326.322 544.814 337.604C549.487 348.886 551.891 360.978 551.891 373.189ZM448.158 422.409L517.135 353.432C517.693 352.875 518.136 352.214 518.438 351.486C518.741 350.758 518.896 349.977 518.896 349.188C518.896 348.4 518.741 347.619 518.438 346.891C518.136 346.163 517.693 345.502 517.135 344.945L508.648 336.52C508.092 335.962 507.432 335.519 506.705 335.217C505.978 334.915 505.198 334.76 504.41 334.76C503.623 334.76 502.843 334.915 502.116 335.217C501.389 335.519 500.729 335.962 500.173 336.52L443.915 392.779L417.647 366.449C416.519 365.328 414.994 364.698 413.403 364.698C411.813 364.698 410.288 365.328 409.16 366.449L400.673 374.986C399.552 376.114 398.922 377.639 398.922 379.229C398.922 380.82 399.552 382.345 400.673 383.473L439.673 422.459C440.23 423.017 440.891 423.46 441.619 423.762C442.347 424.065 443.128 424.22 443.916 424.22C444.705 424.22 445.485 424.065 446.214 423.762C446.942 423.46 447.603 423.017 448.16 422.459L448.158 422.409Z" fill="#6C63FF"/>
<path d="M285.763 147.357H284.8C283.535 147.357 282.51 148.382 282.51 149.647V171.88C282.51 173.145 283.535 174.17 284.8 174.17H285.763C287.028 174.17 288.053 173.145 288.053 171.88V149.647C288.053 148.382 287.028 147.357 285.763 147.357Z" fill="#3F3D56"/>
<path d="M286.265 196.454H284.599C283.334 196.454 282.309 197.479 282.309 198.744V240.83C282.309 242.095 283.334 243.12 284.599 243.12H286.265C287.53 243.12 288.555 242.095 288.555 240.83V198.744C288.555 197.479 287.53 196.454 286.265 196.454Z" fill="#3F3D56"/>
<path d="M286.064 259.449H284.699C283.434 259.449 282.409 260.474 282.409 261.739V304.226C282.409 305.491 283.434 306.516 284.699 306.516H286.064C287.329 306.516 288.354 305.491 288.354 304.226V261.739C288.354 260.474 287.329 259.449 286.064 259.449Z" fill="#3F3D56"/>
<path d="M208.741 383.91C208.9 384.063 209.104 384.161 209.323 384.19C209.542 384.218 209.765 384.174 209.957 384.066C209.546 384.072 209.137 384.02 208.741 383.91Z" fill="url(#paint0_linear)"/>
<path d="M254.704 401.889L253.504 408.425L252.578 413.425L250.894 422.571L234.565 434.003C234.565 434.003 233.093 432.743 230.665 430.757C223.973 425.247 209.908 414.027 199.58 408.004C196.923 406.311 194.049 404.986 191.036 404.067L254.704 401.889Z" fill="#FEB9B9"/>
<path d="M242.725 406.752C242.725 406.752 261.764 410.02 262.879 401.889C263.994 393.758 253.079 389.364 243.829 388.817C234.579 388.27 179.061 392.085 179.061 392.085C179.061 392.085 169.268 405.146 204.636 407.332L242.725 406.752Z" fill="#3F3D56"/>
<path d="M284.361 138.445H184.761V256.549H284.361V138.445Z" fill="#2F2E41"/>
<path opacity="0.1" d="M284.361 138.981H184.761V257.085H284.361V138.981Z" fill="black"/>
<path d="M68.03 340.623C66.39 341.036 64.294 342.623 61.963 344.917C51.925 354.855 37.548 378.177 37.548 378.177C19.167 356.282 39.507 338.983 48.177 333.038C50.285 331.599 51.701 330.807 51.701 330.807L68.03 340.623Z" fill="#FEB9B9"/>
<path d="M253.611 175.72C253.611 175.72 258.511 210.006 275.382 218.17C292.253 226.334 253.611 241.592 253.611 241.592L200.822 221.984C200.822 221.984 230.758 212.184 224.768 183.337L253.611 175.72Z" fill="#FEB9B9"/>
<path d="M197.008 381.991L195.814 388.505L194.844 393.524L193.16 402.67L176.831 414.091C176.831 414.091 175.359 412.842 172.931 410.857C166.239 405.347 152.175 394.127 141.831 388.104C139.176 386.409 136.301 385.084 133.287 384.167L197.008 381.991Z" fill="#FEB9B9"/>
<path d="M182.883 390.024C182.883 390.024 199.97 390.145 200.998 381.991C202.026 373.837 191.686 369.466 182.883 368.919C174.08 368.372 120.594 372.441 120.594 372.441C120.594 372.441 113.006 387.841 146.649 390.023L182.883 390.024Z" fill="#2F2E41"/>
<path d="M302.686 518.119C301.939 517.751 301.191 517.372 300.455 517.004L298.447 514.472L272.114 481.079V481.659C271.936 487.236 270.04 531.426 255.25 535.508C239.468 539.858 220.429 540.951 211.75 511.562C203.071 482.173 187.213 417.951 170.928 414.137L195.153 394.273C195.153 394.273 211.192 413.033 217.727 430.99C217.482 429.875 206.406 378.123 215.496 368.966H294.971C294.971 368.966 307.24 403.91 315.649 421.22C322.196 434.66 332.022 466.436 338.349 487.94C344.612 509.174 322.606 527.923 302.686 518.119Z" fill="#3F3D56"/>
<path opacity="0.1" d="M300.422 378.723C288.153 385.984 234.293 383.028 216.771 381.846L211.997 381.5C211.484 381.5 212.075 381.21 212.075 381.21L212.566 376.269L225.627 343.076L295.559 302.522C294.142 306.794 293.674 313.33 293.786 320.814C294.109 344.861 300.422 378.723 300.422 378.723Z" fill="black"/>
<path d="M300.422 377.084C288.153 384.345 234.293 381.389 216.771 380.207L211.997 379.872L211.205 379.805L212.075 379.582L216.38 378.467L225.626 341.46L295.558 300.917C294.142 305.189 293.673 311.725 293.785 319.209C294.109 343.233 300.422 377.084 300.422 377.084Z" fill="#EFEFEF"/>
<path opacity="0.1" d="M293.741 319.186C279.52 322.465 248.224 332.086 236.2 355.323C228.181 370.793 221.433 377.429 216.726 380.206L211.952 379.871C211.983 379.776 212.009 379.679 212.03 379.581L216.335 378.466L225.581 341.459L295.513 300.917C294.113 305.166 293.629 311.702 293.741 319.186Z" fill="black"/>
<path opacity="0.1" d="M51.701 330.831L68.03 340.624C66.39 341.037 64.294 342.624 61.963 344.918C60.602 340.947 52.063 335.404 48.177 333.04C50.284 331.623 51.701 330.831 51.701 330.831Z" fill="black"/>
<path opacity="0.1" d="M209.042 380.508C208.863 380.601 208.659 380.636 208.46 380.608C208.26 380.58 208.074 380.491 207.927 380.352C208.289 380.458 208.665 380.511 209.042 380.508Z" fill="black"/>
<path d="M245.994 215.995C245.994 215.995 231.294 217.623 220.955 206.738C220.955 206.738 177.455 219.263 162.723 247.559C147.991 275.855 47.842 331.377 47.842 331.377C47.842 331.377 65.264 341.17 63.624 346.066L129.485 307.966C129.485 307.966 152.907 291.102 159.41 287.288C165.913 283.474 201.871 260.074 209.489 323.749C217.107 387.424 209.489 379.806 209.489 379.806C209.489 379.806 220.375 383.621 236.157 353.138C251.939 322.655 300.914 315.584 300.914 315.584L303.635 283.484C303.635 283.484 313.35 262.203 305.866 253.37C303.599 250.755 302.091 247.569 301.505 244.157C300.267 236.004 301.505 222.419 318.837 211.132C345.505 193.71 355.844 179.568 355.844 179.568C355.844 179.568 356.39 169.218 340.062 164.321C323.734 159.424 257.337 132.757 257.337 132.757L255.106 142.014L307.494 178.988C307.494 178.988 281.373 200.179 260.65 199.666C260.649 199.666 264.497 215.448 245.994 215.995Z" fill="#6C63FF"/>
<path opacity="0.1" d="M256.076 190.643C254.789 186.28 253.783 181.84 253.065 177.348L224.222 184.968C225.494 190.474 225.266 196.22 223.564 201.609C229.461 203.183 235.691 202.981 241.474 201.031C247.258 199.08 252.337 195.467 256.076 190.643Z" fill="black"/>
<path d="M232.119 201.028C249.25 201.028 263.137 187.141 263.137 170.01C263.137 152.879 249.25 138.992 232.119 138.992C214.988 138.992 201.101 152.879 201.101 170.01C201.101 187.141 214.988 201.028 232.119 201.028Z" fill="#FEB9B9"/>
<path opacity="0.1" d="M265.858 419.812C265.858 419.812 283.815 455.191 278.372 466.065L265.858 419.812Z" fill="black"/>
<path d="M248.614 98.371C257.224 99.353 265.4 103.044 273.877 105.063C275.996 105.722 278.251 105.806 280.413 105.308C283.703 104.293 286.38 100.847 289.793 100.947C291.893 101.014 293.752 102.442 295.481 103.813C298.253 105.935 300.863 108.261 303.288 110.773C309.132 117.119 312.757 125.663 318.088 132.567C323.419 139.471 331.022 147.567 338.595 144.401C333.443 164.477 317.374 177.036 299.117 178.286C291.834 178.786 284.372 177.271 277.323 179.401C275.567 180.121 273.713 180.572 271.823 180.739C267.763 180.739 264.495 177.014 261.963 173.389C256.029 164.868 251.334 155.198 244.653 147.424C242.422 144.848 239.846 142.405 236.723 141.937C233.6 141.469 230.734 142.963 227.957 144.402C223.373 146.778 218.689 149.231 215.131 153.325C211.573 157.419 209.331 163.463 210.803 168.94C211.595 171.907 213.403 174.584 213.435 177.684C213.502 182.636 209.13 186.25 208.271 191.068C208.077 193.092 208.006 195.126 208.059 197.158C207.68 203.758 203.359 209.158 198.859 213.319C197.097 214.925 195.159 216.665 194.643 219.152C194.297 220.858 194.643 222.652 194.42 224.383C193.762 228.666 189.49 230.841 185.709 231.399C181.291 232.053 176.779 231.518 172.637 229.849C177.924 227.349 181.181 220.235 179.954 213.866C178.27 205.032 169.392 198.686 170.154 189.697C170.571 186.939 171.399 184.259 172.608 181.745C174.543 176.887 175.949 171.836 176.802 166.677C177.471 162.695 177.795 158.468 176.545 154.665C175.43 151.207 173.099 148.453 171.124 145.53C168.448 141.554 166.335 137.226 164.845 132.67C164.305 131.319 164.099 129.857 164.245 128.409C164.692 126.699 165.645 125.163 166.978 124.003C171.83 118.903 177.016 113.608 183.519 112.147C186.622 111.632 189.777 111.512 192.91 111.79C198.359 111.961 203.812 111.73 209.227 111.098C213.688 110.574 221.227 110.641 225.009 107.752C228.533 105.052 230.519 101.662 234.857 99.945C239.25 98.3166 243.973 97.7768 248.62 98.372L248.614 98.371Z" fill="#2F2E41"/>
<path d="M824.962 745.598C849.812 745.598 869.957 742.191 869.957 737.989C869.957 733.787 849.812 730.38 824.962 730.38C800.112 730.38 779.967 733.787 779.967 737.989C779.967 742.191 800.112 745.598 824.962 745.598Z" fill="#6C63FF"/>
<path d="M873.99 735.182C873.99 735.276 873.935 735.535 873.439 735.944C872.954 736.345 872.178 736.777 871.083 737.215C868.903 738.087 865.689 738.892 861.645 739.576C853.572 740.941 842.382 741.791 829.995 741.791C817.608 741.791 806.418 740.941 798.345 739.576C794.301 738.892 791.087 738.087 788.907 737.215C787.812 736.777 787.036 736.345 786.551 735.944C786.055 735.535 786 735.276 786 735.182C786 735.087 786.055 734.829 786.551 734.419C787.036 734.018 787.812 733.586 788.907 733.149C791.087 732.277 794.301 731.471 798.345 730.787C806.418 729.422 817.608 728.573 829.995 728.573C842.382 728.573 853.572 729.422 861.645 730.787C865.689 731.471 868.903 732.277 871.083 733.149C872.178 733.586 872.954 734.018 873.439 734.419C873.935 734.829 873.99 735.087 873.99 735.182Z" stroke="black" stroke-width="2"/>
<path d="M847.971 721.965L847.878 722.041L847.859 722.066C844.945 724.704 841.698 726.949 838.2 728.743H822.777C822.711 728.599 822.639 728.458 822.561 728.321L822.544 728.291L822.525 728.262C821.057 726.041 819.109 724.177 816.825 722.809C816.396 722.524 815.969 722.246 815.547 721.971C813.215 720.455 811.031 719.035 809.518 716.994C808.664 715.842 808.104 714.378 808.006 712.961C807.908 711.549 808.269 710.259 809.151 709.324L809.151 709.324L809.154 709.321C810.612 707.763 813.092 707.456 815.704 707.556L815.738 707.557L815.773 707.556C817.146 707.514 818.506 707.831 819.718 708.475C820.572 709.01 821.181 709.883 821.583 710.979C821.99 712.088 822.162 713.368 822.172 714.588C822.179 715.399 822.134 716.186 822.087 717.01C822.061 717.482 822.033 717.965 822.014 718.472C821.965 719.813 821.983 721.227 822.31 722.638L824.284 722.418C824.318 715.371 825.943 707.915 831.333 704.131L831.333 704.131L831.339 704.127C832.138 703.558 833.132 703.136 834.049 703.027C834.948 702.921 835.655 703.121 836.131 703.618C836.54 704.115 836.809 704.713 836.91 705.35L836.913 705.368L836.917 705.387C837.277 707.206 837.159 709.087 836.576 710.846C835.992 712.606 834.962 714.185 833.586 715.428L832.002 716.86L834.117 717.16C835.879 717.41 837.48 716.858 838.873 716.055C840.254 715.26 841.522 714.162 842.62 713.212L842.621 713.211C843.703 712.275 844.905 711.392 846.127 710.864C847.337 710.34 848.476 710.202 849.525 710.6C851.391 711.357 852.39 713.789 851.92 716.014C851.232 718.349 849.856 720.423 847.971 721.965Z" stroke="black" stroke-width="2"/>
<path d="M843.571 725.546C845.622 723.869 847.116 721.61 847.857 719.067C848.416 716.505 847.32 713.467 844.857 712.476C842.104 711.424 839.157 713.338 836.934 715.262C834.711 717.186 832.145 719.391 829.224 718.977C830.728 717.618 831.854 715.892 832.492 713.969C833.13 712.045 833.258 709.988 832.865 708C832.734 707.176 832.382 706.402 831.847 705.762C830.325 704.128 827.547 704.822 825.726 706.12C819.907 710.204 818.285 718.12 818.251 725.22C817.658 722.658 818.161 719.983 818.139 717.387C818.117 714.791 817.412 711.787 815.185 710.416C813.811 709.679 812.267 709.316 810.709 709.364C808.091 709.264 805.181 709.532 803.391 711.445C801.153 713.817 801.757 717.801 803.682 720.397C805.607 722.993 808.55 724.66 811.258 726.462C813.423 727.754 815.268 729.518 816.658 731.621C816.825 731.915 816.959 732.227 817.058 732.55H833.407C837.093 730.684 840.511 728.33 843.568 725.55L843.571 725.546Z" fill="#6C63FF"/>
<path d="M74.888 740.898C74.888 741.029 74.81 741.24 74.4662 741.525C74.1277 741.804 73.5983 742.097 72.8689 742.388C71.4147 742.97 69.2807 743.504 66.6075 743.956C61.269 744.859 53.8747 745.42 45.694 745.42C37.5133 745.42 30.119 744.859 24.7806 743.956C22.1073 743.504 19.9733 742.97 18.5191 742.388C17.7897 742.097 17.2603 741.804 16.9218 741.525C16.578 741.24 16.5 741.029 16.5 740.898C16.5 740.766 16.578 740.555 16.9218 740.271C17.2603 739.991 17.7897 739.699 18.5191 739.407C19.9733 738.826 22.1073 738.292 24.7806 737.84C30.119 736.937 37.5133 736.376 45.694 736.376C53.8747 736.376 61.269 736.937 66.6075 737.84C69.2807 738.292 71.4147 738.826 72.8689 739.407C73.5983 739.699 74.1277 739.991 74.4662 740.271C74.81 740.555 74.888 740.766 74.888 740.898Z" stroke="black"/>
<path d="M213.212 748.956C229.612 748.956 242.906 746.708 242.906 743.934C242.906 741.16 229.612 738.912 213.212 738.912C196.812 738.912 183.518 741.16 183.518 743.934C183.518 746.708 196.812 748.956 213.212 748.956Z" fill="white"/>
<path d="M225.493 735.722C226.846 734.615 227.832 733.124 228.321 731.446C228.536 730.604 228.457 729.714 228.098 728.922C227.738 728.131 227.118 727.487 226.342 727.096C224.525 726.402 222.583 727.665 221.114 728.935C219.645 730.205 217.953 731.66 216.026 731.387C217.018 730.49 217.76 729.351 218.181 728.081C218.602 726.812 218.686 725.455 218.426 724.143C218.339 723.599 218.107 723.089 217.754 722.666C216.754 721.588 214.918 722.046 213.715 722.902C209.875 725.602 208.804 730.818 208.782 735.508C208.391 733.817 208.723 732.052 208.708 730.339C208.693 728.626 208.228 726.647 206.758 725.739C205.851 725.252 204.832 725.013 203.804 725.045C202.076 724.979 200.156 725.156 198.974 726.419C197.497 727.985 197.896 730.614 199.166 732.327C200.436 734.04 202.378 735.141 204.166 736.327C205.595 737.178 206.814 738.34 207.733 739.727C207.844 739.921 207.933 740.127 207.999 740.34H218.788C221.221 739.108 223.476 737.552 225.493 735.717V735.722Z" fill="white"/>
<path d="M45.28 748.956C61.6795 748.956 74.974 746.708 74.974 743.934C74.974 741.16 61.6795 738.912 45.28 738.912C28.8805 738.912 15.586 741.16 15.586 743.934C15.586 746.708 28.8805 748.956 45.28 748.956Z" fill="white"/>
<path d="M40.6318 736.415C39.674 734.969 38.4035 733.757 36.9143 732.868C36.6398 732.686 36.3652 732.507 36.0929 732.331C34.5473 731.328 33.0705 730.37 32.0496 728.993C31.4685 728.209 31.0876 727.214 31.0206 726.247C30.9539 725.283 31.1994 724.384 31.8197 723.726L31.821 723.724C32.8368 722.639 34.5424 722.443 36.2669 722.508L36.2841 722.509L36.3014 722.509C37.237 722.48 38.1639 722.696 38.9899 723.136C39.5952 723.515 40.0169 724.126 40.2912 724.873C40.5678 725.627 40.6828 726.489 40.6899 727.307C40.6947 727.847 40.6648 728.377 40.6337 728.926C40.6163 729.235 40.5984 729.55 40.5863 729.877C40.5535 730.758 40.5663 731.674 40.7768 732.584L41.764 732.474C41.7858 727.812 42.8581 722.825 46.4845 720.275L46.4845 720.275L46.4868 720.273C47.0325 719.885 47.7142 719.594 48.3512 719.519C48.9799 719.445 49.504 719.583 49.8608 719.961C50.1514 720.312 50.3425 720.735 50.4142 721.185L50.4156 721.195L50.4175 721.204C50.6607 722.431 50.5817 723.7 50.1883 724.888C49.7948 726.076 49.1004 727.141 48.1726 727.98L47.3808 728.696L48.4378 728.846C49.5522 729.004 50.5717 728.656 51.4734 728.137C52.3689 727.621 53.1944 726.907 53.922 726.278L53.9229 726.277C54.6425 725.655 55.4503 725.06 56.278 724.702C57.0931 724.349 57.8831 724.244 58.622 724.518C59.2857 724.859 59.8152 725.414 60.1244 726.093C60.436 726.778 60.5051 727.549 60.3205 728.278C59.9471 729.555 59.2681 730.717 58.348 731.665L57.6384 732.311C55.6841 734.09 53.5021 735.6 51.15 736.804H40.8288C40.7759 736.68 40.7159 736.56 40.6493 736.443L40.641 736.429L40.6318 736.415Z" stroke="black"/>
<path d="M57.561 735.722C58.9141 734.615 59.9001 733.124 60.389 731.446C60.6043 730.604 60.5254 729.714 60.1655 728.922C59.8056 728.131 59.1862 727.487 58.41 727.096C56.593 726.402 54.6509 727.665 53.1819 728.935C51.7129 730.205 50.021 731.66 48.094 731.387C49.0859 730.49 49.8283 729.351 50.2489 728.081C50.6695 726.812 50.7539 725.455 50.4939 724.143C50.4074 723.599 50.1752 723.089 49.8219 722.666C48.8219 721.588 46.9859 722.046 45.7829 722.902C41.9429 725.602 40.872 730.818 40.85 735.508C40.459 733.817 40.7909 732.052 40.7759 730.339C40.7609 728.626 40.296 726.647 38.826 725.739C37.9193 725.252 36.9004 725.013 35.8719 725.045C34.1439 724.979 32.224 725.156 31.042 726.419C29.565 727.985 29.9639 730.614 31.2339 732.327C32.5039 734.04 34.4459 735.141 36.2339 736.327C37.6631 737.178 38.8823 738.34 39.801 739.727C39.9116 739.921 40.0008 740.127 40.0669 740.34H50.8559C53.2887 739.108 55.544 737.552 57.561 735.717V735.722Z" fill="white"/>
<path d="M902.567 746.088H0V747.909H902.567V746.088Z" fill="#2F2E41"/>
<path d="M858.51 50.524C858.51 50.524 764.289 44.839 775.39 110.861C775.39 110.861 773.152 122.532 783.76 127.825C783.76 127.825 783.928 122.935 793.428 124.602C796.81 125.163 800.246 125.328 803.667 125.094C808.281 124.79 812.672 122.996 816.177 119.98C816.177 119.98 842.664 109.036 852.959 65.753C852.959 65.753 860.579 56.309 860.277 53.88L844.377 60.672C844.377 60.672 849.815 72.142 845.496 81.672C845.496 81.672 844.981 61.082 841.926 61.53C841.311 61.62 833.668 65.502 833.668 65.502C833.668 65.502 843.012 85.476 835.962 100.002C835.962 100.002 838.636 75.384 830.747 66.946L819.557 73.481C819.557 73.481 830.479 94.116 823.071 110.957C823.071 110.957 824.971 85.13 817.196 75.07L807.058 82.981C807.058 82.981 817.319 103.313 811.064 117.281C811.064 117.281 810.247 87.224 804.864 84.953C804.864 84.953 795.99 92.786 794.636 95.986C794.636 95.986 801.663 110.757 797.299 118.545C797.299 118.545 794.625 98.515 792.431 98.403C792.431 98.403 783.591 111.674 782.673 120.783C782.673 120.783 783.054 107.254 790.293 97.15C790.293 97.15 781.744 98.616 776.753 104.15C776.753 104.15 778.129 94.773 792.475 93.945C792.475 93.945 799.782 83.874 801.729 83.27C801.729 83.27 787.473 82.07 778.823 85.911C778.823 85.911 786.432 77.06 804.348 81.088L814.363 72.908C814.363 72.908 795.586 70.345 787.619 73.177C787.619 73.177 796.784 65.344 817.06 71.051L827.96 64.538C827.96 64.538 811.947 61.091 802.413 62.3C802.413 62.3 812.484 56.873 831.16 62.759L838.993 59.259C838.993 59.259 827.266 56.954 823.83 56.585C820.394 56.216 820.216 55.276 820.216 55.276C827.646 54.0373 835.273 54.8858 842.249 57.727C842.249 57.727 858.79 51.565 858.51 50.524Z" fill="#6C63FF"/>
<path d="M729.413 15.571C729.413 15.571 686.891 13.008 691.859 42.841C691.859 42.841 690.859 48.112 695.641 50.506C695.641 50.506 695.719 48.268 700.016 49.04C701.542 49.2969 703.093 49.3721 704.637 49.264C706.724 49.1259 708.709 48.3082 710.288 46.936C710.288 46.936 722.261 41.99 726.916 22.43C726.916 22.43 730.351 18.167 730.216 17.07L723.032 20.136C723.032 20.136 725.483 25.317 723.558 29.625C723.558 29.625 723.323 20.325 721.947 20.539C721.667 20.539 718.209 22.339 718.209 22.339C718.209 22.339 722.439 31.369 719.25 37.927C719.25 37.927 720.458 26.804 716.889 22.988L711.831 25.988C711.831 25.988 716.766 35.309 713.42 42.919C713.42 42.919 714.282 31.248 710.768 26.705L706.191 30.286C706.191 30.286 710.824 39.473 708.004 45.786C708.004 45.786 707.624 32.201 705.195 31.172C705.195 31.172 701.189 34.708 700.573 36.163C700.573 36.163 703.751 42.877 701.782 46.357C701.782 46.357 700.573 37.304 699.544 37.257C699.544 37.257 695.549 43.257 695.135 47.328C695.335 43.5303 696.523 39.8506 698.582 36.653C696.277 37.0897 694.149 38.1905 692.461 39.82C692.461 39.82 693.088 35.579 699.567 35.21C699.567 35.21 702.924 30.656 703.752 30.376C703.752 30.376 697.307 29.839 693.401 31.576C693.401 31.576 696.836 27.581 704.927 29.394L709.403 25.701C709.403 25.701 700.913 24.571 697.313 25.817C697.313 25.817 701.453 22.281 710.618 24.855L715.542 21.912C715.542 21.912 708.302 20.357 703.994 20.912C703.994 20.912 708.548 18.461 716.986 21.112L720.511 19.534C720.511 19.534 715.211 18.493 713.651 18.325C712.091 18.157 712.017 17.732 712.017 17.732C715.376 17.1732 718.825 17.5607 721.976 18.851C721.976 18.851 729.544 16.037 729.413 15.571Z" fill="#3F3D56"/>
<path d="M73.6719 471.008C73.6719 471.008 31.15 468.445 36.118 498.278C36.118 498.278 35.1179 503.549 39.8999 505.943C39.8999 505.943 39.9779 503.705 44.2749 504.477C45.801 504.734 47.3521 504.809 48.8959 504.701C50.9833 504.563 52.968 503.745 54.5469 502.373C54.5469 502.373 66.52 497.427 71.175 477.867C71.175 477.867 74.61 473.604 74.475 472.507L67.2909 475.573C67.2909 475.573 69.7419 480.754 67.8169 485.062C67.8169 485.062 67.5819 475.762 66.2059 475.976C65.9259 475.976 62.4679 477.776 62.4679 477.776C62.4679 477.776 66.698 486.806 63.509 493.364C63.509 493.364 64.7169 482.241 61.1479 478.425L56.0899 481.425C56.0899 481.425 61.0249 490.746 57.6789 498.356C57.6789 498.356 58.541 486.685 55.027 482.142L50.4499 485.723C50.4499 485.723 55.0829 494.91 52.2629 501.223C52.2629 501.223 51.883 487.638 49.454 486.609C49.454 486.609 45.448 490.145 44.832 491.6C44.832 491.6 48.0099 498.314 46.0409 501.794C46.0409 501.794 44.832 492.741 43.803 492.694C43.803 492.694 39.808 498.694 39.394 502.765C39.594 498.967 40.7822 495.288 42.8409 492.09C40.5356 492.527 38.4081 493.627 36.72 495.257C36.72 495.257 37.347 491.016 43.826 490.647C43.826 490.647 47.183 486.093 48.011 485.813C48.011 485.813 41.566 485.276 37.66 487.013C37.66 487.013 41.095 483.018 49.186 484.831L53.662 481.138C53.662 481.138 45.1719 480.008 41.5719 481.254C41.5719 481.254 45.7119 477.718 54.8769 480.292L59.8009 477.349C59.8009 477.349 52.561 475.794 48.253 476.349C48.253 476.349 52.8069 473.898 61.2449 476.549L64.7699 474.971C64.7699 474.971 59.47 473.93 57.91 473.762C56.35 473.594 56.2759 473.169 56.2759 473.169C59.6351 472.61 63.0836 472.998 66.235 474.288C66.235 474.288 73.8029 471.474 73.6719 471.008Z" fill="#3F3D56"/>
<g clip-path="url(#clip1)">
<path d="M234.976 166.094C235.515 170.085 234.622 172.648 233.494 174.254C232.778 175.288 231.772 176.086 230.601 176.545C229.431 177.005 228.151 177.105 226.922 176.835C226.682 176.78 226.446 176.711 226.214 176.628C225.739 176.459 225.286 176.234 224.863 175.959C224.327 175.608 223.838 175.19 223.406 174.716C222.933 174.196 222.518 173.626 222.169 173.015C221.939 172.623 221.742 172.213 221.579 171.789C219.395 169.09 221.342 166.659 223.024 165.26C223.51 164.857 224.027 164.49 224.568 164.164C224.731 164.066 224.827 164.015 224.827 164.015C225.753 163.358 226.745 162.799 227.787 162.348C230.514 161.187 234.245 160.683 234.976 166.094Z" fill="#55545A"/>
<path d="M252.332 155.655C252.332 155.655 254.918 159.231 253.447 162.919C252.972 164.083 252.161 165.08 251.118 165.781C250.075 166.483 248.847 166.859 247.589 166.86C246.46 166.86 245.342 166.641 244.296 166.216C243.831 166.031 243.378 165.816 242.942 165.572C242.307 165.216 241.701 164.813 241.127 164.365C240.768 164.087 240.403 163.779 240.032 163.442C239.961 163.378 239.893 163.313 239.826 163.249C236.274 159.849 238.339 157.23 240.663 155.643C241.152 155.312 241.661 155.011 242.187 154.743C242.802 154.424 243.438 154.145 244.09 153.91C244.09 153.91 244.14 153.884 244.234 153.839C244.717 153.614 245.214 153.419 245.722 153.258C247.811 152.59 251.286 152.096 252.332 155.655Z" fill="#55545A"/>
<path d="M252.703 154.992L251.508 155.619C249.758 150.998 243.399 154.271 243.399 154.271C242.324 154.662 241.294 155.165 240.324 155.773L240.315 155.755L227.937 162.25L227.944 162.263C226.913 162.712 225.931 163.266 225.015 163.917C225.015 163.917 218.708 167.289 221.516 171.355L220.373 171.955L220.977 173.106L222.131 172.5C222.775 173.757 224.319 176.098 227.11 176.736C228.338 177.007 229.619 176.906 230.789 176.446C231.959 175.987 232.966 175.19 233.682 174.156C234.809 172.55 235.703 169.986 235.164 165.996C235.064 164.906 234.699 163.858 234.1 162.942C235.181 162.303 236.294 161.719 237.435 161.192C237.847 162.206 238.502 163.102 239.342 163.803C242.32 166.515 244.937 167.236 246.899 167.221C248.157 167.22 249.385 166.844 250.428 166.142C251.471 165.441 252.281 164.444 252.757 163.28C253.817 160.62 252.769 158.019 252.101 156.775L253.307 156.143L252.703 154.992ZM234.625 166.306C235.138 170.103 234.228 172.483 233.138 173.933C232.489 174.801 231.608 175.467 230.597 175.856C229.586 176.244 228.485 176.339 227.422 176.13C224.807 175.599 223.36 173.435 222.754 172.263C222.513 171.796 222.249 171.344 221.988 170.89C219.93 167.319 225.371 164.41 225.371 164.41C225.371 164.41 233.551 158.355 234.625 166.306ZM237.345 160.905C236.157 161.416 235.01 162.017 233.914 162.705C232.955 161.575 231.611 161.36 230.257 161.566L238.487 157.248C237.547 158.245 236.96 159.474 237.345 160.905ZM250.905 155.696C251.132 156.174 251.356 156.653 251.605 157.12C252.231 158.295 253.199 160.739 252.139 163.214C251.704 164.217 250.995 165.076 250.092 165.693C249.19 166.31 248.132 166.659 247.04 166.701C245.21 166.776 242.711 166.167 239.85 163.561C233.864 158.109 243.584 154.789 243.584 154.789C243.584 154.789 249.12 151.94 250.905 155.696Z" fill="#3F3D56"/>
<path d="M252.703 154.992L251.508 155.619C249.758 150.998 243.399 154.271 243.399 154.271C242.324 154.662 241.294 155.165 240.324 155.773L240.315 155.755L227.937 162.25L227.944 162.263C226.913 162.712 225.931 163.266 225.015 163.917C225.015 163.917 218.708 167.289 221.516 171.355L220.373 171.955L220.977 173.106L222.131 172.5C222.775 173.757 224.319 176.098 227.11 176.736C228.338 177.007 229.619 176.906 230.789 176.446C231.959 175.987 232.966 175.19 233.682 174.156C234.809 172.55 235.703 169.986 235.164 165.996C235.064 164.906 234.699 163.858 234.1 162.942C235.181 162.303 236.294 161.719 237.435 161.192C237.847 162.206 238.502 163.102 239.342 163.803C242.32 166.515 244.937 167.236 246.899 167.221C248.157 167.22 249.385 166.844 250.428 166.142C251.471 165.441 252.281 164.444 252.757 163.28C253.817 160.62 252.769 158.019 252.101 156.775L253.307 156.143L252.703 154.992ZM234.625 166.306C235.138 170.103 234.228 172.483 233.138 173.933C232.489 174.801 231.608 175.467 230.597 175.856C229.586 176.244 228.485 176.339 227.422 176.13C224.807 175.599 223.36 173.435 222.754 172.263C222.513 171.796 222.249 171.344 221.988 170.89C219.93 167.319 225.371 164.41 225.371 164.41C225.371 164.41 233.551 158.355 234.625 166.306ZM237.345 160.905C236.157 161.416 235.01 162.017 233.914 162.705C232.955 161.575 231.611 161.36 230.257 161.566L238.487 157.248C237.547 158.245 236.96 159.474 237.345 160.905ZM250.905 155.696C251.132 156.174 251.356 156.653 251.605 157.12C252.231 158.295 253.199 160.739 252.139 163.214C251.704 164.217 250.995 165.076 250.092 165.693C249.19 166.31 248.132 166.659 247.04 166.701C245.21 166.776 242.711 166.167 239.85 163.561C233.864 158.109 243.584 154.789 243.584 154.789C243.584 154.789 249.12 151.94 250.905 155.696Z" fill="#3F3D56"/>
</g>
<path d="M374.191 134.579C376.238 130.405 377.396 126.77 376.777 126.459C376.158 126.148 373.997 129.28 371.95 133.454C369.903 137.628 368.745 141.264 369.364 141.574C369.983 141.885 372.144 138.753 374.191 134.579Z" fill="#E0E0E0"/>
<path d="M478.032 186.755C480.079 182.581 481.397 179.026 480.977 178.815C480.556 178.604 478.556 181.817 476.509 185.991C474.462 190.165 473.144 193.72 473.564 193.931C473.984 194.142 475.985 190.929 478.032 186.755Z" fill="#E0E0E0"/>
<path d="M422.231 165.654L418.372 162.431L407.753 175.442L411.611 178.666L422.231 165.654Z" fill="#F55F44"/>
<path opacity="0.05" d="M413.358 179.704L418.839 181.007L422.656 164.581L417.176 163.278L413.358 179.704Z" fill="black"/>
<path d="M413.968 179.849L418.839 181.007L422.656 164.581L417.785 163.423L413.968 179.849Z" fill="#F55F44"/>
<path d="M376.962 126.081L369.179 141.952L473.387 194.263L481.171 178.392L376.962 126.081Z" fill="url(#paint1_linear)"/>
<path d="M473.573 193.885C471.533 192.896 367.87 140.824 369.364 141.574C375.117 132.69 376.777 126.459 376.777 126.459L480.986 178.77C480.986 178.77 477.326 185.268 473.573 193.885Z" fill="#F5F5F5"/>
<path opacity="0.05" d="M430.936 153.646L422.345 149.333L414.932 164.449L423.523 168.761L430.936 153.646Z" fill="black"/>
<path d="M430.562 153.458L422.718 149.521L415.305 164.636L423.149 168.574L430.562 153.458Z" fill="#F55F44"/>
<path opacity="0.05" d="M429.068 152.708L423.839 150.083L416.426 165.199L421.655 167.824L429.068 152.708Z" fill="black"/>
<path d="M428.694 152.521L424.212 150.271L416.799 165.386L421.282 167.636L428.694 152.521Z" fill="#F55F44"/>
<path d="M428.091 201.272C428.475 201.272 428.786 200.957 428.786 200.569C428.786 200.18 428.475 199.865 428.091 199.865C427.707 199.865 427.396 200.18 427.396 200.569C427.396 200.957 427.707 201.272 428.091 201.272Z" fill="#DBDBDB"/>
<g opacity="0.5">
<path opacity="0.5" d="M373.697 180.874H372.985V184.961H373.697V180.874Z" fill="#47E6B1"/>
<path opacity="0.5" d="M375.361 183.278V182.557H371.321V183.278H375.361Z" fill="#47E6B1"/>
</g>
<g opacity="0.5">
<path opacity="0.5" d="M553.337 129.909H552.624V133.995H553.337V129.909Z" fill="#47E6B1"/>
<path opacity="0.5" d="M555 132.313V131.591H550.961V132.313H555Z" fill="#47E6B1"/>
</g>
<g opacity="0.5">
<path opacity="0.5" d="M377.975 79.1837H377.262V83.2706H377.975V79.1837Z" fill="#47E6B1"/>
<path opacity="0.5" d="M379.638 81.5877V80.8665H375.598V81.5877H379.638Z" fill="#47E6B1"/>
</g>
<g opacity="0.5">
<path opacity="0.5" d="M531.951 72.9333H531.238V77.0201H531.951V72.9333Z" fill="#47E6B1"/>
<path opacity="0.5" d="M533.614 75.3373V74.6161H529.575V75.3373H533.614Z" fill="#47E6B1"/>
</g>
<path opacity="0.5" d="M368.92 125.931C368.724 125.845 368.566 125.688 368.476 125.491C368.386 125.295 368.371 125.071 368.434 124.864C368.444 124.832 368.45 124.799 368.453 124.766C368.458 124.671 368.434 124.577 368.382 124.497C368.331 124.417 368.255 124.356 368.167 124.323C368.079 124.29 367.983 124.287 367.892 124.314C367.802 124.341 367.723 124.396 367.666 124.472C367.647 124.499 367.63 124.528 367.618 124.559C367.532 124.758 367.377 124.918 367.183 125.009C366.988 125.1 366.767 125.115 366.562 125.051C366.531 125.041 366.498 125.035 366.466 125.032C366.372 125.026 366.278 125.051 366.2 125.103C366.121 125.156 366.061 125.232 366.028 125.321C365.996 125.41 365.992 125.508 366.019 125.599C366.045 125.691 366.1 125.771 366.175 125.828C366.202 125.848 366.231 125.864 366.261 125.877C366.458 125.964 366.616 126.12 366.706 126.317C366.795 126.514 366.81 126.737 366.748 126.945C366.738 126.977 366.731 127.009 366.729 127.043C366.723 127.138 366.748 127.232 366.799 127.312C366.851 127.391 366.926 127.452 367.014 127.485C367.103 127.518 367.199 127.521 367.289 127.495C367.38 127.468 367.459 127.412 367.516 127.336C367.535 127.309 367.551 127.28 367.564 127.249C367.65 127.051 367.804 126.891 367.999 126.8C368.193 126.709 368.414 126.694 368.619 126.757C368.651 126.767 368.683 126.774 368.716 126.776C368.81 126.782 368.903 126.757 368.982 126.705C369.061 126.653 369.121 126.577 369.153 126.487C369.186 126.398 369.189 126.301 369.163 126.209C369.136 126.118 369.081 126.038 369.006 125.98C368.98 125.961 368.951 125.944 368.92 125.931Z" fill="#4D8AF0"/>
<path opacity="0.5" d="M409.791 78.5722C409.594 78.4857 409.436 78.329 409.346 78.1322C409.257 77.9353 409.242 77.7119 409.304 77.5046C409.314 77.4728 409.321 77.4399 409.323 77.4066C409.329 77.3116 409.304 77.2173 409.253 77.1376C409.201 77.0579 409.126 76.9971 409.038 76.9641C408.949 76.9312 408.853 76.9279 408.763 76.9547C408.672 76.9815 408.593 77.037 408.536 77.113C408.517 77.14 408.501 77.1692 408.488 77.2C408.402 77.3988 408.248 77.5587 408.053 77.6495C407.858 77.7403 407.638 77.7555 407.433 77.6922C407.401 77.682 407.369 77.6756 407.336 77.673C407.242 77.6672 407.149 77.6922 407.07 77.7442C406.991 77.7963 406.931 77.8726 406.898 77.9619C406.866 78.0512 406.863 78.1487 406.889 78.24C406.916 78.3313 406.971 78.4116 407.046 78.4689C407.072 78.4886 407.101 78.505 407.132 78.5179C407.328 78.6044 407.486 78.7611 407.576 78.9579C407.666 79.1548 407.681 79.3782 407.618 79.5855C407.608 79.6173 407.602 79.6502 407.599 79.6835C407.593 79.7785 407.618 79.8728 407.67 79.9525C407.721 80.0322 407.796 80.093 407.885 80.126C407.973 80.1589 408.069 80.1622 408.16 80.1354C408.25 80.1086 408.329 80.0531 408.386 79.9771C408.405 79.9501 408.422 79.9209 408.434 79.8901C408.52 79.6913 408.675 79.5313 408.869 79.4406C409.064 79.3498 409.285 79.3346 409.489 79.3979C409.521 79.4081 409.553 79.4145 409.586 79.4171C409.68 79.4229 409.773 79.3979 409.852 79.3459C409.931 79.2938 409.991 79.2175 410.024 79.1282C410.056 79.0389 410.06 78.9414 410.033 78.8501C410.007 78.7588 409.952 78.6785 409.877 78.6212C409.85 78.6015 409.821 78.5851 409.791 78.5722Z" fill="#4D8AF0"/>
<path opacity="0.5" d="M459.69 201.418C459.494 201.331 459.336 201.175 459.246 200.978C459.156 200.781 459.141 200.557 459.204 200.35C459.214 200.318 459.22 200.285 459.223 200.252C459.229 200.157 459.204 200.063 459.152 199.983C459.101 199.903 459.026 199.843 458.937 199.81C458.849 199.777 458.753 199.773 458.662 199.8C458.572 199.827 458.493 199.883 458.436 199.959C458.417 199.985 458.4 200.015 458.388 200.045C458.302 200.244 458.147 200.404 457.953 200.495C457.758 200.586 457.537 200.601 457.332 200.538C457.301 200.527 457.269 200.521 457.236 200.519C457.142 200.513 457.048 200.538 456.97 200.59C456.891 200.642 456.831 200.718 456.798 200.807C456.766 200.897 456.762 200.994 456.789 201.085C456.815 201.177 456.87 201.257 456.945 201.314C456.972 201.334 457.001 201.351 457.031 201.363C457.228 201.45 457.386 201.607 457.476 201.803C457.565 202 457.58 202.224 457.518 202.431C457.508 202.463 457.501 202.496 457.499 202.529C457.493 202.624 457.518 202.718 457.569 202.798C457.621 202.878 457.696 202.939 457.784 202.971C457.873 203.004 457.969 203.008 458.059 202.981C458.15 202.954 458.229 202.899 458.286 202.823C458.305 202.796 458.321 202.766 458.334 202.736C458.42 202.537 458.574 202.377 458.769 202.286C458.964 202.195 459.184 202.18 459.389 202.243C459.421 202.254 459.453 202.26 459.486 202.263C459.58 202.268 459.673 202.243 459.752 202.191C459.831 202.139 459.891 202.063 459.923 201.974C459.956 201.884 459.959 201.787 459.933 201.696C459.906 201.604 459.851 201.524 459.776 201.467C459.75 201.447 459.721 201.431 459.69 201.418Z" fill="#4D8AF0"/>
<path opacity="0.5" d="M546.446 173.181C547.233 173.181 547.871 172.535 547.871 171.739C547.871 170.942 547.233 170.296 546.446 170.296C545.658 170.296 545.02 170.942 545.02 171.739C545.02 172.535 545.658 173.181 546.446 173.181Z" fill="#F55F44"/>
<path opacity="0.5" d="M515.08 182.316C515.868 182.316 516.506 181.67 516.506 180.874C516.506 180.077 515.868 179.431 515.08 179.431C514.293 179.431 513.654 180.077 513.654 180.874C513.654 181.67 514.293 182.316 515.08 182.316Z" fill="#4D8AF0"/>
<path opacity="0.5" d="M390.568 196.5C391.356 196.5 391.994 195.854 391.994 195.058C391.994 194.261 391.356 193.615 390.568 193.615C389.781 193.615 389.143 194.261 389.143 195.058C389.143 195.854 389.781 196.5 390.568 196.5Z" fill="#47E6B1"/>
<path opacity="0.5" d="M463.755 67.8848C464.542 67.8848 465.18 67.239 465.18 66.4424C465.18 65.6458 464.542 65 463.755 65C462.967 65 462.329 65.6458 462.329 66.4424C462.329 67.239 462.967 67.8848 463.755 67.8848Z" fill="#F55F44"/>
<path d="M414.687 150.944L408.984 159.598C408.984 159.598 410.885 168.493 452.943 168.253C495.001 168.012 498.328 159.598 498.328 159.598L490.487 148.059L466.487 131.471L414.687 150.944Z" fill="#5F5F67"/>
<path opacity="0.15" d="M414.687 150.944L408.984 159.598C408.984 159.598 410.885 168.493 452.943 168.253C495.001 168.012 498.328 159.598 498.328 159.598L490.487 148.059L466.487 131.471L414.687 150.944Z" fill="black"/>
<path d="M535.99 118.85L461.141 152.266L369.896 118.85L453.537 80.3857L494.595 99.5386L496.066 100.226L535.99 118.85Z" fill="#5F5F67"/>
<path opacity="0.15" d="M535.99 118.85L461.141 152.266L369.896 118.85L453.537 80.3857L494.595 99.5386L496.066 100.226L535.99 118.85Z" fill="black"/>
<path d="M497.615 126.86L496.189 126.947L494.595 99.5386L496.066 100.226L497.615 126.86Z" fill="#F5F5F5"/>
<path d="M415.637 118.73L408.984 159.598C408.984 159.598 456.745 143.972 498.328 159.598L492.15 116.326C492.15 116.326 436.31 109.354 415.637 118.73Z" fill="#5F5F67"/>
<path d="M497.496 135.197C501.302 135.197 504.387 133.045 504.387 130.389C504.387 127.734 501.302 125.581 497.496 125.581C493.691 125.581 490.606 127.734 490.606 130.389C490.606 133.045 493.691 135.197 497.496 135.197Z" fill="#F5F5F5"/>
</g>
<defs>
<linearGradient id="paint0_linear" x1="209.355" y1="384.2" x2="209.355" y2="383.91" gradientUnits="userSpaceOnUse">
<stop stop-color="#808080" stop-opacity="0.251"/>
<stop offset="0.54" stop-color="#808080" stop-opacity="0.122"/>
<stop offset="1" stop-color="#808080" stop-opacity="0.102"/>
</linearGradient>
<linearGradient id="paint1_linear" x1="421.283" y1="168.108" x2="429.213" y2="152.31" gradientUnits="userSpaceOnUse">
<stop stop-color="#808080" stop-opacity="0.25"/>
<stop offset="0.53514" stop-color="#808080" stop-opacity="0.12"/>
<stop offset="1" stop-color="#808080" stop-opacity="0.1"/>
</linearGradient>
<clipPath id="clip0">
<rect width="902.567" height="748.955" fill="white"/>
</clipPath>
<clipPath id="clip1">
<rect x="218" y="167.432" width="37.519" height="14.585" transform="rotate(-27.685 218 167.432)" fill="white"/>
</clipPath>
</defs>
</svg>
