<svg width="2212" height="1035" viewBox="0 0 2212 1035" fill="none" xmlns="http://www.w3.org/2000/svg">
<rect width="2212" height="1035" fill="#E5E5E5"/>
<rect width="2212" height="1035" fill="#EBECF0"/>
<mask id="path-2-inside-1" fill="white">
<path d="M414 0C414 37.3955 399.039 73.2594 372.409 99.7021C345.779 126.145 309.661 141 272 141C234.339 141 198.221 126.145 171.591 99.7021C144.961 73.2594 130 37.3955 130 2.12904e-05L272 0H414Z"/>
</mask>
<path d="M414 0C414 37.3955 399.039 73.2594 372.409 99.7021C345.779 126.145 309.661 141 272 141C234.339 141 198.221 126.145 171.591 99.7021C144.961 73.2594 130 37.3955 130 2.12904e-05L272 0H414Z" stroke="#DADBDE" stroke-width="50" mask="url(#path-2-inside-1)"/>
<path d="M534.127 934.775C552.161 963.69 633.275 1040.37 735.564 934.889C837.853 829.412 883.535 895.762 937.001 935.004C990.467 974.245 1035.55 1042.39 1138.44 935.118C1241.33 827.848 1312.23 900.486 1339.87 935.232" stroke="#DADBDE" stroke-width="25"/>
<rect x="2046" y="91" width="28" height="250" rx="10" fill="#DADBDE"/>
<rect x="1935" y="202" width="250" height="28" rx="10" fill="#DADBDE"/>
</svg>
