<svg width="280" height="160" viewBox="0 0 280 160" fill="none" xmlns="http://www.w3.org/2000/svg">
<rect width="280" height="160" fill="#EBECF0"/>
<g filter="url(#filter0_ddiiii)">
<path d="M18.7089 67.072C17.4609 67.072 16.4529 66.688 15.6849 65.92C14.9169 65.152 14.5329 64.144 14.5329 62.896V27.4C14.5329 26.152 14.9169 25.168 15.6849 24.448C16.4529 23.68 17.4609 23.296 18.7089 23.296H42.5409C42.7809 23.584 42.9729 23.992 43.1169 24.52C43.3089 25.048 43.4049 25.624 43.4049 26.248C43.4049 27.304 43.1409 28.12 42.6129 28.696C42.1329 29.272 41.4609 29.56 40.5969 29.56H22.1649V41.512H40.3809C40.6209 41.8 40.8129 42.208 40.9569 42.736C41.1489 43.264 41.2449 43.84 41.2449 44.464C41.2449 45.568 40.9809 46.384 40.4529 46.912C39.9729 47.44 39.3009 47.704 38.4369 47.704H22.1649V60.808H42.9009C43.0929 61.096 43.2849 61.504 43.4769 62.032C43.6689 62.56 43.7649 63.136 43.7649 63.76C43.7649 64.864 43.5009 65.704 42.9729 66.28C42.4929 66.808 41.8209 67.072 40.9569 67.072H18.7089ZM74.6692 45.184C74.6692 42.832 73.9972 41.104 72.6532 40C71.3572 38.896 69.5812 38.344 67.3252 38.344C65.6452 38.344 64.1332 38.56 62.7892 38.992C61.4932 39.424 60.3652 39.904 59.4052 40.432V66.856C59.0692 67 58.5892 67.12 57.9652 67.216C57.3892 67.36 56.7412 67.432 56.0212 67.432C54.6292 67.432 53.5972 67.168 52.9252 66.64C52.2532 66.112 51.9172 65.224 51.9172 63.976V40.216C51.9172 39.112 52.1332 38.224 52.5652 37.552C52.9972 36.88 53.7172 36.208 54.7252 35.536C56.0692 34.72 57.8212 33.976 59.9812 33.304C62.1412 32.632 64.5892 32.296 67.3252 32.296C71.9812 32.296 75.6292 33.352 78.2692 35.464C80.9092 37.528 82.2292 40.672 82.2292 44.896V66.856C81.8932 67 81.4132 67.12 80.7892 67.216C80.1652 67.36 79.4932 67.432 78.7732 67.432C77.3812 67.432 76.3492 67.168 75.6772 66.64C75.0052 66.112 74.6692 65.224 74.6692 63.976V45.184ZM114.168 63.832C113.256 64.408 112.128 64.888 110.784 65.272C109.488 65.656 107.928 65.848 106.104 65.848C103.992 65.848 101.976 65.56 100.056 64.984C98.184 64.36 96.528 63.4 95.088 62.104C93.648 60.76 92.496 59.032 91.632 56.92C90.816 54.808 90.408 52.216 90.408 49.144C90.408 46.36 90.816 43.936 91.632 41.872C92.496 39.76 93.672 38.008 95.16 36.616C96.696 35.176 98.496 34.096 100.56 33.376C102.672 32.656 105 32.296 107.544 32.296C109.896 32.296 112.056 32.608 114.024 33.232C116.04 33.808 117.672 34.504 118.92 35.32C119.736 35.848 120.36 36.448 120.792 37.12C121.272 37.792 121.512 38.608 121.512 39.568V67.936C121.512 70.336 121.08 72.4 120.216 74.128C119.4 75.856 118.248 77.248 116.76 78.304C115.32 79.408 113.592 80.2 111.576 80.68C109.56 81.208 107.4 81.472 105.096 81.472C102.648 81.472 100.536 81.232 98.76 80.752C96.984 80.272 95.688 79.792 94.872 79.312C93.384 78.4 92.64 77.2 92.64 75.712C92.64 74.896 92.808 74.2 93.144 73.624C93.48 73.096 93.912 72.664 94.44 72.328C95.544 73.096 97.008 73.792 98.832 74.416C100.656 75.04 102.6 75.352 104.664 75.352C107.688 75.352 110.016 74.728 111.648 73.48C113.328 72.28 114.168 70.312 114.168 67.576V63.832ZM107.184 59.944C108.816 59.944 110.184 59.704 111.288 59.224C112.392 58.744 113.328 58.168 114.096 57.496V40.072C113.376 39.64 112.488 39.256 111.432 38.92C110.376 38.536 109.128 38.344 107.688 38.344C104.76 38.344 102.408 39.232 100.632 41.008C98.856 42.784 97.968 45.472 97.968 49.072C97.968 51.04 98.208 52.72 98.688 54.112C99.168 55.504 99.816 56.632 100.632 57.496C101.448 58.36 102.408 58.984 103.512 59.368C104.664 59.752 105.888 59.944 107.184 59.944ZM135.978 67.432C134.586 67.432 133.554 67.168 132.882 66.64C132.21 66.112 131.874 65.224 131.874 63.976V20.272C132.21 20.176 132.69 20.056 133.314 19.912C133.938 19.768 134.61 19.696 135.33 19.696C136.722 19.696 137.754 19.96 138.426 20.488C139.098 21.016 139.434 21.904 139.434 23.152V66.856C139.05 67 138.546 67.12 137.922 67.216C137.346 67.36 136.698 67.432 135.978 67.432ZM157.711 66.856C157.375 67 156.895 67.12 156.271 67.216C155.695 67.36 155.023 67.432 154.255 67.432C152.863 67.432 151.831 67.168 151.159 66.64C150.487 66.112 150.151 65.224 150.151 63.976V33.52C150.535 33.424 151.015 33.304 151.591 33.16C152.215 33.016 152.911 32.944 153.679 32.944C155.071 32.944 156.079 33.208 156.703 33.736C157.375 34.264 157.711 35.176 157.711 36.472V66.856ZM149.359 22.936C149.359 21.688 149.791 20.656 150.655 19.84C151.519 18.976 152.623 18.544 153.967 18.544C155.311 18.544 156.391 18.976 157.207 19.84C158.023 20.656 158.431 21.688 158.431 22.936C158.431 24.184 158.023 25.24 157.207 26.104C156.391 26.92 155.311 27.328 153.967 27.328C152.623 27.328 151.519 26.92 150.655 26.104C149.791 25.24 149.359 24.184 149.359 22.936ZM193.131 57.712C193.131 60.928 191.931 63.448 189.531 65.272C187.131 67.096 183.651 68.008 179.091 68.008C177.219 68.008 175.491 67.864 173.907 67.576C172.323 67.288 170.955 66.88 169.803 66.352C168.699 65.824 167.835 65.2 167.211 64.48C166.587 63.76 166.275 62.968 166.275 62.104C166.275 61.384 166.443 60.712 166.779 60.088C167.163 59.464 167.667 58.96 168.291 58.576C169.635 59.44 171.171 60.232 172.899 60.952C174.627 61.672 176.643 62.032 178.947 62.032C181.107 62.032 182.763 61.672 183.915 60.952C185.067 60.184 185.643 59.104 185.643 57.712C185.643 56.512 185.235 55.552 184.419 54.832C183.651 54.112 182.499 53.56 180.963 53.176L176.067 51.88C172.803 51.016 170.403 49.84 168.867 48.352C167.331 46.864 166.563 44.824 166.563 42.232C166.563 40.84 166.851 39.544 167.427 38.344C168.003 37.096 168.843 36.04 169.947 35.176C171.099 34.264 172.515 33.568 174.195 33.088C175.875 32.56 177.795 32.296 179.955 32.296C181.683 32.296 183.243 32.44 184.635 32.728C186.075 32.968 187.299 33.328 188.307 33.808C189.363 34.24 190.179 34.792 190.755 35.464C191.331 36.136 191.619 36.856 191.619 37.624C191.619 38.392 191.451 39.064 191.115 39.64C190.779 40.168 190.347 40.6 189.819 40.936C188.955 40.408 187.659 39.832 185.931 39.208C184.251 38.584 182.427 38.272 180.459 38.272C178.443 38.272 176.859 38.632 175.707 39.352C174.555 40.024 173.979 40.984 173.979 42.232C173.979 43.192 174.291 43.984 174.915 44.608C175.587 45.232 176.715 45.736 178.299 46.12L182.475 47.2C186.123 48.16 188.811 49.456 190.539 51.088C192.267 52.72 193.131 54.928 193.131 57.712ZM223.946 45.976C223.946 43.336 223.226 41.416 221.786 40.216C220.394 38.968 218.546 38.344 216.242 38.344C214.706 38.344 213.29 38.608 211.994 39.136C210.746 39.616 209.642 40.216 208.682 40.936V66.856C208.346 67 207.866 67.12 207.242 67.216C206.666 67.36 206.018 67.432 205.298 67.432C203.906 67.432 202.874 67.168 202.202 66.64C201.53 66.112 201.194 65.224 201.194 63.976V20.272C201.53 20.176 202.01 20.056 202.634 19.912C203.258 19.768 203.93 19.696 204.65 19.696C206.042 19.696 207.05 19.96 207.674 20.488C208.346 21.016 208.682 21.904 208.682 23.152V34.528C209.786 33.952 211.058 33.448 212.498 33.016C213.986 32.536 215.642 32.296 217.466 32.296C221.642 32.296 225.002 33.4 227.546 35.608C230.138 37.816 231.434 41.176 231.434 45.688V66.856C231.098 67 230.618 67.12 229.994 67.216C229.37 67.36 228.722 67.432 228.05 67.432C226.61 67.432 225.554 67.168 224.882 66.64C224.258 66.112 223.946 65.224 223.946 63.976V45.976Z" fill="#EBECF0"/>
</g>
<defs>
<filter id="filter0_ddiiii" x="9.53291" y="13.544" width="226.901" height="72.928" filterUnits="userSpaceOnUse" color-interpolation-filters="sRGB">
<feFlood flood-opacity="0" result="BackgroundImageFix"/>
<feColorMatrix in="SourceAlpha" type="matrix" values="0 0 0 0 0 0 0 0 0 0 0 0 0 0 0 0 0 0 127 0"/>
<feOffset dx="-1" dy="-1"/>
<feGaussianBlur stdDeviation="1"/>
<feColorMatrix type="matrix" values="0 0 0 0 0.737255 0 0 0 0 0.741176 0 0 0 0 0.752941 0 0 0 0.5 0"/>
<feBlend mode="normal" in2="BackgroundImageFix" result="effect1_dropShadow"/>
<feColorMatrix in="SourceAlpha" type="matrix" values="0 0 0 0 0 0 0 0 0 0 0 0 0 0 0 0 0 0 127 0"/>
<feOffset dx="1" dy="1"/>
<feGaussianBlur stdDeviation="1"/>
<feColorMatrix type="matrix" values="0 0 0 0 1 0 0 0 0 1 0 0 0 0 1 0 0 0 0.3 0"/>
<feBlend mode="normal" in2="effect1_dropShadow" result="effect2_dropShadow"/>
<feBlend mode="normal" in="SourceGraphic" in2="effect2_dropShadow" result="shape"/>
<feColorMatrix in="SourceAlpha" type="matrix" values="0 0 0 0 0 0 0 0 0 0 0 0 0 0 0 0 0 0 127 0" result="hardAlpha"/>
<feOffset dx="5" dy="5"/>
<feGaussianBlur stdDeviation="6.5"/>
<feComposite in2="hardAlpha" operator="arithmetic" k2="-1" k3="1"/>
<feColorMatrix type="matrix" values="0 0 0 0 0.737255 0 0 0 0 0.741176 0 0 0 0 0.752941 0 0 0 0.9 0"/>
<feBlend mode="normal" in2="shape" result="effect3_innerShadow"/>
<feColorMatrix in="SourceAlpha" type="matrix" values="0 0 0 0 0 0 0 0 0 0 0 0 0 0 0 0 0 0 127 0" result="hardAlpha"/>
<feOffset dx="-5" dy="-5"/>
<feGaussianBlur stdDeviation="5"/>
<feComposite in2="hardAlpha" operator="arithmetic" k2="-1" k3="1"/>
<feColorMatrix type="matrix" values="0 0 0 0 1 0 0 0 0 1 0 0 0 0 1 0 0 0 0.9 0"/>
<feBlend mode="normal" in2="effect3_innerShadow" result="effect4_innerShadow"/>
<feColorMatrix in="SourceAlpha" type="matrix" values="0 0 0 0 0 0 0 0 0 0 0 0 0 0 0 0 0 0 127 0" result="hardAlpha"/>
<feOffset dx="5" dy="-5"/>
<feGaussianBlur stdDeviation="5"/>
<feComposite in2="hardAlpha" operator="arithmetic" k2="-1" k3="1"/>
<feColorMatrix type="matrix" values="0 0 0 0 0.737255 0 0 0 0 0.741176 0 0 0 0 0.752941 0 0 0 0.2 0"/>
<feBlend mode="normal" in2="effect4_innerShadow" result="effect5_innerShadow"/>
<feColorMatrix in="SourceAlpha" type="matrix" values="0 0 0 0 0 0 0 0 0 0 0 0 0 0 0 0 0 0 127 0" result="hardAlpha"/>
<feOffset dx="-5" dy="5"/>
<feGaussianBlur stdDeviation="5"/>
<feComposite in2="hardAlpha" operator="arithmetic" k2="-1" k3="1"/>
<feColorMatrix type="matrix" values="0 0 0 0 0.737255 0 0 0 0 0.741176 0 0 0 0 0.752941 0 0 0 0.2 0"/>
<feBlend mode="normal" in2="effect5_innerShadow" result="effect6_innerShadow"/>
</filter>
</defs>
</svg>
