<svg width="280" height="160" viewBox="0 0 280 160" fill="none" xmlns="http://www.w3.org/2000/svg">
<rect width="280" height="160" fill="#EBECF0"/>
<g filter="url(#filter0_ddiiii)">
<path d="M60.0785 20.152C60.3772 20.0667 60.8252 19.9813 61.4225 19.896C62.0198 19.768 62.6385 19.704 63.2785 19.704C64.5158 19.704 65.4332 19.9387 66.0305 20.408C66.6705 20.8773 66.9905 21.7093 66.9905 22.904V58.872C66.6492 59 66.1798 59.1067 65.5825 59.192C65.0278 59.32 64.4305 59.384 63.7905 59.384C62.4678 59.384 61.5078 59.1493 60.9105 58.68C60.3558 58.168 60.0785 57.336 60.0785 56.184V42.168H42.2225V58.872C41.8812 59 41.4332 59.1067 40.8785 59.192C40.3238 59.32 39.7052 59.384 39.0225 59.384C37.6998 59.384 36.7398 59.1493 36.1425 58.68C35.5878 58.168 35.3105 57.336 35.3105 56.184V20.152C35.6518 20.0667 36.0998 19.9813 36.6545 19.896C37.2518 19.768 37.8705 19.704 38.5105 19.704C39.7478 19.704 40.6652 19.9387 41.2625 20.408C41.9025 20.8773 42.2225 21.7093 42.2225 22.904V36.6H60.0785V20.152ZM83.642 58.872C83.3433 59 82.9167 59.1067 82.362 59.192C81.85 59.32 81.2527 59.384 80.57 59.384C79.3327 59.384 78.4153 59.1493 77.818 58.68C77.2207 58.2107 76.922 57.4213 76.922 56.312V29.24C77.2633 29.1547 77.69 29.048 78.202 28.92C78.7567 28.792 79.3753 28.728 80.058 28.728C81.2953 28.728 82.1913 28.9627 82.746 29.432C83.3433 29.9013 83.642 30.712 83.642 31.864V58.872ZM76.218 19.832C76.218 18.7227 76.602 17.8053 77.37 17.08C78.138 16.312 79.1193 15.928 80.314 15.928C81.5087 15.928 82.4687 16.312 83.194 17.08C83.9193 17.8053 84.282 18.7227 84.282 19.832C84.282 20.9413 83.9193 21.88 83.194 22.648C82.4687 23.3733 81.5087 23.736 80.314 23.736C79.1193 23.736 78.138 23.3733 77.37 22.648C76.602 21.88 76.218 20.9413 76.218 19.832ZM113.015 39.608C113.015 37.5173 112.418 35.9813 111.223 35C110.071 34.0187 108.492 33.528 106.487 33.528C104.994 33.528 103.65 33.72 102.455 34.104C101.303 34.488 100.3 34.9147 99.447 35.384V58.872C99.1483 59 98.7217 59.1067 98.167 59.192C97.655 59.32 97.079 59.384 96.439 59.384C95.2017 59.384 94.2843 59.1493 93.687 58.68C93.0897 58.2107 92.791 57.4213 92.791 56.312V35.192C92.791 34.2107 92.983 33.4213 93.367 32.824C93.751 32.2267 94.391 31.6293 95.287 31.032C96.4817 30.3067 98.039 29.6453 99.959 29.048C101.879 28.4507 104.055 28.152 106.487 28.152C110.626 28.152 113.868 29.0907 116.215 30.968C118.562 32.8027 119.735 35.5973 119.735 39.352V58.872C119.436 59 119.01 59.1067 118.455 59.192C117.9 59.32 117.303 59.384 116.663 59.384C115.426 59.384 114.508 59.1493 113.911 58.68C113.314 58.2107 113.015 57.4213 113.015 56.312V39.608ZM141.981 28.152C143.261 28.152 144.456 28.3013 145.565 28.6C146.717 28.856 147.72 29.1973 148.573 29.624V17.464C148.872 17.3787 149.298 17.272 149.853 17.144C150.408 17.016 151.005 16.952 151.645 16.952C152.882 16.952 153.8 17.1867 154.397 17.656C154.994 18.1253 155.293 18.9147 155.293 20.024V53.56C155.293 54.456 155.101 55.2027 154.717 55.8C154.333 56.3547 153.736 56.888 152.925 57.4C151.944 58.04 150.6 58.616 148.893 59.128C147.229 59.64 145.309 59.896 143.133 59.896C140.701 59.896 138.482 59.5973 136.477 59C134.472 58.36 132.765 57.4 131.357 56.12C129.949 54.7973 128.861 53.1547 128.093 51.192C127.325 49.1867 126.941 46.84 126.941 44.152C126.941 41.3787 127.325 38.9893 128.093 36.984C128.904 34.936 129.992 33.272 131.357 31.992C132.722 30.6693 134.301 29.7093 136.093 29.112C137.928 28.472 139.89 28.152 141.981 28.152ZM148.637 35.256C147.912 34.7867 147.058 34.3813 146.077 34.04C145.096 33.6987 144.008 33.528 142.813 33.528C141.533 33.528 140.338 33.72 139.229 34.104C138.162 34.488 137.224 35.128 136.413 36.024C135.602 36.8773 134.962 37.9867 134.493 39.352C134.024 40.6747 133.789 42.296 133.789 44.216C133.789 47.8 134.621 50.4027 136.285 52.024C137.992 53.6453 140.253 54.456 143.069 54.456C144.349 54.456 145.416 54.328 146.269 54.072C147.165 53.7733 147.954 53.432 148.637 53.048V35.256ZM171.205 58.872C170.906 59 170.479 59.1067 169.925 59.192C169.413 59.32 168.815 59.384 168.133 59.384C166.895 59.384 165.978 59.1493 165.381 58.68C164.783 58.2107 164.485 57.4213 164.485 56.312V29.24C164.826 29.1547 165.253 29.048 165.765 28.92C166.319 28.792 166.938 28.728 167.621 28.728C168.858 28.728 169.754 28.9627 170.309 29.432C170.906 29.9013 171.205 30.712 171.205 31.864V58.872ZM163.781 19.832C163.781 18.7227 164.165 17.8053 164.933 17.08C165.701 16.312 166.682 15.928 167.877 15.928C169.071 15.928 170.031 16.312 170.757 17.08C171.482 17.8053 171.845 18.7227 171.845 19.832C171.845 20.9413 171.482 21.88 170.757 22.648C170.031 23.3733 169.071 23.736 167.877 23.736C166.682 23.736 165.701 23.3733 164.933 22.648C164.165 21.88 163.781 20.9413 163.781 19.832Z" fill="#EBECF0"/>
</g>
<g filter="url(#filter1_ddiiii)">
<path d="M61.6715 77.592C66.8342 77.592 71.5488 78.168 75.8155 79.32C80.0822 80.472 84.6475 82.136 89.5115 84.312V89.304C79.8688 84.4827 70.6315 82.072 61.7995 82.072C59.5382 82.072 57.7888 82.6693 56.5515 83.864C55.3142 85.016 54.6955 86.6373 54.6955 88.728V93.912H62.0555V98.2H54.6955V135H49.7035V98.2H42.2795V93.912H49.7035V88.6C49.7035 85.3147 50.7915 82.6693 52.9675 80.664C55.1862 78.616 58.0875 77.592 61.6715 77.592ZM88.785 108.248H73.425C71.0357 108.248 69.841 109.208 69.841 111.128C69.841 112.237 70.1397 113.24 70.737 114.136C71.3343 114.989 72.0383 115.608 72.849 115.992C74.641 115.352 76.7103 115.032 79.057 115.032C82.5557 115.032 85.2437 115.885 87.121 117.592C88.9983 119.256 89.937 121.261 89.937 123.608C89.937 125.016 89.7023 126.211 89.233 127.192H84.305C84.9023 126.381 85.201 125.272 85.201 123.864C85.201 122.499 84.6677 121.389 83.601 120.536C82.577 119.64 81.041 119.192 78.993 119.192C76.177 119.192 73.9797 119.811 72.401 121.048C70.8223 122.285 70.033 123.779 70.033 125.528C70.033 127.661 70.9503 129.411 72.785 130.776C74.6197 132.099 77.4143 132.76 81.169 132.76C83.7717 132.76 86.4383 132.376 89.169 131.608V135.896C86.225 136.621 83.4303 136.984 80.785 136.984C75.7503 136.984 71.8677 135.832 69.137 133.528C66.4063 131.224 65.041 128.536 65.041 125.464C65.041 122.435 66.385 119.917 69.073 117.912C66.2143 116.035 64.785 113.56 64.785 110.488C64.785 108.44 65.5103 106.861 66.961 105.752C68.4117 104.643 70.289 104.088 72.593 104.088H83.857V98.2H59.217V93.912H96.017V98.2H88.785V108.248ZM140.195 108.888H128.931C126.029 108.888 123.747 109.635 122.083 111.128C120.419 112.621 119.587 114.712 119.587 117.4C119.587 120.173 120.333 122.349 121.827 123.928C123.32 125.507 125.325 126.296 127.843 126.296C130.36 126.296 132.365 125.592 133.859 124.184C135.395 122.776 136.205 120.963 136.291 118.744H141.091V135.64H136.099V127.128C134.349 129.347 131.469 130.456 127.458 130.456C123.491 130.456 120.291 129.219 117.859 126.744C115.427 124.269 114.211 121.219 114.211 117.592C114.211 116.227 114.36 115.011 114.659 113.944H103.587C102.819 113.944 102.285 114.136 101.987 114.52C101.688 114.904 101.539 115.544 101.539 116.44C101.539 117.933 101.816 119.512 102.371 121.176H98.1465C96.9518 118.787 96.3545 116.568 96.3545 114.52C96.3545 111.32 98.2105 109.72 101.923 109.72H116.643C119.203 106.349 123.171 104.664 128.547 104.664H135.203V98.2H93.1545V93.912H147.875V98.2H140.195V108.888ZM157.319 93.912H164.743V98.2H157.383V135H152.391V98.2H144.967V93.912H152.263V88.536C152.263 86.4453 151.687 84.8453 150.535 83.736C149.426 82.6267 147.954 82.072 146.119 82.072C144.284 82.072 142.834 82.6267 141.767 83.736C140.7 84.8027 140.167 86.4027 140.167 88.536V89.688H135.175V88.408C135.175 84.824 136.22 82.136 138.311 80.344C140.359 78.552 142.962 77.656 146.119 77.656C149.319 77.656 151.986 78.552 154.119 80.344C156.252 82.136 157.319 84.824 157.319 88.408V93.912Z" fill="#EBECF0"/>
</g>
<defs>
<filter id="filter0_ddiiii" x="30.3105" y="10.928" width="146.534" height="53.968" filterUnits="userSpaceOnUse" color-interpolation-filters="sRGB">
<feFlood flood-opacity="0" result="BackgroundImageFix"/>
<feColorMatrix in="SourceAlpha" type="matrix" values="0 0 0 0 0 0 0 0 0 0 0 0 0 0 0 0 0 0 127 0"/>
<feOffset dx="-1" dy="-1"/>
<feGaussianBlur stdDeviation="1"/>
<feColorMatrix type="matrix" values="0 0 0 0 0.737255 0 0 0 0 0.741176 0 0 0 0 0.752941 0 0 0 0.5 0"/>
<feBlend mode="normal" in2="BackgroundImageFix" result="effect1_dropShadow"/>
<feColorMatrix in="SourceAlpha" type="matrix" values="0 0 0 0 0 0 0 0 0 0 0 0 0 0 0 0 0 0 127 0"/>
<feOffset dx="1" dy="1"/>
<feGaussianBlur stdDeviation="1"/>
<feColorMatrix type="matrix" values="0 0 0 0 1 0 0 0 0 1 0 0 0 0 1 0 0 0 0.3 0"/>
<feBlend mode="normal" in2="effect1_dropShadow" result="effect2_dropShadow"/>
<feBlend mode="normal" in="SourceGraphic" in2="effect2_dropShadow" result="shape"/>
<feColorMatrix in="SourceAlpha" type="matrix" values="0 0 0 0 0 0 0 0 0 0 0 0 0 0 0 0 0 0 127 0" result="hardAlpha"/>
<feOffset dx="5" dy="5"/>
<feGaussianBlur stdDeviation="6.5"/>
<feComposite in2="hardAlpha" operator="arithmetic" k2="-1" k3="1"/>
<feColorMatrix type="matrix" values="0 0 0 0 0.737255 0 0 0 0 0.741176 0 0 0 0 0.752941 0 0 0 0.9 0"/>
<feBlend mode="normal" in2="shape" result="effect3_innerShadow"/>
<feColorMatrix in="SourceAlpha" type="matrix" values="0 0 0 0 0 0 0 0 0 0 0 0 0 0 0 0 0 0 127 0" result="hardAlpha"/>
<feOffset dx="-5" dy="-5"/>
<feGaussianBlur stdDeviation="5"/>
<feComposite in2="hardAlpha" operator="arithmetic" k2="-1" k3="1"/>
<feColorMatrix type="matrix" values="0 0 0 0 1 0 0 0 0 1 0 0 0 0 1 0 0 0 0.9 0"/>
<feBlend mode="normal" in2="effect3_innerShadow" result="effect4_innerShadow"/>
<feColorMatrix in="SourceAlpha" type="matrix" values="0 0 0 0 0 0 0 0 0 0 0 0 0 0 0 0 0 0 127 0" result="hardAlpha"/>
<feOffset dx="5" dy="-5"/>
<feGaussianBlur stdDeviation="5"/>
<feComposite in2="hardAlpha" operator="arithmetic" k2="-1" k3="1"/>
<feColorMatrix type="matrix" values="0 0 0 0 0.737255 0 0 0 0 0.741176 0 0 0 0 0.752941 0 0 0 0.2 0"/>
<feBlend mode="normal" in2="effect4_innerShadow" result="effect5_innerShadow"/>
<feColorMatrix in="SourceAlpha" type="matrix" values="0 0 0 0 0 0 0 0 0 0 0 0 0 0 0 0 0 0 127 0" result="hardAlpha"/>
<feOffset dx="-5" dy="5"/>
<feGaussianBlur stdDeviation="5"/>
<feComposite in2="hardAlpha" operator="arithmetic" k2="-1" k3="1"/>
<feColorMatrix type="matrix" values="0 0 0 0 0.737255 0 0 0 0 0.741176 0 0 0 0 0.752941 0 0 0 0.2 0"/>
<feBlend mode="normal" in2="effect5_innerShadow" result="effect6_innerShadow"/>
</filter>
<filter id="filter1_ddiiii" x="37.2795" y="72.592" width="132.464" height="69.392" filterUnits="userSpaceOnUse" color-interpolation-filters="sRGB">
<feFlood flood-opacity="0" result="BackgroundImageFix"/>
<feColorMatrix in="SourceAlpha" type="matrix" values="0 0 0 0 0 0 0 0 0 0 0 0 0 0 0 0 0 0 127 0"/>
<feOffset dx="-1" dy="-1"/>
<feGaussianBlur stdDeviation="1"/>
<feColorMatrix type="matrix" values="0 0 0 0 0.737255 0 0 0 0 0.741176 0 0 0 0 0.752941 0 0 0 0.5 0"/>
<feBlend mode="normal" in2="BackgroundImageFix" result="effect1_dropShadow"/>
<feColorMatrix in="SourceAlpha" type="matrix" values="0 0 0 0 0 0 0 0 0 0 0 0 0 0 0 0 0 0 127 0"/>
<feOffset dx="1" dy="1"/>
<feGaussianBlur stdDeviation="1"/>
<feColorMatrix type="matrix" values="0 0 0 0 1 0 0 0 0 1 0 0 0 0 1 0 0 0 0.3 0"/>
<feBlend mode="normal" in2="effect1_dropShadow" result="effect2_dropShadow"/>
<feBlend mode="normal" in="SourceGraphic" in2="effect2_dropShadow" result="shape"/>
<feColorMatrix in="SourceAlpha" type="matrix" values="0 0 0 0 0 0 0 0 0 0 0 0 0 0 0 0 0 0 127 0" result="hardAlpha"/>
<feOffset dx="5" dy="5"/>
<feGaussianBlur stdDeviation="6.5"/>
<feComposite in2="hardAlpha" operator="arithmetic" k2="-1" k3="1"/>
<feColorMatrix type="matrix" values="0 0 0 0 0.737255 0 0 0 0 0.741176 0 0 0 0 0.752941 0 0 0 0.9 0"/>
<feBlend mode="normal" in2="shape" result="effect3_innerShadow"/>
<feColorMatrix in="SourceAlpha" type="matrix" values="0 0 0 0 0 0 0 0 0 0 0 0 0 0 0 0 0 0 127 0" result="hardAlpha"/>
<feOffset dx="-5" dy="-5"/>
<feGaussianBlur stdDeviation="5"/>
<feComposite in2="hardAlpha" operator="arithmetic" k2="-1" k3="1"/>
<feColorMatrix type="matrix" values="0 0 0 0 1 0 0 0 0 1 0 0 0 0 1 0 0 0 0.9 0"/>
<feBlend mode="normal" in2="effect3_innerShadow" result="effect4_innerShadow"/>
<feColorMatrix in="SourceAlpha" type="matrix" values="0 0 0 0 0 0 0 0 0 0 0 0 0 0 0 0 0 0 127 0" result="hardAlpha"/>
<feOffset dx="5" dy="-5"/>
<feGaussianBlur stdDeviation="5"/>
<feComposite in2="hardAlpha" operator="arithmetic" k2="-1" k3="1"/>
<feColorMatrix type="matrix" values="0 0 0 0 0.737255 0 0 0 0 0.741176 0 0 0 0 0.752941 0 0 0 0.2 0"/>
<feBlend mode="normal" in2="effect4_innerShadow" result="effect5_innerShadow"/>
<feColorMatrix in="SourceAlpha" type="matrix" values="0 0 0 0 0 0 0 0 0 0 0 0 0 0 0 0 0 0 127 0" result="hardAlpha"/>
<feOffset dx="-5" dy="5"/>
<feGaussianBlur stdDeviation="5"/>
<feComposite in2="hardAlpha" operator="arithmetic" k2="-1" k3="1"/>
<feColorMatrix type="matrix" values="0 0 0 0 0.737255 0 0 0 0 0.741176 0 0 0 0 0.752941 0 0 0 0.2 0"/>
<feBlend mode="normal" in2="effect5_innerShadow" result="effect6_innerShadow"/>
</filter>
</defs>
</svg>
