<svg width="280" height="160" viewBox="0 0 280 160" fill="none" xmlns="http://www.w3.org/2000/svg">
<rect width="280" height="160" fill="#EBECF0"/>
<g filter="url(#filter0_ddiiii)">
<path d="M21.5038 41.464V58.936C21.1624 59.0213 20.7144 59.128 20.1598 59.256C19.6051 59.384 18.9864 59.448 18.3038 59.448C16.9811 59.448 16.0211 59.2133 15.4238 58.744C14.8691 58.232 14.5918 57.4 14.5918 56.248V20.152C14.9331 20.0667 15.3811 19.9813 15.9358 19.896C16.5331 19.768 17.1518 19.704 17.7917 19.704C19.0291 19.704 19.9464 19.9387 20.5438 20.408C21.1838 20.8773 21.5038 21.7093 21.5038 22.904V37.368L37.9518 19.832C39.5731 19.8747 40.7464 20.2373 41.4718 20.92C42.1971 21.56 42.5598 22.328 42.5598 23.224C42.5598 23.9493 42.3678 24.632 41.9838 25.272C41.5998 25.8693 41.0451 26.5307 40.3198 27.256L28.1597 39.288C31.7011 42.9147 34.7944 46.136 37.4398 48.952C40.1278 51.7253 42.4318 53.9867 44.3518 55.736C44.2664 56.9307 43.8611 57.8693 43.1357 58.552C42.4531 59.192 41.6211 59.512 40.6398 59.512C39.6158 59.512 38.7411 59.2347 38.0158 58.68C37.3331 58.1253 36.6291 57.4853 35.9038 56.76L21.5038 41.464ZM62.0863 54.712C63.5796 54.712 64.8809 54.5627 65.9903 54.264C67.0996 53.9653 67.8889 53.6453 68.3583 53.304V45.176L61.3823 45.88C59.4196 46.0933 57.9476 46.5413 56.9663 47.224C55.9849 47.864 55.4943 48.8667 55.4943 50.232C55.4943 51.64 56.0276 52.7493 57.0943 53.56C58.1609 54.328 59.8249 54.712 62.0863 54.712ZM61.9583 28.152C65.9263 28.152 69.0836 29.0267 71.4303 30.776C73.7769 32.4827 74.9503 35.192 74.9503 38.904V53.816C74.9503 54.7973 74.7156 55.5653 74.2463 56.12C73.8196 56.632 73.2223 57.1227 72.4543 57.592C71.3449 58.232 69.9156 58.7867 68.1663 59.256C66.4169 59.7253 64.3903 59.96 62.0863 59.96C57.9476 59.96 54.7049 59.1493 52.3583 57.528C50.0543 55.9067 48.9023 53.5173 48.9023 50.36C48.9023 47.544 49.7983 45.3893 51.5903 43.896C53.4249 42.4027 56.0489 41.4853 59.4623 41.144L68.3583 40.248V38.84C68.3583 36.9627 67.7396 35.5973 66.5023 34.744C65.3076 33.8907 63.6223 33.464 61.4463 33.464C59.7396 33.464 58.0969 33.6987 56.5183 34.168C54.9396 34.6373 53.5316 35.1707 52.2943 35.768C51.8676 35.4267 51.5049 35.0213 51.2063 34.552C50.9076 34.04 50.7583 33.4853 50.7583 32.888C50.7583 32.1627 50.9289 31.5653 51.2703 31.096C51.6543 30.6267 52.2303 30.2213 52.9983 29.88C54.1929 29.2827 55.5583 28.856 57.0943 28.6C58.6303 28.3013 60.2516 28.152 61.9583 28.152ZM103.734 39.608C103.734 37.5173 103.136 35.9813 101.942 35C100.79 34.0187 99.2111 33.528 97.2058 33.528C95.7124 33.528 94.3684 33.72 93.1738 34.104C92.0218 34.488 91.0191 34.9147 90.1658 35.384V58.872C89.8671 59 89.4404 59.1067 88.8858 59.192C88.3738 59.32 87.7978 59.384 87.1578 59.384C85.9204 59.384 85.0031 59.1493 84.4058 58.68C83.8084 58.2107 83.5098 57.4213 83.5098 56.312V35.192C83.5098 34.2107 83.7018 33.4213 84.0858 32.824C84.4698 32.2267 85.1098 31.6293 86.0058 31.032C87.2004 30.3067 88.7578 29.6453 90.6778 29.048C92.5978 28.4507 94.7738 28.152 97.2058 28.152C101.344 28.152 104.587 29.0907 106.934 30.968C109.28 32.8027 110.454 35.5973 110.454 39.352V58.872C110.155 59 109.728 59.1067 109.174 59.192C108.619 59.32 108.022 59.384 107.382 59.384C106.144 59.384 105.227 59.1493 104.63 58.68C104.032 58.2107 103.734 57.4213 103.734 56.312V39.608ZM139.484 39.608C139.484 37.5173 138.886 35.9813 137.692 35C136.54 34.0187 134.961 33.528 132.956 33.528C131.462 33.528 130.118 33.72 128.924 34.104C127.772 34.488 126.769 34.9147 125.916 35.384V58.872C125.617 59 125.19 59.1067 124.636 59.192C124.124 59.32 123.548 59.384 122.908 59.384C121.67 59.384 120.753 59.1493 120.156 58.68C119.558 58.2107 119.26 57.4213 119.26 56.312V35.192C119.26 34.2107 119.452 33.4213 119.836 32.824C120.22 32.2267 120.86 31.6293 121.756 31.032C122.95 30.3067 124.508 29.6453 126.428 29.048C128.348 28.4507 130.524 28.152 132.956 28.152C137.094 28.152 140.337 29.0907 142.684 30.968C145.03 32.8027 146.204 35.5973 146.204 39.352V58.872C145.905 59 145.478 59.1067 144.924 59.192C144.369 59.32 143.772 59.384 143.132 59.384C141.894 59.384 140.977 59.1493 140.38 58.68C139.782 58.2107 139.484 57.4213 139.484 56.312V39.608ZM166.274 54.712C167.767 54.712 169.068 54.5627 170.178 54.264C171.287 53.9653 172.076 53.6453 172.546 53.304V45.176L165.57 45.88C163.607 46.0933 162.135 46.5413 161.154 47.224C160.172 47.864 159.682 48.8667 159.682 50.232C159.682 51.64 160.215 52.7493 161.282 53.56C162.348 54.328 164.012 54.712 166.274 54.712ZM166.146 28.152C170.114 28.152 173.271 29.0267 175.618 30.776C177.964 32.4827 179.138 35.192 179.138 38.904V53.816C179.138 54.7973 178.903 55.5653 178.434 56.12C178.007 56.632 177.41 57.1227 176.642 57.592C175.532 58.232 174.103 58.7867 172.354 59.256C170.604 59.7253 168.578 59.96 166.274 59.96C162.135 59.96 158.892 59.1493 156.546 57.528C154.242 55.9067 153.09 53.5173 153.09 50.36C153.09 47.544 153.986 45.3893 155.778 43.896C157.612 42.4027 160.236 41.4853 163.65 41.144L172.546 40.248V38.84C172.546 36.9627 171.927 35.5973 170.69 34.744C169.495 33.8907 167.81 33.464 165.634 33.464C163.927 33.464 162.284 33.6987 160.706 34.168C159.127 34.6373 157.719 35.1707 156.482 35.768C156.055 35.4267 155.692 35.0213 155.394 34.552C155.095 34.04 154.946 33.4853 154.946 32.888C154.946 32.1627 155.116 31.5653 155.458 31.096C155.842 30.6267 156.418 30.2213 157.186 29.88C158.38 29.2827 159.746 28.856 161.282 28.6C162.818 28.3013 164.439 28.152 166.146 28.152ZM201.137 28.152C202.417 28.152 203.612 28.3013 204.721 28.6C205.873 28.856 206.876 29.1973 207.729 29.624V17.464C208.028 17.3787 208.455 17.272 209.009 17.144C209.564 17.016 210.161 16.952 210.801 16.952C212.039 16.952 212.956 17.1867 213.553 17.656C214.151 18.1253 214.449 18.9147 214.449 20.024V53.56C214.449 54.456 214.257 55.2027 213.873 55.8C213.489 56.3547 212.892 56.888 212.081 57.4C211.1 58.04 209.756 58.616 208.049 59.128C206.385 59.64 204.465 59.896 202.289 59.896C199.857 59.896 197.639 59.5973 195.633 59C193.628 58.36 191.921 57.4 190.513 56.12C189.105 54.7973 188.017 53.1547 187.249 51.192C186.481 49.1867 186.097 46.84 186.097 44.152C186.097 41.3787 186.481 38.9893 187.249 36.984C188.06 34.936 189.148 33.272 190.513 31.992C191.879 30.6693 193.457 29.7093 195.249 29.112C197.084 28.472 199.047 28.152 201.137 28.152ZM207.793 35.256C207.068 34.7867 206.215 34.3813 205.233 34.04C204.252 33.6987 203.164 33.528 201.969 33.528C200.689 33.528 199.495 33.72 198.385 34.104C197.319 34.488 196.38 35.128 195.569 36.024C194.759 36.8773 194.119 37.9867 193.649 39.352C193.18 40.6747 192.945 42.296 192.945 44.216C192.945 47.8 193.777 50.4027 195.441 52.024C197.148 53.6453 199.409 54.456 202.225 54.456C203.505 54.456 204.572 54.328 205.425 54.072C206.321 53.7733 207.111 53.432 207.793 53.048V35.256ZM234.649 54.712C236.142 54.712 237.443 54.5627 238.553 54.264C239.662 53.9653 240.451 53.6453 240.921 53.304V45.176L233.945 45.88C231.982 46.0933 230.51 46.5413 229.529 47.224C228.547 47.864 228.057 48.8667 228.057 50.232C228.057 51.64 228.59 52.7493 229.657 53.56C230.723 54.328 232.387 54.712 234.649 54.712ZM234.521 28.152C238.489 28.152 241.646 29.0267 243.993 30.776C246.339 32.4827 247.513 35.192 247.513 38.904V53.816C247.513 54.7973 247.278 55.5653 246.809 56.12C246.382 56.632 245.785 57.1227 245.017 57.592C243.907 58.232 242.478 58.7867 240.729 59.256C238.979 59.7253 236.953 59.96 234.649 59.96C230.51 59.96 227.267 59.1493 224.921 57.528C222.617 55.9067 221.465 53.5173 221.465 50.36C221.465 47.544 222.361 45.3893 224.153 43.896C225.987 42.4027 228.611 41.4853 232.025 41.144L240.921 40.248V38.84C240.921 36.9627 240.302 35.5973 239.065 34.744C237.87 33.8907 236.185 33.464 234.009 33.464C232.302 33.464 230.659 33.6987 229.081 34.168C227.502 34.6373 226.094 35.1707 224.857 35.768C224.43 35.4267 224.067 35.0213 223.769 34.552C223.47 34.04 223.321 33.4853 223.321 32.888C223.321 32.1627 223.491 31.5653 223.833 31.096C224.217 30.6267 224.793 30.2213 225.561 29.88C226.755 29.2827 228.121 28.856 229.657 28.6C231.193 28.3013 232.814 28.152 234.521 28.152Z" fill="#EBECF0"/>
</g>
<g filter="url(#filter1_ddiiii)">
<path d="M82.4988 132.768C78.0188 132.768 74.6054 131.701 72.2588 129.568C69.9121 127.435 68.7388 124.747 68.7388 121.504C68.7388 118.005 69.9761 115.253 72.4508 113.248L67.5228 113.312V108.32H79.4908C80.0881 107.936 80.5361 107.488 80.8348 106.976C81.1761 106.464 81.3468 105.888 81.3468 105.248C81.3468 104.352 81.0694 103.435 80.5148 102.496H67.4588V96.736H84.2268C86.4028 96.736 87.9174 96.6293 88.7708 96.416C89.6668 96.2027 90.3494 95.904 90.8188 95.52C91.2881 95.136 91.6081 94.688 91.7788 94.176C91.9494 93.664 92.0348 93.1093 92.0348 92.512C92.0348 91.1467 91.6934 89.824 91.0108 88.544C90.3708 87.264 89.4321 85.9413 88.1948 84.576L93.1868 81.504C95.0641 83.7653 96.3654 85.8133 97.0908 87.648C97.8161 89.44 98.1788 91.3387 98.1788 93.344C98.1788 94.2827 98.0081 95.3707 97.6668 96.608C97.3254 97.8027 96.6428 98.848 95.6188 99.744C94.6374 100.597 93.4641 101.259 92.0988 101.728C90.7761 102.197 88.8988 102.453 86.4668 102.496C86.9788 103.52 87.2348 104.459 87.2348 105.312C87.2348 106.507 86.9788 107.509 86.4668 108.32H97.9228V113.312L92.7388 113.248C93.9761 114.101 94.9361 115.211 95.6188 116.576C96.3441 117.941 96.7068 119.563 96.7068 121.44C96.7068 124.725 95.5334 127.435 93.1868 129.568C90.8828 131.701 87.3201 132.768 82.4988 132.768ZM82.6908 126.944C85.5068 126.944 87.4908 126.283 88.6428 124.96C89.8374 123.637 90.4348 122.037 90.4348 120.16C90.4348 118.027 89.7734 116.299 88.4508 114.976C87.1281 113.653 85.2081 112.992 82.6908 112.992C80.0881 112.992 78.1468 113.675 76.8668 115.04C75.6294 116.363 75.0108 118.069 75.0108 120.16C75.0108 122.165 75.6294 123.808 76.8668 125.088C78.1041 126.325 80.0454 126.944 82.6908 126.944ZM128.766 132.768C126.803 132.768 125.118 132.405 123.71 131.68C122.302 130.912 121.043 129.824 119.934 128.416C118.867 127.008 117.8 125.344 116.734 123.424C115.624 121.333 114.707 119.947 113.982 119.264C113.299 118.539 112.488 118.176 111.55 118.176C110.483 118.176 109.672 118.581 109.118 119.392C108.563 120.203 108.286 121.248 108.286 122.528C108.286 123.979 108.542 125.365 109.054 126.688C109.566 128.011 110.248 129.355 111.102 130.72L105.342 133.088C104.36 131.595 103.55 129.931 102.91 128.096C102.312 126.219 102.014 124.363 102.014 122.528C102.014 119.627 102.867 117.237 104.574 115.36C106.28 113.44 108.584 112.48 111.486 112.48C113.79 112.48 115.688 113.056 117.182 114.208C118.675 115.317 120.19 117.259 121.726 120.032C123.006 122.507 124.136 124.277 125.118 125.344C126.142 126.368 127.464 126.88 129.086 126.88C130.792 126.88 132.008 126.197 132.734 124.832C133.502 123.467 133.886 121.739 133.886 119.648C133.886 116.875 133.352 114.336 132.286 112.032C131.219 109.685 129.79 107.701 127.998 106.08C126.206 104.416 124.2 103.221 121.982 102.496H102.142V96.736H126.27C128.446 96.736 129.96 96.6293 130.814 96.416C131.71 96.2027 132.392 95.904 132.862 95.52C133.331 95.136 133.651 94.688 133.822 94.176C133.992 93.664 134.078 93.1093 134.078 92.512C134.078 91.1467 133.736 89.824 133.054 88.544C132.414 87.264 131.475 85.9413 130.238 84.576L135.23 81.504C137.107 83.7653 138.408 85.8133 139.134 87.648C139.859 89.44 140.222 91.3387 140.222 93.344C140.222 94.2827 140.03 95.3707 139.646 96.608C139.304 97.8027 138.643 98.848 137.662 99.744C136.894 100.427 136.04 100.981 135.102 101.408C134.206 101.792 133.096 102.069 131.774 102.24C134.334 104.203 136.382 106.635 137.918 109.536C139.496 112.437 140.286 115.701 140.286 119.328C140.286 123.68 139.283 127.008 137.278 129.312C135.315 131.616 132.478 132.768 128.766 132.768ZM132.671 136.032C135.145 136.032 137.151 136.651 138.687 137.888C140.223 139.125 141.737 141.173 143.231 144.032C144.468 142.24 145.087 140.043 145.087 137.44C145.087 135.904 144.916 134.475 144.575 133.152C144.233 131.872 143.785 130.677 143.231 129.568L147.775 127.392C148.628 128.757 149.268 130.272 149.695 131.936C150.121 133.6 150.335 135.285 150.335 136.992C150.335 139.552 149.887 141.792 148.991 143.712C148.095 145.632 146.921 147.232 145.471 148.512C146.025 149.408 146.623 150.027 147.263 150.368C147.903 150.709 148.735 150.88 149.759 150.88C150.1 150.88 150.505 150.837 150.975 150.752C151.444 150.667 151.785 150.581 151.999 150.496L152.831 155.104C152.489 155.275 151.999 155.403 151.359 155.488C150.761 155.616 150.185 155.68 149.631 155.68C147.668 155.68 146.089 155.296 144.895 154.528C143.743 153.76 142.676 152.565 141.695 150.944C140.5 151.456 139.263 151.84 137.983 152.096C136.703 152.395 135.423 152.544 134.143 152.544C131.839 152.544 129.961 152.139 128.511 151.328C127.06 150.56 125.993 149.515 125.311 148.192C124.628 146.912 124.287 145.504 124.287 143.968C124.287 141.493 125.076 139.552 126.655 138.144C128.233 136.736 130.239 136.032 132.671 136.032ZM129.535 143.968C129.535 144.949 129.876 145.867 130.559 146.72C131.241 147.573 132.628 148 134.719 148C136.639 148 138.324 147.659 139.775 146.976C138.793 144.843 137.769 143.221 136.703 142.112C135.636 141.045 134.42 140.512 133.055 140.512C131.903 140.512 131.028 140.832 130.431 141.472C129.833 142.112 129.535 142.944 129.535 143.968ZM162.648 132.768C159.491 132.768 156.952 131.595 155.032 129.248C153.112 126.901 152.152 123.253 152.152 118.304C152.152 114.805 152.75 111.691 153.944 108.96C155.139 106.229 156.867 104.075 159.128 102.496H152.152V96.736H179.48C181.656 96.736 183.192 96.6293 184.088 96.416C184.984 96.2027 185.646 95.904 186.072 95.52C186.584 95.136 186.904 94.688 187.032 94.176C187.203 93.664 187.288 93.1093 187.288 92.512C187.288 91.1893 186.947 89.888 186.264 88.608C185.624 87.2853 184.707 85.9413 183.512 84.576L188.44 81.504C190.318 83.7653 191.619 85.8133 192.344 87.648C193.112 89.44 193.496 91.3173 193.496 93.28C193.496 94.2613 193.304 95.3493 192.92 96.544C192.579 97.7387 191.896 98.8053 190.872 99.744C190.36 100.213 189.763 100.64 189.08 101.024C188.44 101.365 187.715 101.664 186.904 101.92C188.44 102.859 189.614 104.139 190.424 105.76C191.235 107.381 191.64 109.088 191.64 110.88C191.64 111.477 191.619 112.011 191.576 112.48C192.856 114.656 193.496 117.259 193.496 120.288C193.496 122.891 193.006 125.131 192.024 127.008C191.043 128.843 189.699 130.272 187.992 131.296C186.328 132.277 184.451 132.768 182.36 132.768C180.099 132.768 178.179 132.363 176.6 131.552C175.064 130.699 173.678 129.333 172.44 127.456C171.075 129.589 169.582 131.019 167.96 131.744C166.339 132.427 164.568 132.768 162.648 132.768ZM163.608 126.88C165.315 126.88 166.659 126.219 167.64 124.896C168.664 123.573 169.304 121.845 169.56 119.712H175.384C175.64 122.144 176.344 123.957 177.496 125.152C178.648 126.304 180.056 126.88 181.72 126.88C183.256 126.88 184.622 126.368 185.816 125.344C187.054 124.32 187.672 122.464 187.672 119.776C187.672 119.264 187.651 118.752 187.608 118.24C186.926 118.795 186.136 119.243 185.24 119.584C184.387 119.883 183.363 120.032 182.168 120.032C180.163 120.032 178.392 119.477 176.856 118.368C175.363 117.216 174.616 115.445 174.616 113.056C174.616 110.837 175.32 109.195 176.728 108.128C178.136 107.019 179.822 106.464 181.784 106.464C182.467 106.464 183.086 106.528 183.64 106.656C184.195 106.741 184.707 106.891 185.176 107.104C184.238 105.696 182.851 104.565 181.016 103.712C179.182 102.859 176.92 102.432 174.232 102.432H172.376C169.39 102.432 166.851 103.115 164.76 104.48C162.712 105.845 161.155 107.723 160.088 110.112C159.022 112.459 158.488 115.125 158.488 118.112C158.488 121.312 158.936 123.573 159.832 124.896C160.728 126.219 161.987 126.88 163.608 126.88ZM179.864 112.992C179.864 114.741 180.782 115.616 182.616 115.616C183.342 115.616 184.024 115.424 184.664 115.04C185.347 114.613 185.838 113.952 186.136 113.056C185.71 112.331 185.176 111.755 184.536 111.328C183.939 110.859 183.214 110.624 182.36 110.624C181.635 110.624 181.038 110.837 180.568 111.264C180.099 111.691 179.864 112.267 179.864 112.992Z" fill="#EBECF0"/>
</g>
<defs>
<filter id="filter0_ddiiii" x="9.59175" y="11.952" width="242.921" height="53.008" filterUnits="userSpaceOnUse" color-interpolation-filters="sRGB">
<feFlood flood-opacity="0" result="BackgroundImageFix"/>
<feColorMatrix in="SourceAlpha" type="matrix" values="0 0 0 0 0 0 0 0 0 0 0 0 0 0 0 0 0 0 127 0"/>
<feOffset dx="-1" dy="-1"/>
<feGaussianBlur stdDeviation="1"/>
<feColorMatrix type="matrix" values="0 0 0 0 0.737255 0 0 0 0 0.741176 0 0 0 0 0.752941 0 0 0 0.5 0"/>
<feBlend mode="normal" in2="BackgroundImageFix" result="effect1_dropShadow"/>
<feColorMatrix in="SourceAlpha" type="matrix" values="0 0 0 0 0 0 0 0 0 0 0 0 0 0 0 0 0 0 127 0"/>
<feOffset dx="1" dy="1"/>
<feGaussianBlur stdDeviation="1"/>
<feColorMatrix type="matrix" values="0 0 0 0 1 0 0 0 0 1 0 0 0 0 1 0 0 0 0.3 0"/>
<feBlend mode="normal" in2="effect1_dropShadow" result="effect2_dropShadow"/>
<feBlend mode="normal" in="SourceGraphic" in2="effect2_dropShadow" result="shape"/>
<feColorMatrix in="SourceAlpha" type="matrix" values="0 0 0 0 0 0 0 0 0 0 0 0 0 0 0 0 0 0 127 0" result="hardAlpha"/>
<feOffset dx="5" dy="5"/>
<feGaussianBlur stdDeviation="6.5"/>
<feComposite in2="hardAlpha" operator="arithmetic" k2="-1" k3="1"/>
<feColorMatrix type="matrix" values="0 0 0 0 0.737255 0 0 0 0 0.741176 0 0 0 0 0.752941 0 0 0 0.9 0"/>
<feBlend mode="normal" in2="shape" result="effect3_innerShadow"/>
<feColorMatrix in="SourceAlpha" type="matrix" values="0 0 0 0 0 0 0 0 0 0 0 0 0 0 0 0 0 0 127 0" result="hardAlpha"/>
<feOffset dx="-5" dy="-5"/>
<feGaussianBlur stdDeviation="5"/>
<feComposite in2="hardAlpha" operator="arithmetic" k2="-1" k3="1"/>
<feColorMatrix type="matrix" values="0 0 0 0 1 0 0 0 0 1 0 0 0 0 1 0 0 0 0.9 0"/>
<feBlend mode="normal" in2="effect3_innerShadow" result="effect4_innerShadow"/>
<feColorMatrix in="SourceAlpha" type="matrix" values="0 0 0 0 0 0 0 0 0 0 0 0 0 0 0 0 0 0 127 0" result="hardAlpha"/>
<feOffset dx="5" dy="-5"/>
<feGaussianBlur stdDeviation="5"/>
<feComposite in2="hardAlpha" operator="arithmetic" k2="-1" k3="1"/>
<feColorMatrix type="matrix" values="0 0 0 0 0.737255 0 0 0 0 0.741176 0 0 0 0 0.752941 0 0 0 0.2 0"/>
<feBlend mode="normal" in2="effect4_innerShadow" result="effect5_innerShadow"/>
<feColorMatrix in="SourceAlpha" type="matrix" values="0 0 0 0 0 0 0 0 0 0 0 0 0 0 0 0 0 0 127 0" result="hardAlpha"/>
<feOffset dx="-5" dy="5"/>
<feGaussianBlur stdDeviation="5"/>
<feComposite in2="hardAlpha" operator="arithmetic" k2="-1" k3="1"/>
<feColorMatrix type="matrix" values="0 0 0 0 0.737255 0 0 0 0 0.741176 0 0 0 0 0.752941 0 0 0 0.2 0"/>
<feBlend mode="normal" in2="effect5_innerShadow" result="effect6_innerShadow"/>
</filter>
<filter id="filter1_ddiiii" x="62.4588" y="76.504" width="136.038" height="84.176" filterUnits="userSpaceOnUse" color-interpolation-filters="sRGB">
<feFlood flood-opacity="0" result="BackgroundImageFix"/>
<feColorMatrix in="SourceAlpha" type="matrix" values="0 0 0 0 0 0 0 0 0 0 0 0 0 0 0 0 0 0 127 0"/>
<feOffset dx="-1" dy="-1"/>
<feGaussianBlur stdDeviation="1"/>
<feColorMatrix type="matrix" values="0 0 0 0 0.737255 0 0 0 0 0.741176 0 0 0 0 0.752941 0 0 0 0.5 0"/>
<feBlend mode="normal" in2="BackgroundImageFix" result="effect1_dropShadow"/>
<feColorMatrix in="SourceAlpha" type="matrix" values="0 0 0 0 0 0 0 0 0 0 0 0 0 0 0 0 0 0 127 0"/>
<feOffset dx="1" dy="1"/>
<feGaussianBlur stdDeviation="1"/>
<feColorMatrix type="matrix" values="0 0 0 0 1 0 0 0 0 1 0 0 0 0 1 0 0 0 0.3 0"/>
<feBlend mode="normal" in2="effect1_dropShadow" result="effect2_dropShadow"/>
<feBlend mode="normal" in="SourceGraphic" in2="effect2_dropShadow" result="shape"/>
<feColorMatrix in="SourceAlpha" type="matrix" values="0 0 0 0 0 0 0 0 0 0 0 0 0 0 0 0 0 0 127 0" result="hardAlpha"/>
<feOffset dx="5" dy="5"/>
<feGaussianBlur stdDeviation="6.5"/>
<feComposite in2="hardAlpha" operator="arithmetic" k2="-1" k3="1"/>
<feColorMatrix type="matrix" values="0 0 0 0 0.737255 0 0 0 0 0.741176 0 0 0 0 0.752941 0 0 0 0.9 0"/>
<feBlend mode="normal" in2="shape" result="effect3_innerShadow"/>
<feColorMatrix in="SourceAlpha" type="matrix" values="0 0 0 0 0 0 0 0 0 0 0 0 0 0 0 0 0 0 127 0" result="hardAlpha"/>
<feOffset dx="-5" dy="-5"/>
<feGaussianBlur stdDeviation="5"/>
<feComposite in2="hardAlpha" operator="arithmetic" k2="-1" k3="1"/>
<feColorMatrix type="matrix" values="0 0 0 0 1 0 0 0 0 1 0 0 0 0 1 0 0 0 0.9 0"/>
<feBlend mode="normal" in2="effect3_innerShadow" result="effect4_innerShadow"/>
<feColorMatrix in="SourceAlpha" type="matrix" values="0 0 0 0 0 0 0 0 0 0 0 0 0 0 0 0 0 0 127 0" result="hardAlpha"/>
<feOffset dx="5" dy="-5"/>
<feGaussianBlur stdDeviation="5"/>
<feComposite in2="hardAlpha" operator="arithmetic" k2="-1" k3="1"/>
<feColorMatrix type="matrix" values="0 0 0 0 0.737255 0 0 0 0 0.741176 0 0 0 0 0.752941 0 0 0 0.2 0"/>
<feBlend mode="normal" in2="effect4_innerShadow" result="effect5_innerShadow"/>
<feColorMatrix in="SourceAlpha" type="matrix" values="0 0 0 0 0 0 0 0 0 0 0 0 0 0 0 0 0 0 127 0" result="hardAlpha"/>
<feOffset dx="-5" dy="5"/>
<feGaussianBlur stdDeviation="5"/>
<feComposite in2="hardAlpha" operator="arithmetic" k2="-1" k3="1"/>
<feColorMatrix type="matrix" values="0 0 0 0 0.737255 0 0 0 0 0.741176 0 0 0 0 0.752941 0 0 0 0.2 0"/>
<feBlend mode="normal" in2="effect5_innerShadow" result="effect6_innerShadow"/>
</filter>
</defs>
</svg>
