<svg width="280" height="160" viewBox="0 0 280 160" fill="none" xmlns="http://www.w3.org/2000/svg">
<rect width="280" height="160" fill="#EBECF0"/>
<g filter="url(#filter0_ddiiii)">
<path d="M43.047 57.016C42.7057 57.3147 42.2363 57.5707 41.639 57.784C41.0417 57.9973 40.359 58.104 39.591 58.104C38.695 58.104 37.9057 57.976 37.223 57.72C36.583 57.4213 36.135 56.9733 35.879 56.376C33.9163 51.8533 32.2097 47.8427 30.759 44.344C29.351 40.8453 28.2203 37.9227 27.367 35.576H27.047C26.919 38.6053 26.791 41.4 26.663 43.96C26.5777 46.4773 26.471 48.952 26.343 51.384C26.215 53.816 26.0657 56.2907 25.895 58.808C25.767 61.3253 25.6177 64.0347 25.447 66.936C25.1057 67.064 24.6577 67.1707 24.103 67.256C23.591 67.384 23.0363 67.448 22.439 67.448C20.135 67.448 18.983 66.5093 18.983 64.632C18.983 64.0773 19.0043 63.096 19.047 61.688C19.1323 60.28 19.2177 58.616 19.303 56.696C19.431 54.7333 19.559 52.5787 19.687 50.232C19.8577 47.8853 20.0283 45.5173 20.199 43.128C20.3697 40.696 20.5403 38.328 20.711 36.024C20.8817 33.6773 21.0523 31.5227 21.223 29.56C21.5643 29.2187 22.119 28.856 22.887 28.472C23.6977 28.088 24.679 27.896 25.831 27.896C27.1963 27.896 28.2843 28.152 29.095 28.664C29.9057 29.1333 30.5457 29.8587 31.015 30.84C31.6977 32.3333 32.4017 33.9547 33.127 35.704C33.8523 37.4107 34.5777 39.16 35.303 40.952C36.0283 42.7013 36.7323 44.4507 37.415 46.2C38.0977 47.9493 38.759 49.592 39.399 51.128H39.719C40.5297 48.9947 41.3403 46.8827 42.151 44.792C43.0043 42.7013 43.815 40.696 44.583 38.776C45.3937 36.856 46.1403 35.0427 46.823 33.336C47.5483 31.6293 48.2097 30.0933 48.807 28.728C49.2763 28.5147 49.8523 28.3227 50.535 28.152C51.2177 27.9813 51.9217 27.896 52.647 27.896C54.055 27.896 55.1003 28.1093 55.783 28.536C56.5083 28.9627 56.9777 29.5813 57.191 30.392C57.3617 31.16 57.5537 32.44 57.767 34.232C57.9803 35.9813 58.1937 38.008 58.407 40.312C58.6203 42.616 58.8337 45.0693 59.047 47.672C59.2603 50.232 59.4523 52.728 59.623 55.16C59.7937 57.5493 59.943 59.768 60.071 61.816C60.199 63.8213 60.2843 65.4 60.327 66.552C59.8577 66.8507 59.3457 67.064 58.791 67.192C58.279 67.3627 57.6603 67.448 56.935 67.448C56.039 67.448 55.2497 67.256 54.567 66.872C53.927 66.488 53.5643 65.7627 53.479 64.696C53.3083 61.7947 53.1377 58.936 52.967 56.12C52.839 53.304 52.711 50.6373 52.583 48.12C52.455 45.6027 52.327 43.2773 52.199 41.144C52.1137 39.0107 52.0283 37.1973 51.943 35.704H51.687C50.8763 37.88 49.767 40.6533 48.359 44.024C46.9937 47.3947 45.223 51.7253 43.047 57.016ZM80.305 62.712C81.7983 62.712 83.0997 62.5627 84.209 62.264C85.3183 61.9653 86.1077 61.6453 86.577 61.304V53.176L79.601 53.88C77.6383 54.0933 76.1663 54.5413 75.185 55.224C74.2037 55.864 73.713 56.8667 73.713 58.232C73.713 59.64 74.2463 60.7493 75.313 61.56C76.3797 62.328 78.0437 62.712 80.305 62.712ZM80.177 36.152C84.145 36.152 87.3023 37.0267 89.649 38.776C91.9957 40.4827 93.169 43.192 93.169 46.904V61.816C93.169 62.7973 92.9343 63.5653 92.465 64.12C92.0383 64.632 91.441 65.1227 90.673 65.592C89.5637 66.232 88.1343 66.7867 86.385 67.256C84.6357 67.7253 82.609 67.96 80.305 67.96C76.1663 67.96 72.9237 67.1493 70.577 65.528C68.273 63.9067 67.121 61.5173 67.121 58.36C67.121 55.544 68.017 53.3893 69.809 51.896C71.6437 50.4027 74.2677 49.4853 77.681 49.144L86.577 48.248V46.84C86.577 44.9627 85.9583 43.5973 84.721 42.744C83.5263 41.8907 81.841 41.464 79.665 41.464C77.9583 41.464 76.3157 41.6987 74.737 42.168C73.1583 42.6373 71.7503 43.1707 70.513 43.768C70.0863 43.4267 69.7237 43.0213 69.425 42.552C69.1263 42.04 68.977 41.4853 68.977 40.888C68.977 40.1627 69.1477 39.5653 69.489 39.096C69.873 38.6267 70.449 38.2213 71.217 37.88C72.4117 37.2827 73.777 36.856 75.313 36.6C76.849 36.3013 78.4703 36.152 80.177 36.152ZM108.385 66.872C108.086 67 107.659 67.1067 107.105 67.192C106.593 67.32 106.017 67.384 105.377 67.384C104.139 67.384 103.222 67.1493 102.625 66.68C102.027 66.2107 101.729 65.4213 101.729 64.312V43.32C101.729 42.2533 101.942 41.4 102.369 40.76C102.795 40.0773 103.478 39.4373 104.417 38.84C105.654 38.072 107.233 37.432 109.153 36.92C111.073 36.408 113.185 36.152 115.489 36.152C119.243 36.152 121.121 37.2187 121.121 39.352C121.121 39.864 121.035 40.3547 120.865 40.824C120.694 41.2507 120.502 41.6347 120.289 41.976C119.862 41.8907 119.329 41.8053 118.689 41.72C118.049 41.6347 117.366 41.592 116.641 41.592C114.934 41.592 113.377 41.784 111.969 42.168C110.561 42.5093 109.366 42.9573 108.385 43.512V66.872ZM137.43 62.712C138.923 62.712 140.225 62.5627 141.334 62.264C142.443 61.9653 143.233 61.6453 143.702 61.304V53.176L136.726 53.88C134.763 54.0933 133.291 54.5413 132.31 55.224C131.329 55.864 130.838 56.8667 130.838 58.232C130.838 59.64 131.371 60.7493 132.438 61.56C133.505 62.328 135.169 62.712 137.43 62.712ZM137.302 36.152C141.27 36.152 144.427 37.0267 146.774 38.776C149.121 40.4827 150.294 43.192 150.294 46.904V61.816C150.294 62.7973 150.059 63.5653 149.59 64.12C149.163 64.632 148.566 65.1227 147.798 65.592C146.689 66.232 145.259 66.7867 143.51 67.256C141.761 67.7253 139.734 67.96 137.43 67.96C133.291 67.96 130.049 67.1493 127.702 65.528C125.398 63.9067 124.246 61.5173 124.246 58.36C124.246 55.544 125.142 53.3893 126.934 51.896C128.769 50.4027 131.393 49.4853 134.806 49.144L143.702 48.248V46.84C143.702 44.9627 143.083 43.5973 141.846 42.744C140.651 41.8907 138.966 41.464 136.79 41.464C135.083 41.464 133.441 41.6987 131.862 42.168C130.283 42.6373 128.875 43.1707 127.638 43.768C127.211 43.4267 126.849 43.0213 126.55 42.552C126.251 42.04 126.102 41.4853 126.102 40.888C126.102 40.1627 126.273 39.5653 126.614 39.096C126.998 38.6267 127.574 38.2213 128.342 37.88C129.537 37.2827 130.902 36.856 132.438 36.6C133.974 36.3013 135.595 36.152 137.302 36.152ZM165.574 58.232C165.574 59.768 166.022 60.856 166.918 61.496C167.814 62.136 169.072 62.456 170.694 62.456C171.419 62.456 172.187 62.3493 172.998 62.136C173.808 61.9227 174.512 61.6667 175.11 61.368C175.408 61.7093 175.664 62.0933 175.878 62.52C176.134 62.9467 176.262 63.4587 176.262 64.056C176.262 65.1653 175.686 66.0827 174.534 66.808C173.424 67.5333 171.718 67.896 169.414 67.896C166.214 67.896 163.654 67.192 161.734 65.784C159.856 64.3333 158.918 61.9653 158.918 58.68V28.792C159.216 28.7067 159.643 28.6 160.198 28.472C160.752 28.344 161.35 28.28 161.99 28.28C163.227 28.28 164.123 28.5147 164.678 28.984C165.275 29.4533 165.574 30.2427 165.574 31.352V37.688H175.494C175.664 37.944 175.814 38.3067 175.942 38.776C176.112 39.2453 176.198 39.736 176.198 40.248C176.198 42.0827 175.408 43 173.83 43H165.574V58.232ZM203.456 48.312C203.456 45.9653 202.816 44.2587 201.536 43.192C200.298 42.0827 198.656 41.528 196.608 41.528C195.242 41.528 193.984 41.7627 192.832 42.232C191.722 42.6587 190.741 43.192 189.888 43.832V66.872C189.589 67 189.162 67.1067 188.608 67.192C188.096 67.32 187.52 67.384 186.88 67.384C185.642 67.384 184.725 67.1493 184.128 66.68C183.53 66.2107 183.232 65.4213 183.232 64.312V25.464C183.53 25.3787 183.957 25.272 184.512 25.144C185.066 25.016 185.664 24.952 186.304 24.952C187.541 24.952 188.437 25.1867 188.992 25.656C189.589 26.1253 189.888 26.9147 189.888 28.024V38.136C190.869 37.624 192 37.176 193.28 36.792C194.602 36.3653 196.074 36.152 197.696 36.152C201.408 36.152 204.394 37.1333 206.656 39.096C208.96 41.0587 210.112 44.0453 210.112 48.056V66.872C209.813 67 209.386 67.1067 208.832 67.192C208.277 67.32 207.701 67.384 207.104 67.384C205.824 67.384 204.885 67.1493 204.288 66.68C203.733 66.2107 203.456 65.4213 203.456 64.312V48.312ZM225.892 66.872C225.593 67 225.167 67.1067 224.612 67.192C224.1 67.32 223.503 67.384 222.82 67.384C221.583 67.384 220.665 67.1493 220.068 66.68C219.471 66.2107 219.172 65.4213 219.172 64.312V37.24C219.513 37.1547 219.94 37.048 220.452 36.92C221.007 36.792 221.625 36.728 222.308 36.728C223.545 36.728 224.441 36.9627 224.996 37.432C225.593 37.9013 225.892 38.712 225.892 39.864V66.872ZM218.468 27.832C218.468 26.7227 218.852 25.8053 219.62 25.08C220.388 24.312 221.369 23.928 222.564 23.928C223.759 23.928 224.719 24.312 225.444 25.08C226.169 25.8053 226.532 26.7227 226.532 27.832C226.532 28.9413 226.169 29.88 225.444 30.648C224.719 31.3733 223.759 31.736 222.564 31.736C221.369 31.736 220.388 31.3733 219.62 30.648C218.852 29.88 218.468 28.9413 218.468 27.832Z" fill="#EBECF0"/>
</g>
<g filter="url(#filter1_ddiiii)">
<path d="M54.714 99.52V94.4H94.65V99.52H87.546V136H81.466V118.464H68.986V126.912H63.674L61.882 122.816C60.6873 120.128 60.09 118.208 60.09 117.056C60.09 115.221 61.0287 114.069 62.906 113.6V99.52H54.714ZM81.466 99.52H68.986V113.344H81.466V99.52ZM95.173 118.592V113.6H99.653C104.474 113.6 106.885 111.659 106.885 107.776V99.52H91.589V94.4H119.493V99.52H113.029V108.288C113.029 111.275 112.154 113.664 110.405 115.456C108.656 117.205 106.266 118.187 103.237 118.4C103.152 118.443 102.896 118.464 102.469 118.464L115.973 136H108.485L95.173 118.592ZM116.401 99.52V94.4H136.818V99.52H129.714V136H123.506V99.52H116.401ZM162.068 119.232C162.068 116.757 161.278 114.88 159.7 113.6C158.164 112.277 156.052 111.595 153.364 111.552C150.932 111.552 148.862 112.192 147.156 113.472C145.449 114.752 144.595 116.651 144.595 119.168C144.595 121.557 145.406 123.477 147.028 124.928C148.649 126.379 150.782 127.104 153.428 127.104C156.03 127.104 158.121 126.379 159.7 124.928C161.278 123.477 162.068 121.579 162.068 119.232ZM173.076 99.52H157.78V107.008C160.98 107.733 163.54 109.141 165.46 111.232C167.422 113.323 168.404 115.989 168.404 119.232C168.404 123.029 167.017 126.123 164.244 128.512C161.513 130.901 157.886 132.117 153.364 132.16C148.884 132.16 145.257 130.987 142.484 128.64C139.71 126.251 138.324 123.093 138.324 119.168C138.324 115.413 139.604 112.469 142.164 110.336C144.766 108.16 147.924 106.923 151.635 106.624V99.52H133.651V94.4H173.076V99.52ZM183.148 94.4H190.316V99.52H183.212V136H177.068V99.52H169.964V94.4H176.94V89.408C176.94 87.488 176.407 86.016 175.34 84.992C174.316 83.968 172.929 83.456 171.18 83.456C169.473 83.456 168.129 83.9467 167.148 84.928C166.167 85.9093 165.676 87.4027 165.676 89.408V90.752H159.468V89.28C159.468 85.568 160.577 82.7733 162.796 80.896C165.015 79.0187 167.809 78.08 171.18 78.08C174.593 78.08 177.431 79.0187 179.692 80.896C181.996 82.7733 183.148 85.5467 183.148 89.216V94.4Z" fill="#EBECF0"/>
</g>
<defs>
<filter id="filter0_ddiiii" x="13.983" y="18.928" width="217.549" height="54.032" filterUnits="userSpaceOnUse" color-interpolation-filters="sRGB">
<feFlood flood-opacity="0" result="BackgroundImageFix"/>
<feColorMatrix in="SourceAlpha" type="matrix" values="0 0 0 0 0 0 0 0 0 0 0 0 0 0 0 0 0 0 127 0"/>
<feOffset dx="-1" dy="-1"/>
<feGaussianBlur stdDeviation="1"/>
<feColorMatrix type="matrix" values="0 0 0 0 0.737255 0 0 0 0 0.741176 0 0 0 0 0.752941 0 0 0 0.5 0"/>
<feBlend mode="normal" in2="BackgroundImageFix" result="effect1_dropShadow"/>
<feColorMatrix in="SourceAlpha" type="matrix" values="0 0 0 0 0 0 0 0 0 0 0 0 0 0 0 0 0 0 127 0"/>
<feOffset dx="1" dy="1"/>
<feGaussianBlur stdDeviation="1"/>
<feColorMatrix type="matrix" values="0 0 0 0 1 0 0 0 0 1 0 0 0 0 1 0 0 0 0.3 0"/>
<feBlend mode="normal" in2="effect1_dropShadow" result="effect2_dropShadow"/>
<feBlend mode="normal" in="SourceGraphic" in2="effect2_dropShadow" result="shape"/>
<feColorMatrix in="SourceAlpha" type="matrix" values="0 0 0 0 0 0 0 0 0 0 0 0 0 0 0 0 0 0 127 0" result="hardAlpha"/>
<feOffset dx="5" dy="5"/>
<feGaussianBlur stdDeviation="6.5"/>
<feComposite in2="hardAlpha" operator="arithmetic" k2="-1" k3="1"/>
<feColorMatrix type="matrix" values="0 0 0 0 0.737255 0 0 0 0 0.741176 0 0 0 0 0.752941 0 0 0 0.9 0"/>
<feBlend mode="normal" in2="shape" result="effect3_innerShadow"/>
<feColorMatrix in="SourceAlpha" type="matrix" values="0 0 0 0 0 0 0 0 0 0 0 0 0 0 0 0 0 0 127 0" result="hardAlpha"/>
<feOffset dx="-5" dy="-5"/>
<feGaussianBlur stdDeviation="5"/>
<feComposite in2="hardAlpha" operator="arithmetic" k2="-1" k3="1"/>
<feColorMatrix type="matrix" values="0 0 0 0 1 0 0 0 0 1 0 0 0 0 1 0 0 0 0.9 0"/>
<feBlend mode="normal" in2="effect3_innerShadow" result="effect4_innerShadow"/>
<feColorMatrix in="SourceAlpha" type="matrix" values="0 0 0 0 0 0 0 0 0 0 0 0 0 0 0 0 0 0 127 0" result="hardAlpha"/>
<feOffset dx="5" dy="-5"/>
<feGaussianBlur stdDeviation="5"/>
<feComposite in2="hardAlpha" operator="arithmetic" k2="-1" k3="1"/>
<feColorMatrix type="matrix" values="0 0 0 0 0.737255 0 0 0 0 0.741176 0 0 0 0 0.752941 0 0 0 0.2 0"/>
<feBlend mode="normal" in2="effect4_innerShadow" result="effect5_innerShadow"/>
<feColorMatrix in="SourceAlpha" type="matrix" values="0 0 0 0 0 0 0 0 0 0 0 0 0 0 0 0 0 0 127 0" result="hardAlpha"/>
<feOffset dx="-5" dy="5"/>
<feGaussianBlur stdDeviation="5"/>
<feComposite in2="hardAlpha" operator="arithmetic" k2="-1" k3="1"/>
<feColorMatrix type="matrix" values="0 0 0 0 0.737255 0 0 0 0 0.741176 0 0 0 0 0.752941 0 0 0 0.2 0"/>
<feBlend mode="normal" in2="effect5_innerShadow" result="effect6_innerShadow"/>
</filter>
<filter id="filter1_ddiiii" x="49.714" y="73.08" width="145.602" height="67.92" filterUnits="userSpaceOnUse" color-interpolation-filters="sRGB">
<feFlood flood-opacity="0" result="BackgroundImageFix"/>
<feColorMatrix in="SourceAlpha" type="matrix" values="0 0 0 0 0 0 0 0 0 0 0 0 0 0 0 0 0 0 127 0"/>
<feOffset dx="-1" dy="-1"/>
<feGaussianBlur stdDeviation="1"/>
<feColorMatrix type="matrix" values="0 0 0 0 0.737255 0 0 0 0 0.741176 0 0 0 0 0.752941 0 0 0 0.5 0"/>
<feBlend mode="normal" in2="BackgroundImageFix" result="effect1_dropShadow"/>
<feColorMatrix in="SourceAlpha" type="matrix" values="0 0 0 0 0 0 0 0 0 0 0 0 0 0 0 0 0 0 127 0"/>
<feOffset dx="1" dy="1"/>
<feGaussianBlur stdDeviation="1"/>
<feColorMatrix type="matrix" values="0 0 0 0 1 0 0 0 0 1 0 0 0 0 1 0 0 0 0.3 0"/>
<feBlend mode="normal" in2="effect1_dropShadow" result="effect2_dropShadow"/>
<feBlend mode="normal" in="SourceGraphic" in2="effect2_dropShadow" result="shape"/>
<feColorMatrix in="SourceAlpha" type="matrix" values="0 0 0 0 0 0 0 0 0 0 0 0 0 0 0 0 0 0 127 0" result="hardAlpha"/>
<feOffset dx="5" dy="5"/>
<feGaussianBlur stdDeviation="6.5"/>
<feComposite in2="hardAlpha" operator="arithmetic" k2="-1" k3="1"/>
<feColorMatrix type="matrix" values="0 0 0 0 0.737255 0 0 0 0 0.741176 0 0 0 0 0.752941 0 0 0 0.9 0"/>
<feBlend mode="normal" in2="shape" result="effect3_innerShadow"/>
<feColorMatrix in="SourceAlpha" type="matrix" values="0 0 0 0 0 0 0 0 0 0 0 0 0 0 0 0 0 0 127 0" result="hardAlpha"/>
<feOffset dx="-5" dy="-5"/>
<feGaussianBlur stdDeviation="5"/>
<feComposite in2="hardAlpha" operator="arithmetic" k2="-1" k3="1"/>
<feColorMatrix type="matrix" values="0 0 0 0 1 0 0 0 0 1 0 0 0 0 1 0 0 0 0.9 0"/>
<feBlend mode="normal" in2="effect3_innerShadow" result="effect4_innerShadow"/>
<feColorMatrix in="SourceAlpha" type="matrix" values="0 0 0 0 0 0 0 0 0 0 0 0 0 0 0 0 0 0 127 0" result="hardAlpha"/>
<feOffset dx="5" dy="-5"/>
<feGaussianBlur stdDeviation="5"/>
<feComposite in2="hardAlpha" operator="arithmetic" k2="-1" k3="1"/>
<feColorMatrix type="matrix" values="0 0 0 0 0.737255 0 0 0 0 0.741176 0 0 0 0 0.752941 0 0 0 0.2 0"/>
<feBlend mode="normal" in2="effect4_innerShadow" result="effect5_innerShadow"/>
<feColorMatrix in="SourceAlpha" type="matrix" values="0 0 0 0 0 0 0 0 0 0 0 0 0 0 0 0 0 0 127 0" result="hardAlpha"/>
<feOffset dx="-5" dy="5"/>
<feGaussianBlur stdDeviation="5"/>
<feComposite in2="hardAlpha" operator="arithmetic" k2="-1" k3="1"/>
<feColorMatrix type="matrix" values="0 0 0 0 0.737255 0 0 0 0 0.741176 0 0 0 0 0.752941 0 0 0 0.2 0"/>
<feBlend mode="normal" in2="effect5_innerShadow" result="effect6_innerShadow"/>
</filter>
</defs>
</svg>
