<svg width="280" height="160" viewBox="0 0 280 160" fill="none" xmlns="http://www.w3.org/2000/svg">
<rect width="280" height="160" fill="#EBECF0"/>
<g filter="url(#filter0_ddiiii)">
<path d="M54.352 29.784V62.872C54.0533 63 53.6053 63.1067 53.008 63.192C52.4533 63.32 51.856 63.384 51.216 63.384C49.8933 63.384 48.9547 63.1493 48.4 62.68C47.8453 62.168 47.568 61.336 47.568 60.184V29.784H36.24C36.0267 29.4853 35.8347 29.1013 35.664 28.632C35.536 28.1627 35.472 27.6293 35.472 27.032C35.472 26.0933 35.6853 25.3893 36.112 24.92C36.5813 24.408 37.2 24.152 37.968 24.152H65.808C65.9787 24.408 66.128 24.7707 66.256 25.24C66.4267 25.7093 66.512 26.2213 66.512 26.776C66.512 28.7813 65.68 29.784 64.016 29.784H54.352ZM81.6175 58.712C83.1108 58.712 84.4122 58.5627 85.5215 58.264C86.6308 57.9653 87.4202 57.6453 87.8895 57.304V49.176L80.9135 49.88C78.9508 50.0933 77.4788 50.5413 76.4975 51.224C75.5162 51.864 75.0255 52.8667 75.0255 54.232C75.0255 55.64 75.5588 56.7493 76.6255 57.56C77.6922 58.328 79.3562 58.712 81.6175 58.712ZM81.4895 32.152C85.4575 32.152 88.6148 33.0267 90.9615 34.776C93.3082 36.4827 94.4815 39.192 94.4815 42.904V57.816C94.4815 58.7973 94.2468 59.5653 93.7775 60.12C93.3508 60.632 92.7535 61.1227 91.9855 61.592C90.8762 62.232 89.4468 62.7867 87.6975 63.256C85.9482 63.7253 83.9215 63.96 81.6175 63.96C77.4788 63.96 74.2362 63.1493 71.8895 61.528C69.5855 59.9067 68.4335 57.5173 68.4335 54.36C68.4335 51.544 69.3295 49.3893 71.1215 47.896C72.9562 46.4027 75.5802 45.4853 78.9935 45.144L87.8895 44.248V42.84C87.8895 40.9627 87.2708 39.5973 86.0335 38.744C84.8388 37.8907 83.1535 37.464 80.9775 37.464C79.2708 37.464 77.6282 37.6987 76.0495 38.168C74.4708 38.6373 73.0628 39.1707 71.8255 39.768C71.3988 39.4267 71.0362 39.0213 70.7375 38.552C70.4388 38.04 70.2895 37.4853 70.2895 36.888C70.2895 36.1627 70.4602 35.5653 70.8015 35.096C71.1855 34.6267 71.7615 34.2213 72.5295 33.88C73.7242 33.2827 75.0895 32.856 76.6255 32.6C78.1615 32.3013 79.7828 32.152 81.4895 32.152ZM140.289 42.968C140.289 41.0907 139.756 39.7253 138.689 38.872C137.665 37.976 136.257 37.528 134.465 37.528C133.27 37.528 132.118 37.7627 131.009 38.232C129.942 38.6587 128.961 39.256 128.065 40.024C128.15 40.3653 128.214 40.728 128.257 41.112C128.3 41.496 128.321 41.88 128.321 42.264V62.872C128.022 63 127.596 63.1067 127.041 63.192C126.486 63.32 125.91 63.384 125.313 63.384C124.076 63.384 123.158 63.1493 122.561 62.68C121.964 62.2107 121.665 61.4213 121.665 60.312V42.968C121.665 41.0907 121.132 39.7253 120.065 38.872C118.998 37.976 117.569 37.528 115.777 37.528C114.582 37.528 113.452 37.72 112.385 38.104C111.318 38.488 110.422 38.9147 109.697 39.384V62.872C109.398 63 108.972 63.1067 108.417 63.192C107.905 63.32 107.329 63.384 106.689 63.384C105.452 63.384 104.534 63.1493 103.937 62.68C103.34 62.2107 103.041 61.4213 103.041 60.312V39.192C103.041 38.2107 103.233 37.4213 103.617 36.824C104.001 36.2267 104.641 35.6293 105.537 35.032C106.774 34.2213 108.332 33.5387 110.209 32.984C112.086 32.4293 113.985 32.152 115.905 32.152C117.91 32.152 119.702 32.4293 121.281 32.984C122.902 33.5387 124.225 34.3493 125.249 35.416C126.444 34.4773 127.852 33.7093 129.473 33.112C131.137 32.472 133.057 32.152 135.233 32.152C136.897 32.152 138.454 32.3653 139.905 32.792C141.356 33.176 142.593 33.816 143.617 34.712C144.684 35.5653 145.516 36.6533 146.113 37.976C146.71 39.2987 147.009 40.8773 147.009 42.712V62.872C146.668 63 146.22 63.1067 145.665 63.192C145.153 63.32 144.577 63.384 143.937 63.384C142.7 63.384 141.782 63.1493 141.185 62.68C140.588 62.2107 140.289 61.4213 140.289 60.312V42.968ZM162.83 62.872C162.531 63 162.104 63.1067 161.55 63.192C161.038 63.32 160.44 63.384 159.758 63.384C158.52 63.384 157.603 63.1493 157.006 62.68C156.408 62.2107 156.11 61.4213 156.11 60.312V33.24C156.451 33.1547 156.878 33.048 157.39 32.92C157.944 32.792 158.563 32.728 159.246 32.728C160.483 32.728 161.379 32.9627 161.934 33.432C162.531 33.9013 162.83 34.712 162.83 35.864V62.872ZM155.406 23.832C155.406 22.7227 155.79 21.8053 156.558 21.08C157.326 20.312 158.307 19.928 159.502 19.928C160.696 19.928 161.656 20.312 162.382 21.08C163.107 21.8053 163.47 22.7227 163.47 23.832C163.47 24.9413 163.107 25.88 162.382 26.648C161.656 27.3733 160.696 27.736 159.502 27.736C158.307 27.736 157.326 27.3733 156.558 26.648C155.79 25.88 155.406 24.9413 155.406 23.832ZM176.137 63.384C174.9 63.384 173.982 63.1493 173.385 62.68C172.788 62.2107 172.489 61.4213 172.489 60.312V21.464C172.788 21.3787 173.214 21.272 173.769 21.144C174.324 21.016 174.921 20.952 175.561 20.952C176.798 20.952 177.716 21.1867 178.313 21.656C178.91 22.1253 179.209 22.9147 179.209 24.024V62.872C178.868 63 178.42 63.1067 177.865 63.192C177.353 63.32 176.777 63.384 176.137 63.384Z" fill="#EBECF0"/>
</g>
<g filter="url(#filter1_ddiiii)">
<path d="M53.1799 122.576C51.0999 122.576 49.2439 122.272 47.6119 121.664C46.0119 121.024 44.7479 120.112 43.8199 118.928C42.8919 117.712 42.4279 116.24 42.4279 114.512C42.4279 112.88 42.8279 111.456 43.6279 110.24C44.4599 109.024 45.7879 108.048 47.6119 107.312V95.312H74.0599V99.248H65.0839V106.016C67.7719 106.112 70.1399 106.544 72.1879 107.312C74.2679 108.048 75.8999 109.232 77.0839 110.864C78.2679 112.464 78.8599 114.608 78.8599 117.296C78.8599 119.44 78.4279 121.248 77.5639 122.72C76.7319 124.224 75.5479 125.52 74.0119 126.608C72.4439 127.728 70.4919 128.512 68.1559 128.96C65.8519 129.44 62.9079 129.68 59.3239 129.68H54.3799C52.8439 129.68 51.6919 129.76 50.9239 129.92C50.1559 130.112 49.5159 130.4 49.0039 130.784C48.4919 131.136 48.0919 131.616 47.8039 132.224C47.5159 132.864 47.3719 133.712 47.3719 134.768C47.3719 135.632 47.4199 136.432 47.5159 137.168L42.6679 137.408C42.5719 136.8 42.4919 136.16 42.4279 135.488C42.3959 134.816 42.3799 134.176 42.3799 133.568C42.3799 132.128 42.6359 130.896 43.1479 129.872C43.6599 128.88 44.3479 128.08 45.2119 127.472C46.1079 126.864 47.1159 126.416 48.2359 126.128C49.3559 125.872 50.8759 125.744 52.7959 125.744H57.7879C60.6039 125.744 62.9079 125.616 64.6999 125.36C66.5239 125.136 67.9959 124.784 69.1159 124.304C70.2359 123.824 71.1639 123.2 71.8999 122.432C73.2119 121.056 73.8679 119.216 73.8679 116.912C73.8679 115.12 73.4359 113.728 72.5719 112.736C71.7399 111.744 70.6519 111.04 69.3079 110.624C67.9639 110.176 66.5559 109.92 65.0839 109.856V110.96C65.0839 113.136 64.8759 114.848 64.4599 116.096C64.0759 117.344 63.5319 118.384 62.8279 119.216C61.8039 120.464 60.4599 121.344 58.7959 121.856C57.1639 122.336 55.2919 122.576 53.1799 122.576ZM52.1719 99.248V106.256C53.5159 106.064 54.9719 105.968 56.5399 105.968H60.1399V99.248H52.1719ZM47.4199 114.464C47.4199 115.84 47.9959 116.88 49.1479 117.584C50.2999 118.288 51.7719 118.64 53.5639 118.64C54.9079 118.64 56.0759 118.432 57.0679 118.016C58.0599 117.568 58.8119 116.832 59.3239 115.808C59.8679 114.752 60.1399 113.296 60.1399 111.44V109.808H56.0599C54.5879 109.808 53.2919 109.888 52.1719 110.048C51.0839 110.208 50.1559 110.496 49.3879 110.912C48.0759 111.68 47.4199 112.864 47.4199 114.464ZM109.464 94.736C112.024 94.736 114.12 95.36 115.752 96.608C117.384 97.824 118.584 99.536 119.352 101.744C120.152 103.952 120.552 106.48 120.552 109.328C120.552 111.6 120.296 113.552 119.784 115.184C119.272 116.784 118.472 118.096 117.384 119.12C116.2 120.208 114.76 120.96 113.064 121.376C111.4 121.792 109.096 122 106.152 122H85.08V95.312H90.12V118.064H100.392V104.96C100.392 102.976 100.568 101.392 100.92 100.208C101.304 99.024 101.88 98.016 102.648 97.184C103.416 96.384 104.344 95.776 105.432 95.36C106.552 94.944 107.896 94.736 109.464 94.736ZM109.512 98.672C109 98.672 108.504 98.752 108.024 98.912C107.576 99.072 107.176 99.328 106.824 99.68C106.312 100.224 105.944 100.912 105.72 101.744C105.496 102.544 105.384 103.872 105.384 105.728V118.064H107.496C109.544 118.064 111.144 117.776 112.296 117.2C113.448 116.624 114.264 115.68 114.744 114.368C115.224 113.056 115.464 111.312 115.464 109.136C115.464 107.184 115.256 105.424 114.84 103.856C114.456 102.256 113.832 100.992 112.968 100.064C112.104 99.136 110.952 98.672 109.512 98.672ZM119.441 81.44C121.393 81.44 123.137 81.744 124.673 82.352C126.241 82.96 127.569 83.824 128.657 84.944C129.393 85.68 130.033 86.608 130.577 87.728C131.153 88.816 131.601 90.256 131.921 92.048C132.241 93.808 132.401 96.064 132.401 98.816V122H127.361V99.968C127.361 96.48 127.137 93.824 126.689 92C126.273 90.144 125.617 88.704 124.721 87.68C123.409 86.176 121.649 85.424 119.441 85.424C117.329 85.424 115.777 86 114.785 87.152C113.761 88.304 113.249 89.728 113.249 91.424C113.249 92.288 113.377 93.248 113.633 94.304C113.889 95.328 114.289 96.32 114.833 97.28H109.649C109.233 96.384 108.913 95.44 108.689 94.448C108.433 93.456 108.305 92.464 108.305 91.472C108.305 89.136 108.833 87.232 109.889 85.76C110.945 84.288 112.321 83.2 114.017 82.496C115.713 81.792 117.521 81.44 119.441 81.44ZM147.203 124.688C148.419 124.688 149.603 124.768 150.755 124.928L150.371 128.624C149.699 128.528 148.883 128.48 147.923 128.48C146.867 128.48 145.987 128.656 145.283 129.008C144.611 129.36 144.275 129.952 144.275 130.784C144.275 131.552 144.547 132.128 145.091 132.512C145.667 132.928 146.371 133.2 147.203 133.328C148.067 133.488 148.915 133.568 149.747 133.568H150.995C153.331 133.568 155.139 133.168 156.419 132.368C157.699 131.568 158.707 130.416 159.443 128.912C159.475 128.848 159.507 128.784 159.539 128.72C158.483 128.112 157.635 127.264 156.995 126.176C156.355 125.12 156.003 123.728 155.939 122H140.627V95.312H145.667V118.064H155.939V104.96C155.939 102.976 156.115 101.392 156.467 100.208C156.851 99.024 157.427 98.016 158.195 97.184C158.963 96.384 159.891 95.776 160.979 95.36C162.099 94.944 163.443 94.736 165.011 94.736C167.571 94.736 169.667 95.36 171.299 96.608C172.931 97.824 174.131 99.536 174.899 101.744C175.699 103.952 176.099 106.48 176.099 109.328C176.099 111.6 175.843 113.552 175.331 115.184C174.819 116.784 174.019 118.096 172.931 119.12C171.747 120.208 170.307 120.96 168.611 121.376C166.947 121.792 164.643 122 161.699 122H160.835C160.867 122.896 161.027 123.648 161.315 124.256C161.635 124.864 162.115 125.344 162.755 125.696C163.203 125.888 163.731 126.032 164.339 126.128C164.947 126.224 165.763 126.272 166.787 126.272H172.595V130.208H163.907C163.843 130.304 163.795 130.416 163.763 130.544C163.027 131.984 162.131 133.216 161.075 134.24C160.019 135.264 158.675 136.048 157.043 136.592C155.411 137.136 153.363 137.408 150.899 137.408H149.555C147.987 137.408 146.499 137.232 145.091 136.88C143.715 136.528 142.595 136.064 141.731 135.488C141.123 135.04 140.563 134.432 140.051 133.664C139.571 132.896 139.331 131.936 139.331 130.784C139.331 128.896 140.035 127.408 141.443 126.32C142.883 125.232 144.803 124.688 147.203 124.688ZM165.059 98.672C164.547 98.672 164.051 98.752 163.571 98.912C163.123 99.072 162.723 99.328 162.371 99.68C161.859 100.224 161.491 100.912 161.267 101.744C161.043 102.544 160.931 103.872 160.931 105.728V118.064H163.043C165.091 118.064 166.691 117.776 167.843 117.2C168.995 116.624 169.811 115.68 170.291 114.368C170.771 113.056 171.011 111.312 171.011 109.136C171.011 107.184 170.803 105.424 170.387 103.856C170.003 102.256 169.379 100.992 168.515 100.064C167.651 99.136 166.499 98.672 165.059 98.672ZM157.715 89.696C156.723 89.696 155.907 89.376 155.267 88.736C154.627 88.096 154.307 87.264 154.307 86.24C154.307 85.248 154.627 84.432 155.267 83.792C155.907 83.12 156.723 82.784 157.715 82.784C158.707 82.784 159.523 83.12 160.163 83.792C160.803 84.432 161.123 85.248 161.123 86.24C161.123 87.264 160.787 88.096 160.115 88.736C159.475 89.376 158.675 89.696 157.715 89.696Z" fill="#EBECF0"/>
</g>
<defs>
<filter id="filter0_ddiiii" x="30.472" y="14.928" width="153.737" height="54.032" filterUnits="userSpaceOnUse" color-interpolation-filters="sRGB">
<feFlood flood-opacity="0" result="BackgroundImageFix"/>
<feColorMatrix in="SourceAlpha" type="matrix" values="0 0 0 0 0 0 0 0 0 0 0 0 0 0 0 0 0 0 127 0"/>
<feOffset dx="-1" dy="-1"/>
<feGaussianBlur stdDeviation="1"/>
<feColorMatrix type="matrix" values="0 0 0 0 0.737255 0 0 0 0 0.741176 0 0 0 0 0.752941 0 0 0 0.5 0"/>
<feBlend mode="normal" in2="BackgroundImageFix" result="effect1_dropShadow"/>
<feColorMatrix in="SourceAlpha" type="matrix" values="0 0 0 0 0 0 0 0 0 0 0 0 0 0 0 0 0 0 127 0"/>
<feOffset dx="1" dy="1"/>
<feGaussianBlur stdDeviation="1"/>
<feColorMatrix type="matrix" values="0 0 0 0 1 0 0 0 0 1 0 0 0 0 1 0 0 0 0.3 0"/>
<feBlend mode="normal" in2="effect1_dropShadow" result="effect2_dropShadow"/>
<feBlend mode="normal" in="SourceGraphic" in2="effect2_dropShadow" result="shape"/>
<feColorMatrix in="SourceAlpha" type="matrix" values="0 0 0 0 0 0 0 0 0 0 0 0 0 0 0 0 0 0 127 0" result="hardAlpha"/>
<feOffset dx="5" dy="5"/>
<feGaussianBlur stdDeviation="6.5"/>
<feComposite in2="hardAlpha" operator="arithmetic" k2="-1" k3="1"/>
<feColorMatrix type="matrix" values="0 0 0 0 0.737255 0 0 0 0 0.741176 0 0 0 0 0.752941 0 0 0 0.9 0"/>
<feBlend mode="normal" in2="shape" result="effect3_innerShadow"/>
<feColorMatrix in="SourceAlpha" type="matrix" values="0 0 0 0 0 0 0 0 0 0 0 0 0 0 0 0 0 0 127 0" result="hardAlpha"/>
<feOffset dx="-5" dy="-5"/>
<feGaussianBlur stdDeviation="5"/>
<feComposite in2="hardAlpha" operator="arithmetic" k2="-1" k3="1"/>
<feColorMatrix type="matrix" values="0 0 0 0 1 0 0 0 0 1 0 0 0 0 1 0 0 0 0.9 0"/>
<feBlend mode="normal" in2="effect3_innerShadow" result="effect4_innerShadow"/>
<feColorMatrix in="SourceAlpha" type="matrix" values="0 0 0 0 0 0 0 0 0 0 0 0 0 0 0 0 0 0 127 0" result="hardAlpha"/>
<feOffset dx="5" dy="-5"/>
<feGaussianBlur stdDeviation="5"/>
<feComposite in2="hardAlpha" operator="arithmetic" k2="-1" k3="1"/>
<feColorMatrix type="matrix" values="0 0 0 0 0.737255 0 0 0 0 0.741176 0 0 0 0 0.752941 0 0 0 0.2 0"/>
<feBlend mode="normal" in2="effect4_innerShadow" result="effect5_innerShadow"/>
<feColorMatrix in="SourceAlpha" type="matrix" values="0 0 0 0 0 0 0 0 0 0 0 0 0 0 0 0 0 0 127 0" result="hardAlpha"/>
<feOffset dx="-5" dy="5"/>
<feGaussianBlur stdDeviation="5"/>
<feComposite in2="hardAlpha" operator="arithmetic" k2="-1" k3="1"/>
<feColorMatrix type="matrix" values="0 0 0 0 0.737255 0 0 0 0 0.741176 0 0 0 0 0.752941 0 0 0 0.2 0"/>
<feBlend mode="normal" in2="effect5_innerShadow" result="effect6_innerShadow"/>
</filter>
<filter id="filter1_ddiiii" x="37.3799" y="76.44" width="143.719" height="65.968" filterUnits="userSpaceOnUse" color-interpolation-filters="sRGB">
<feFlood flood-opacity="0" result="BackgroundImageFix"/>
<feColorMatrix in="SourceAlpha" type="matrix" values="0 0 0 0 0 0 0 0 0 0 0 0 0 0 0 0 0 0 127 0"/>
<feOffset dx="-1" dy="-1"/>
<feGaussianBlur stdDeviation="1"/>
<feColorMatrix type="matrix" values="0 0 0 0 0.737255 0 0 0 0 0.741176 0 0 0 0 0.752941 0 0 0 0.5 0"/>
<feBlend mode="normal" in2="BackgroundImageFix" result="effect1_dropShadow"/>
<feColorMatrix in="SourceAlpha" type="matrix" values="0 0 0 0 0 0 0 0 0 0 0 0 0 0 0 0 0 0 127 0"/>
<feOffset dx="1" dy="1"/>
<feGaussianBlur stdDeviation="1"/>
<feColorMatrix type="matrix" values="0 0 0 0 1 0 0 0 0 1 0 0 0 0 1 0 0 0 0.3 0"/>
<feBlend mode="normal" in2="effect1_dropShadow" result="effect2_dropShadow"/>
<feBlend mode="normal" in="SourceGraphic" in2="effect2_dropShadow" result="shape"/>
<feColorMatrix in="SourceAlpha" type="matrix" values="0 0 0 0 0 0 0 0 0 0 0 0 0 0 0 0 0 0 127 0" result="hardAlpha"/>
<feOffset dx="5" dy="5"/>
<feGaussianBlur stdDeviation="6.5"/>
<feComposite in2="hardAlpha" operator="arithmetic" k2="-1" k3="1"/>
<feColorMatrix type="matrix" values="0 0 0 0 0.737255 0 0 0 0 0.741176 0 0 0 0 0.752941 0 0 0 0.9 0"/>
<feBlend mode="normal" in2="shape" result="effect3_innerShadow"/>
<feColorMatrix in="SourceAlpha" type="matrix" values="0 0 0 0 0 0 0 0 0 0 0 0 0 0 0 0 0 0 127 0" result="hardAlpha"/>
<feOffset dx="-5" dy="-5"/>
<feGaussianBlur stdDeviation="5"/>
<feComposite in2="hardAlpha" operator="arithmetic" k2="-1" k3="1"/>
<feColorMatrix type="matrix" values="0 0 0 0 1 0 0 0 0 1 0 0 0 0 1 0 0 0 0.9 0"/>
<feBlend mode="normal" in2="effect3_innerShadow" result="effect4_innerShadow"/>
<feColorMatrix in="SourceAlpha" type="matrix" values="0 0 0 0 0 0 0 0 0 0 0 0 0 0 0 0 0 0 127 0" result="hardAlpha"/>
<feOffset dx="5" dy="-5"/>
<feGaussianBlur stdDeviation="5"/>
<feComposite in2="hardAlpha" operator="arithmetic" k2="-1" k3="1"/>
<feColorMatrix type="matrix" values="0 0 0 0 0.737255 0 0 0 0 0.741176 0 0 0 0 0.752941 0 0 0 0.2 0"/>
<feBlend mode="normal" in2="effect4_innerShadow" result="effect5_innerShadow"/>
<feColorMatrix in="SourceAlpha" type="matrix" values="0 0 0 0 0 0 0 0 0 0 0 0 0 0 0 0 0 0 127 0" result="hardAlpha"/>
<feOffset dx="-5" dy="5"/>
<feGaussianBlur stdDeviation="5"/>
<feComposite in2="hardAlpha" operator="arithmetic" k2="-1" k3="1"/>
<feColorMatrix type="matrix" values="0 0 0 0 0.737255 0 0 0 0 0.741176 0 0 0 0 0.752941 0 0 0 0.2 0"/>
<feBlend mode="normal" in2="effect5_innerShadow" result="effect6_innerShadow"/>
</filter>
</defs>
</svg>
