<svg width="280" height="160" viewBox="0 0 280 160" fill="none" xmlns="http://www.w3.org/2000/svg">
<rect width="280" height="160" fill="#EBECF0"/>
<g filter="url(#filter0_ddiiii)">
<path d="M46.6333 33.784V66.872C46.3346 67 45.8866 67.1067 45.2893 67.192C44.7346 67.32 44.1373 67.384 43.4973 67.384C42.1746 67.384 41.2359 67.1493 40.6813 66.68C40.1266 66.168 39.8493 65.336 39.8493 64.184V33.784H28.5213C28.3079 33.4853 28.1159 33.1013 27.9453 32.632C27.8173 32.1627 27.7533 31.6293 27.7533 31.032C27.7533 30.0933 27.9666 29.3893 28.3932 28.92C28.8626 28.408 29.4813 28.152 30.2493 28.152H58.0893C58.2599 28.408 58.4093 28.7707 58.5373 29.24C58.7079 29.7093 58.7933 30.2213 58.7933 30.776C58.7933 32.7813 57.9613 33.784 56.2973 33.784H46.6333ZM65.8188 55.416C66.4161 57.848 67.5681 59.6613 69.2748 60.856C71.0241 62.008 73.2428 62.584 75.9308 62.584C77.7228 62.584 79.3654 62.3067 80.8588 61.752C82.3521 61.1973 83.5468 60.6 84.4428 59.96C85.6374 60.6427 86.2348 61.6027 86.2348 62.84C86.2348 63.5653 85.9574 64.248 85.4028 64.888C84.8481 65.4853 84.0801 66.0187 83.0988 66.488C82.1601 66.9147 81.0294 67.256 79.7068 67.512C78.4268 67.768 77.0401 67.896 75.5468 67.896C73.0721 67.896 70.8108 67.5547 68.7628 66.872C66.7574 66.1893 65.0294 65.1653 63.5788 63.8C62.1281 62.4347 60.9974 60.7493 60.1868 58.744C59.4188 56.7387 59.0348 54.4133 59.0348 51.768C59.0348 49.208 59.4188 46.968 60.1868 45.048C60.9548 43.0853 62.0001 41.464 63.3228 40.184C64.6454 38.8613 66.2028 37.8587 67.9948 37.176C69.7868 36.4933 71.7068 36.152 73.7548 36.152C75.8028 36.152 77.6588 36.4933 79.3228 37.176C81.0294 37.816 82.4801 38.7333 83.6748 39.928C84.9121 41.08 85.8508 42.4667 86.4908 44.088C87.1734 45.7093 87.5148 47.48 87.5148 49.4C87.5148 50.4667 87.2588 51.256 86.7468 51.768C86.2348 52.2373 85.4881 52.5573 84.5068 52.728L65.8188 55.416ZM73.7548 41.336C71.4081 41.336 69.4454 42.1253 67.8668 43.704C66.3308 45.2827 65.5201 47.544 65.4348 50.488L81.1788 48.248C81.0081 46.328 80.3041 44.7067 79.0668 43.384C77.8294 42.0187 76.0588 41.336 73.7548 41.336ZM98.4808 67.384C97.2434 67.384 96.3261 67.1493 95.7288 66.68C95.1314 66.2107 94.8328 65.4213 94.8328 64.312V25.464C95.1314 25.3787 95.5581 25.272 96.1128 25.144C96.6674 25.016 97.2648 24.952 97.9048 24.952C99.1421 24.952 100.059 25.1867 100.657 25.656C101.254 26.1253 101.553 26.9147 101.553 28.024V66.872C101.211 67 100.763 67.1067 100.209 67.192C99.6968 67.32 99.1208 67.384 98.4808 67.384ZM110.76 37.112C111.058 37.0267 111.485 36.9413 112.04 36.856C112.594 36.728 113.192 36.664 113.832 36.664C115.069 36.664 115.965 36.8987 116.52 37.368C117.117 37.8373 117.416 38.648 117.416 39.8V55.608C117.416 58.0827 118.056 59.8533 119.336 60.92C120.658 61.944 122.472 62.456 124.776 62.456C126.269 62.456 127.528 62.3067 128.552 62.008C129.576 61.7093 130.386 61.3893 130.984 61.048V37.112C131.325 37.0267 131.752 36.9413 132.264 36.856C132.818 36.728 133.416 36.664 134.056 36.664C135.293 36.664 136.21 36.8987 136.808 37.368C137.405 37.8373 137.704 38.648 137.704 39.8V61.368C137.704 62.3067 137.554 63.0747 137.256 63.672C136.957 64.2693 136.36 64.8453 135.464 65.4C134.354 66.04 132.882 66.616 131.048 67.128C129.256 67.64 127.144 67.896 124.712 67.896C120.317 67.896 116.882 66.936 114.408 65.016C111.976 63.0533 110.76 59.96 110.76 55.736V37.112ZM166.094 64.184C165.283 64.696 164.28 65.1227 163.086 65.464C161.934 65.8053 160.547 65.976 158.926 65.976C157.048 65.976 155.256 65.72 153.55 65.208C151.886 64.6533 150.414 63.8 149.134 62.648C147.854 61.4533 146.83 59.9173 146.062 58.04C145.336 56.1627 144.974 53.8587 144.974 51.128C144.974 48.6533 145.336 46.4987 146.062 44.664C146.83 42.7867 147.875 41.2293 149.198 39.992C150.563 38.712 152.163 37.752 153.998 37.112C155.875 36.472 157.944 36.152 160.206 36.152C162.296 36.152 164.216 36.4293 165.966 36.984C167.758 37.496 169.208 38.1147 170.318 38.84C171.043 39.3093 171.598 39.8427 171.982 40.44C172.408 41.0373 172.622 41.7627 172.622 42.616V67.832C172.622 69.9653 172.238 71.8 171.47 73.336C170.744 74.872 169.72 76.1093 168.398 77.048C167.118 78.0293 165.582 78.7333 163.79 79.16C161.998 79.6293 160.078 79.864 158.03 79.864C155.854 79.864 153.976 79.6507 152.398 79.224C150.819 78.7973 149.667 78.3707 148.942 77.944C147.619 77.1333 146.958 76.0667 146.958 74.744C146.958 74.0187 147.107 73.4 147.406 72.888C147.704 72.4187 148.088 72.0347 148.558 71.736C149.539 72.4187 150.84 73.0373 152.462 73.592C154.083 74.1467 155.811 74.424 157.646 74.424C160.334 74.424 162.403 73.8693 163.854 72.76C165.347 71.6933 166.094 69.944 166.094 67.512V64.184ZM159.886 60.728C161.336 60.728 162.552 60.5147 163.534 60.088C164.515 59.6613 165.347 59.1493 166.03 58.552V43.064C165.39 42.68 164.6 42.3387 163.662 42.04C162.723 41.6987 161.614 41.528 160.334 41.528C157.731 41.528 155.64 42.3173 154.062 43.896C152.483 45.4747 151.694 47.864 151.694 51.064C151.694 52.8133 151.907 54.3067 152.334 55.544C152.76 56.7813 153.336 57.784 154.062 58.552C154.787 59.32 155.64 59.8747 156.622 60.216C157.646 60.5573 158.734 60.728 159.886 60.728ZM181.385 37.112C181.683 37.0267 182.11 36.9413 182.665 36.856C183.219 36.728 183.817 36.664 184.457 36.664C185.694 36.664 186.59 36.8987 187.145 37.368C187.742 37.8373 188.041 38.648 188.041 39.8V55.608C188.041 58.0827 188.681 59.8533 189.961 60.92C191.283 61.944 193.097 62.456 195.401 62.456C196.894 62.456 198.153 62.3067 199.177 62.008C200.201 61.7093 201.011 61.3893 201.609 61.048V37.112C201.95 37.0267 202.377 36.9413 202.889 36.856C203.443 36.728 204.041 36.664 204.681 36.664C205.918 36.664 206.835 36.8987 207.433 37.368C208.03 37.8373 208.329 38.648 208.329 39.8V61.368C208.329 62.3067 208.179 63.0747 207.881 63.672C207.582 64.2693 206.985 64.8453 206.089 65.4C204.979 66.04 203.507 66.616 201.673 67.128C199.881 67.64 197.769 67.896 195.337 67.896C190.942 67.896 187.507 66.936 185.033 65.016C182.601 63.0533 181.385 59.96 181.385 55.736V37.112Z" fill="#EBECF0"/>
</g>
<g filter="url(#filter1_ddiiii)">
<path d="M38.375 123.469C39.2708 126.156 41.2292 128.219 44.25 129.656C47.2917 131.073 51.1875 131.781 55.9375 131.781C61.125 131.781 65.2292 130.948 68.25 129.281C71.2708 127.594 73.125 125.146 73.8125 121.938C71.9583 123.667 69.7083 124.531 67.0625 124.531C64.5417 124.531 62.5 123.823 60.9375 122.406C59.3958 120.969 58.625 119.062 58.625 116.688C58.625 114.896 59.1979 113.323 60.3438 111.969C61.4896 110.594 63.0312 109.719 64.9688 109.344C63.3021 108.906 61.1458 108.688 58.5 108.688L59.9375 104C66.1458 104.875 70.8021 106.688 73.9062 109.438C77.0312 112.167 78.5938 115.833 78.5938 120.438C78.5938 125.5 76.6667 129.5 72.8125 132.438C68.9792 135.354 63.4688 136.812 56.2812 136.812C48.9896 136.812 43.3438 135.375 39.3438 132.5C35.3438 129.604 33.3438 125.708 33.3438 120.812C33.3438 117.083 34.4375 114.031 36.625 111.656C38.8125 109.26 41.6146 108.062 45.0312 108.062C47.6771 108.062 49.7604 108.781 51.2812 110.219C52.8229 111.656 53.5938 113.562 53.5938 115.938C53.5938 118.583 52.6875 120.677 50.875 122.219C49.0833 123.76 46.6146 124.531 43.4688 124.531C41.5104 124.531 39.8125 124.177 38.375 123.469ZM38.0625 118.781C39.4375 119.635 40.9792 120.062 42.6875 120.062C46.5625 120.062 48.5 118.698 48.5 115.969C48.5 114.865 48.1667 114.031 47.5 113.469C46.8333 112.885 45.9062 112.594 44.7188 112.594C43.0104 112.594 41.5625 113.135 40.375 114.219C39.2083 115.302 38.4375 116.823 38.0625 118.781ZM73.5312 116.156C72.9479 115.031 72.1667 114.156 71.1875 113.531C70.2083 112.906 69.125 112.594 67.9375 112.594C66.6875 112.594 65.6667 112.927 64.875 113.594C64.0833 114.24 63.6875 115.156 63.6875 116.344C63.6875 117.49 64.0521 118.396 64.7812 119.062C65.5312 119.729 66.5729 120.062 67.9062 120.062C69.2604 120.062 70.4375 119.719 71.4375 119.031C72.4375 118.344 73.1354 117.385 73.5312 116.156ZM38.7812 97.125V92.3125H63.6562C66.1771 92.3125 68.0938 92.4792 69.4062 92.8125C70.7396 93.1458 71.8542 93.6771 72.75 94.4062C73.6458 95.1354 74.3125 96 74.75 97C75.2083 97.9792 75.4375 99.1875 75.4375 100.625C75.4375 101.875 75.1875 103.073 74.6875 104.219C74.1875 105.344 73.4479 106.25 72.4688 106.938C71.4896 107.625 70.3333 108.115 69 108.406C67.6875 108.698 65.9062 108.844 63.6562 108.844H57.2188V104.031H64.4062C66.0521 104.031 67.2396 103.917 67.9688 103.688C68.7188 103.438 69.2708 103.062 69.625 102.562C70 102.042 70.1875 101.406 70.1875 100.656C70.1875 99.7812 69.9688 99.0625 69.5312 98.5C69.1146 97.9375 68.5417 97.5729 67.8125 97.4062C67.1042 97.2188 66.0417 97.125 64.625 97.125H38.7812ZM88.1562 119.5C88.3438 123.292 89.7917 126.292 92.5 128.5C95.2292 130.688 98.8854 131.781 103.469 131.781C108.24 131.781 111.958 130.781 114.625 128.781C117.312 126.76 118.656 123.938 118.656 120.312C118.656 117.75 117.927 115.5 116.469 113.562C115.031 111.625 112.906 110.083 110.094 108.938L112.656 104.031C116.365 105.656 119.177 107.854 121.094 110.625C123.031 113.375 124 116.5 124 120C124 125.25 122.24 129.365 118.719 132.344C115.198 135.323 110.177 136.812 103.656 136.812C97.2604 136.812 92.2396 135.188 88.5938 131.938C84.9479 128.667 83.125 124.292 83.125 118.812C83.125 114.292 84.25 110.698 86.5 108.031C88.7708 105.365 91.6875 104.031 95.25 104.031C97.8125 104.031 99.8646 104.771 101.406 106.25C102.948 107.708 103.719 109.667 103.719 112.125C103.719 114.896 102.854 117.062 101.125 118.625C99.3958 120.188 96.9375 120.969 93.75 120.969C91.8125 120.969 89.9479 120.479 88.1562 119.5ZM88.4062 114.938C89.8854 115.958 91.5625 116.469 93.4375 116.469C95.1667 116.469 96.4688 116.115 97.3438 115.406C98.2188 114.698 98.6562 113.688 98.6562 112.375C98.6562 111.208 98.3125 110.281 97.625 109.594C96.9583 108.906 96.0625 108.562 94.9375 108.562C93.3125 108.562 91.9167 109.115 90.75 110.219C89.6042 111.302 88.8229 112.875 88.4062 114.938ZM120.438 128.938L123 124.812C124.771 127.188 126.542 128.948 128.312 130.094C130.104 131.219 132.031 131.781 134.094 131.781C136.281 131.781 137.948 131.094 139.094 129.719C140.24 128.323 140.812 126.312 140.812 123.688C140.812 120.521 139.896 117.719 138.062 115.281C136.25 112.844 133.427 110.74 129.594 108.969L131.969 104.031C136.365 105.948 139.823 108.615 142.344 112.031C144.865 115.448 146.125 119.219 146.125 123.344C146.125 127.635 145.052 130.958 142.906 133.312C140.76 135.646 137.688 136.812 133.688 136.812C131.104 136.812 128.708 136.156 126.5 134.844C124.312 133.531 122.292 131.562 120.438 128.938ZM172.844 134.156C174.906 131.24 176.25 128.781 176.875 126.781C177.521 124.76 177.844 122.635 177.844 120.406C177.844 116.656 176.917 113.792 175.062 111.812C173.208 109.833 170.49 108.844 166.906 108.844C163.635 108.844 161.052 109.865 159.156 111.906C157.26 113.948 156.312 116.76 156.312 120.344C156.312 122.802 156.698 125.125 157.469 127.312C158.26 129.5 159.542 131.781 161.312 134.156L155.969 136.5C152.656 131.333 151 125.948 151 120.344C151 117.24 151.667 114.427 153 111.906C154.333 109.365 156.229 107.417 158.688 106.062C161.167 104.708 164.031 104.031 167.281 104.031C172.26 104.031 176.146 105.427 178.938 108.219C181.75 110.99 183.156 114.802 183.156 119.656C183.156 122.635 182.792 125.438 182.062 128.062C181.333 130.688 180.031 133.5 178.156 136.5L172.844 134.156ZM161.562 98.1562C161.979 99.7604 162.385 100.979 162.781 101.812C163.177 102.646 163.594 103.229 164.031 103.562C164.49 103.875 165.052 104.031 165.719 104.031C166.552 104.031 167.344 103.771 168.094 103.25C168.844 102.729 169.906 101.583 171.281 99.8125L173.25 97.25C175.458 94.3542 177.469 92.3646 179.281 91.2812C181.094 90.1771 183.344 89.6146 186.031 89.5938L186.375 94.5312C184.896 94.6146 183.698 94.8333 182.781 95.1875C181.865 95.5417 181.01 96.0625 180.219 96.75C179.448 97.4167 178.375 98.6354 177 100.406L175.531 102.312C173.781 104.583 172.125 106.24 170.562 107.281C169.021 108.323 167.281 108.844 165.344 108.844C162.906 108.844 160.969 108.062 159.531 106.5C158.115 104.917 157.021 102.708 156.25 99.875L161.562 98.1562ZM179.938 128.938L182.5 124.812C184.271 127.188 186.042 128.948 187.812 130.094C189.604 131.219 191.531 131.781 193.594 131.781C195.781 131.781 197.448 131.094 198.594 129.719C199.74 128.323 200.312 126.312 200.312 123.688C200.312 120.521 199.396 117.719 197.562 115.281C195.75 112.844 192.927 110.74 189.094 108.969L191.469 104.031C195.865 105.948 199.323 108.615 201.844 112.031C204.365 115.448 205.625 119.219 205.625 123.344C205.625 127.635 204.552 130.958 202.406 133.312C200.26 135.646 197.188 136.812 193.188 136.812C190.604 136.812 188.208 136.156 186 134.844C183.812 133.531 181.792 131.562 179.938 128.938Z" fill="#EBECF0"/>
</g>
<defs>
<filter id="filter0_ddiiii" x="22.7533" y="19.952" width="190.576" height="64.912" filterUnits="userSpaceOnUse" color-interpolation-filters="sRGB">
<feFlood flood-opacity="0" result="BackgroundImageFix"/>
<feColorMatrix in="SourceAlpha" type="matrix" values="0 0 0 0 0 0 0 0 0 0 0 0 0 0 0 0 0 0 127 0"/>
<feOffset dx="-1" dy="-1"/>
<feGaussianBlur stdDeviation="1"/>
<feColorMatrix type="matrix" values="0 0 0 0 0.737255 0 0 0 0 0.741176 0 0 0 0 0.752941 0 0 0 0.5 0"/>
<feBlend mode="normal" in2="BackgroundImageFix" result="effect1_dropShadow"/>
<feColorMatrix in="SourceAlpha" type="matrix" values="0 0 0 0 0 0 0 0 0 0 0 0 0 0 0 0 0 0 127 0"/>
<feOffset dx="1" dy="1"/>
<feGaussianBlur stdDeviation="1"/>
<feColorMatrix type="matrix" values="0 0 0 0 1 0 0 0 0 1 0 0 0 0 1 0 0 0 0.3 0"/>
<feBlend mode="normal" in2="effect1_dropShadow" result="effect2_dropShadow"/>
<feBlend mode="normal" in="SourceGraphic" in2="effect2_dropShadow" result="shape"/>
<feColorMatrix in="SourceAlpha" type="matrix" values="0 0 0 0 0 0 0 0 0 0 0 0 0 0 0 0 0 0 127 0" result="hardAlpha"/>
<feOffset dx="5" dy="5"/>
<feGaussianBlur stdDeviation="6.5"/>
<feComposite in2="hardAlpha" operator="arithmetic" k2="-1" k3="1"/>
<feColorMatrix type="matrix" values="0 0 0 0 0.737255 0 0 0 0 0.741176 0 0 0 0 0.752941 0 0 0 0.9 0"/>
<feBlend mode="normal" in2="shape" result="effect3_innerShadow"/>
<feColorMatrix in="SourceAlpha" type="matrix" values="0 0 0 0 0 0 0 0 0 0 0 0 0 0 0 0 0 0 127 0" result="hardAlpha"/>
<feOffset dx="-5" dy="-5"/>
<feGaussianBlur stdDeviation="5"/>
<feComposite in2="hardAlpha" operator="arithmetic" k2="-1" k3="1"/>
<feColorMatrix type="matrix" values="0 0 0 0 1 0 0 0 0 1 0 0 0 0 1 0 0 0 0.9 0"/>
<feBlend mode="normal" in2="effect3_innerShadow" result="effect4_innerShadow"/>
<feColorMatrix in="SourceAlpha" type="matrix" values="0 0 0 0 0 0 0 0 0 0 0 0 0 0 0 0 0 0 127 0" result="hardAlpha"/>
<feOffset dx="5" dy="-5"/>
<feGaussianBlur stdDeviation="5"/>
<feComposite in2="hardAlpha" operator="arithmetic" k2="-1" k3="1"/>
<feColorMatrix type="matrix" values="0 0 0 0 0.737255 0 0 0 0 0.741176 0 0 0 0 0.752941 0 0 0 0.2 0"/>
<feBlend mode="normal" in2="effect4_innerShadow" result="effect5_innerShadow"/>
<feColorMatrix in="SourceAlpha" type="matrix" values="0 0 0 0 0 0 0 0 0 0 0 0 0 0 0 0 0 0 127 0" result="hardAlpha"/>
<feOffset dx="-5" dy="5"/>
<feGaussianBlur stdDeviation="5"/>
<feComposite in2="hardAlpha" operator="arithmetic" k2="-1" k3="1"/>
<feColorMatrix type="matrix" values="0 0 0 0 0.737255 0 0 0 0 0.741176 0 0 0 0 0.752941 0 0 0 0.2 0"/>
<feBlend mode="normal" in2="effect5_innerShadow" result="effect6_innerShadow"/>
</filter>
<filter id="filter1_ddiiii" x="28.3438" y="84.5938" width="182.281" height="57.2188" filterUnits="userSpaceOnUse" color-interpolation-filters="sRGB">
<feFlood flood-opacity="0" result="BackgroundImageFix"/>
<feColorMatrix in="SourceAlpha" type="matrix" values="0 0 0 0 0 0 0 0 0 0 0 0 0 0 0 0 0 0 127 0"/>
<feOffset dx="-1" dy="-1"/>
<feGaussianBlur stdDeviation="1"/>
<feColorMatrix type="matrix" values="0 0 0 0 0.737255 0 0 0 0 0.741176 0 0 0 0 0.752941 0 0 0 0.5 0"/>
<feBlend mode="normal" in2="BackgroundImageFix" result="effect1_dropShadow"/>
<feColorMatrix in="SourceAlpha" type="matrix" values="0 0 0 0 0 0 0 0 0 0 0 0 0 0 0 0 0 0 127 0"/>
<feOffset dx="1" dy="1"/>
<feGaussianBlur stdDeviation="1"/>
<feColorMatrix type="matrix" values="0 0 0 0 1 0 0 0 0 1 0 0 0 0 1 0 0 0 0.3 0"/>
<feBlend mode="normal" in2="effect1_dropShadow" result="effect2_dropShadow"/>
<feBlend mode="normal" in="SourceGraphic" in2="effect2_dropShadow" result="shape"/>
<feColorMatrix in="SourceAlpha" type="matrix" values="0 0 0 0 0 0 0 0 0 0 0 0 0 0 0 0 0 0 127 0" result="hardAlpha"/>
<feOffset dx="5" dy="5"/>
<feGaussianBlur stdDeviation="6.5"/>
<feComposite in2="hardAlpha" operator="arithmetic" k2="-1" k3="1"/>
<feColorMatrix type="matrix" values="0 0 0 0 0.737255 0 0 0 0 0.741176 0 0 0 0 0.752941 0 0 0 0.9 0"/>
<feBlend mode="normal" in2="shape" result="effect3_innerShadow"/>
<feColorMatrix in="SourceAlpha" type="matrix" values="0 0 0 0 0 0 0 0 0 0 0 0 0 0 0 0 0 0 127 0" result="hardAlpha"/>
<feOffset dx="-5" dy="-5"/>
<feGaussianBlur stdDeviation="5"/>
<feComposite in2="hardAlpha" operator="arithmetic" k2="-1" k3="1"/>
<feColorMatrix type="matrix" values="0 0 0 0 1 0 0 0 0 1 0 0 0 0 1 0 0 0 0.9 0"/>
<feBlend mode="normal" in2="effect3_innerShadow" result="effect4_innerShadow"/>
<feColorMatrix in="SourceAlpha" type="matrix" values="0 0 0 0 0 0 0 0 0 0 0 0 0 0 0 0 0 0 127 0" result="hardAlpha"/>
<feOffset dx="5" dy="-5"/>
<feGaussianBlur stdDeviation="5"/>
<feComposite in2="hardAlpha" operator="arithmetic" k2="-1" k3="1"/>
<feColorMatrix type="matrix" values="0 0 0 0 0.737255 0 0 0 0 0.741176 0 0 0 0 0.752941 0 0 0 0.2 0"/>
<feBlend mode="normal" in2="effect4_innerShadow" result="effect5_innerShadow"/>
<feColorMatrix in="SourceAlpha" type="matrix" values="0 0 0 0 0 0 0 0 0 0 0 0 0 0 0 0 0 0 127 0" result="hardAlpha"/>
<feOffset dx="-5" dy="5"/>
<feGaussianBlur stdDeviation="5"/>
<feComposite in2="hardAlpha" operator="arithmetic" k2="-1" k3="1"/>
<feColorMatrix type="matrix" values="0 0 0 0 0.737255 0 0 0 0 0.741176 0 0 0 0 0.752941 0 0 0 0.2 0"/>
<feBlend mode="normal" in2="effect5_innerShadow" result="effect6_innerShadow"/>
</filter>
</defs>
</svg>
