<svg width="280" height="160" viewBox="0 0 280 160" fill="none" xmlns="http://www.w3.org/2000/svg">
<rect width="280" height="160" fill="#EBECF0"/>
<g filter="url(#filter0_ddiiii)">
<path d="M71.0143 48.368C71.0143 50.544 70.6516 52.528 69.9263 54.32C69.2436 56.112 68.2196 57.648 66.8543 58.928C65.5316 60.208 63.8889 61.1893 61.9263 61.872C60.0063 62.5547 57.7876 62.896 55.2703 62.896C52.7956 62.896 50.5769 62.5547 48.6143 61.872C46.6943 61.1893 45.0516 60.208 43.6863 58.928C42.3636 57.648 41.3396 56.112 40.6143 54.32C39.9316 52.528 39.5903 50.544 39.5903 48.368V23.152C39.8889 23.0667 40.3369 22.9813 40.9343 22.896C41.5316 22.768 42.1503 22.704 42.7903 22.704C44.0276 22.704 44.9449 22.9387 45.5423 23.408C46.1396 23.8773 46.4383 24.7093 46.4383 25.904V47.984C46.4383 51.0133 47.2703 53.3173 48.9343 54.896C50.6409 56.4747 52.7529 57.264 55.2703 57.264C56.5503 57.264 57.7236 57.072 58.7903 56.688C59.8569 56.2613 60.7956 55.664 61.6063 54.896C62.4169 54.128 63.0356 53.168 63.4623 52.016C63.9316 50.864 64.1663 49.52 64.1663 47.984V23.152C64.4649 23.0667 64.9129 22.9813 65.5103 22.896C66.1076 22.768 66.7263 22.704 67.3663 22.704C68.6036 22.704 69.5209 22.9387 70.1183 23.408C70.7156 23.8773 71.0143 24.7093 71.0143 25.904V48.368ZM87.0408 61.872C86.7421 62 86.3154 62.1067 85.7608 62.192C85.2488 62.32 84.6728 62.384 84.0328 62.384C82.7954 62.384 81.8781 62.1493 81.2808 61.68C80.6834 61.2107 80.3848 60.4213 80.3848 59.312V38.32C80.3848 37.2533 80.5981 36.4 81.0248 35.76C81.4514 35.0773 82.1341 34.4373 83.0728 33.84C84.3101 33.072 85.8888 32.432 87.8088 31.92C89.7288 31.408 91.8408 31.152 94.1448 31.152C97.8994 31.152 99.7768 32.2187 99.7768 34.352C99.7768 34.864 99.6914 35.3547 99.5208 35.824C99.3501 36.2507 99.1581 36.6347 98.9448 36.976C98.5181 36.8907 97.9848 36.8053 97.3448 36.72C96.7048 36.6347 96.0221 36.592 95.2968 36.592C93.5901 36.592 92.0328 36.784 90.6248 37.168C89.2168 37.5093 88.0221 37.9573 87.0408 38.512V61.872ZM118.012 31.152C119.292 31.152 120.487 31.3013 121.596 31.6C122.748 31.856 123.751 32.1973 124.604 32.624V20.464C124.903 20.3787 125.33 20.272 125.884 20.144C126.439 20.016 127.036 19.952 127.676 19.952C128.914 19.952 129.831 20.1867 130.428 20.656C131.026 21.1253 131.324 21.9147 131.324 23.024V56.56C131.324 57.456 131.132 58.2027 130.748 58.8C130.364 59.3547 129.767 59.888 128.956 60.4C127.975 61.04 126.631 61.616 124.924 62.128C123.26 62.64 121.34 62.896 119.164 62.896C116.732 62.896 114.514 62.5973 112.508 62C110.503 61.36 108.796 60.4 107.388 59.12C105.98 57.7973 104.892 56.1547 104.124 54.192C103.356 52.1867 102.972 49.84 102.972 47.152C102.972 44.3787 103.356 41.9893 104.124 39.984C104.935 37.936 106.023 36.272 107.388 34.992C108.754 33.6693 110.332 32.7093 112.124 32.112C113.959 31.472 115.922 31.152 118.012 31.152ZM124.668 38.256C123.943 37.7867 123.09 37.3813 122.108 37.04C121.127 36.6987 120.039 36.528 118.844 36.528C117.564 36.528 116.37 36.72 115.26 37.104C114.194 37.488 113.255 38.128 112.444 39.024C111.634 39.8773 110.994 40.9867 110.524 42.352C110.055 43.6747 109.82 45.296 109.82 47.216C109.82 50.8 110.652 53.4027 112.316 55.024C114.023 56.6453 116.284 57.456 119.1 57.456C120.38 57.456 121.447 57.328 122.3 57.072C123.196 56.7733 123.986 56.432 124.668 56.048V38.256ZM140.26 32.112C140.558 32.0267 140.985 31.9413 141.54 31.856C142.094 31.728 142.692 31.664 143.332 31.664C144.569 31.664 145.465 31.8987 146.02 32.368C146.617 32.8373 146.916 33.648 146.916 34.8V50.608C146.916 53.0827 147.556 54.8533 148.836 55.92C150.158 56.944 151.972 57.456 154.276 57.456C155.769 57.456 157.028 57.3067 158.052 57.008C159.076 56.7093 159.886 56.3893 160.484 56.048V32.112C160.825 32.0267 161.252 31.9413 161.764 31.856C162.318 31.728 162.916 31.664 163.556 31.664C164.793 31.664 165.71 31.8987 166.308 32.368C166.905 32.8373 167.204 33.648 167.204 34.8V56.368C167.204 57.3067 167.054 58.0747 166.756 58.672C166.457 59.2693 165.86 59.8453 164.964 60.4C163.854 61.04 162.382 61.616 160.548 62.128C158.756 62.64 156.644 62.896 154.212 62.896C149.817 62.896 146.382 61.936 143.908 60.016C141.476 58.0533 140.26 54.96 140.26 50.736V32.112Z" fill="#EBECF0"/>
</g>
<g filter="url(#filter1_ddiiii)">
<path d="M61.6562 80.125C62.5521 78.0208 63.1146 77.9688 63.3438 79.9688C63.3438 79.9688 63.8333 85.2083 64.8125 95.6875C66.3958 109.812 66.2083 118.771 64.25 122.562C64 123.042 63.7708 123.167 63.5625 122.938C63.375 122.688 63.2917 122.333 63.3125 121.875C63.375 118.292 63.1146 114.26 62.5312 109.781C62.5104 109.594 62.0521 105.531 61.1562 97.5938L59.7812 86C59.6979 85.2083 59.7917 84.4896 60.0625 83.8438L61.6562 80.125ZM85.625 105.156C85.75 104.635 86.125 104.688 86.75 105.312C88.4167 107.021 89.6667 109.312 90.5 112.188C91.3333 115.042 91.625 117.906 91.375 120.781C90.875 124.49 89.3854 127.927 86.9062 131.094C84.4271 134.281 81.1875 136.396 77.1875 137.438C76.1042 137.729 75.0833 137.708 74.125 137.375C69.125 135.688 66.0208 134.469 64.8125 133.719C64.6458 133.615 64.5625 133.479 64.5625 133.312C64.5625 133.146 64.6354 133 64.7812 132.875C64.9271 132.75 65.1042 132.719 65.3125 132.781C68.2292 133.677 70.75 133.99 72.875 133.719C75 133.448 77.4375 132.427 80.1875 130.656C84.2708 128.01 87.2292 124.938 89.0625 121.438C89.2292 121.125 89.2708 120.792 89.1875 120.438C88.5625 118.188 86.8958 115.385 84.1875 112.031C84.0625 111.844 84.0208 111.688 84.0625 111.562L85.625 105.156ZM106.406 102.406C107.094 100.323 107.708 98.9688 108.25 98.3438C108.604 97.9271 109.083 97.8854 109.688 98.2188C115.375 101.365 118.698 105.562 119.656 110.812C120.198 113.771 120.073 116.375 119.281 118.625C119.052 119.292 118.604 119.802 117.938 120.156C113.875 122.24 109.396 123.312 104.5 123.375C101.104 123.417 99.9167 121.25 100.938 116.875C101.062 116.375 101.323 116.094 101.719 116.031C101.969 116.01 102.292 116.167 102.688 116.5C103.5 117.188 105.094 117.375 107.469 117.062C112.635 116.396 116.021 115.583 117.625 114.625C117.771 114.542 117.812 114.292 117.75 113.875C116.958 109.604 113.49 106.271 107.344 103.875C106.51 103.542 106.198 103.052 106.406 102.406ZM135.188 110.562C136.667 106.438 138.417 104.396 140.438 104.438C141.646 104.438 142.781 105.292 143.844 107C144.906 108.688 145.583 110.594 145.875 112.719C146.167 114.844 145.833 117.792 144.875 121.562C143.938 125.333 142.062 128.812 139.25 132C136.458 135.188 134.208 136.875 132.5 137.062C130.812 137.271 128.573 137.135 125.781 136.656C122.99 136.198 120.948 135.698 119.656 135.156C119.198 134.969 119 134.719 119.062 134.406C119.125 134.094 119.396 133.969 119.875 134.031C123.229 134.448 126.396 134.312 129.375 133.625C131.188 133.208 133.792 131.5 137.188 128.5C140.604 125.521 142.635 123.021 143.281 121C143.073 119.25 142.812 118.281 142.5 118.094C140.896 120.573 138.833 121.177 136.312 119.906C133.812 118.635 133.438 115.521 135.188 110.562ZM140.969 112.969C139.74 110.969 138.417 110.875 137 112.688C138.083 113.896 139.406 113.99 140.969 112.969Z" fill="#EBECF0"/>
</g>
<defs>
<filter id="filter0_ddiiii" x="34.5902" y="14.952" width="137.614" height="52.944" filterUnits="userSpaceOnUse" color-interpolation-filters="sRGB">
<feFlood flood-opacity="0" result="BackgroundImageFix"/>
<feColorMatrix in="SourceAlpha" type="matrix" values="0 0 0 0 0 0 0 0 0 0 0 0 0 0 0 0 0 0 127 0"/>
<feOffset dx="-1" dy="-1"/>
<feGaussianBlur stdDeviation="1"/>
<feColorMatrix type="matrix" values="0 0 0 0 0.737255 0 0 0 0 0.741176 0 0 0 0 0.752941 0 0 0 0.5 0"/>
<feBlend mode="normal" in2="BackgroundImageFix" result="effect1_dropShadow"/>
<feColorMatrix in="SourceAlpha" type="matrix" values="0 0 0 0 0 0 0 0 0 0 0 0 0 0 0 0 0 0 127 0"/>
<feOffset dx="1" dy="1"/>
<feGaussianBlur stdDeviation="1"/>
<feColorMatrix type="matrix" values="0 0 0 0 1 0 0 0 0 1 0 0 0 0 1 0 0 0 0.3 0"/>
<feBlend mode="normal" in2="effect1_dropShadow" result="effect2_dropShadow"/>
<feBlend mode="normal" in="SourceGraphic" in2="effect2_dropShadow" result="shape"/>
<feColorMatrix in="SourceAlpha" type="matrix" values="0 0 0 0 0 0 0 0 0 0 0 0 0 0 0 0 0 0 127 0" result="hardAlpha"/>
<feOffset dx="5" dy="5"/>
<feGaussianBlur stdDeviation="6.5"/>
<feComposite in2="hardAlpha" operator="arithmetic" k2="-1" k3="1"/>
<feColorMatrix type="matrix" values="0 0 0 0 0.737255 0 0 0 0 0.741176 0 0 0 0 0.752941 0 0 0 0.9 0"/>
<feBlend mode="normal" in2="shape" result="effect3_innerShadow"/>
<feColorMatrix in="SourceAlpha" type="matrix" values="0 0 0 0 0 0 0 0 0 0 0 0 0 0 0 0 0 0 127 0" result="hardAlpha"/>
<feOffset dx="-5" dy="-5"/>
<feGaussianBlur stdDeviation="5"/>
<feComposite in2="hardAlpha" operator="arithmetic" k2="-1" k3="1"/>
<feColorMatrix type="matrix" values="0 0 0 0 1 0 0 0 0 1 0 0 0 0 1 0 0 0 0.9 0"/>
<feBlend mode="normal" in2="effect3_innerShadow" result="effect4_innerShadow"/>
<feColorMatrix in="SourceAlpha" type="matrix" values="0 0 0 0 0 0 0 0 0 0 0 0 0 0 0 0 0 0 127 0" result="hardAlpha"/>
<feOffset dx="5" dy="-5"/>
<feGaussianBlur stdDeviation="5"/>
<feComposite in2="hardAlpha" operator="arithmetic" k2="-1" k3="1"/>
<feColorMatrix type="matrix" values="0 0 0 0 0.737255 0 0 0 0 0.741176 0 0 0 0 0.752941 0 0 0 0.2 0"/>
<feBlend mode="normal" in2="effect4_innerShadow" result="effect5_innerShadow"/>
<feColorMatrix in="SourceAlpha" type="matrix" values="0 0 0 0 0 0 0 0 0 0 0 0 0 0 0 0 0 0 127 0" result="hardAlpha"/>
<feOffset dx="-5" dy="5"/>
<feGaussianBlur stdDeviation="5"/>
<feComposite in2="hardAlpha" operator="arithmetic" k2="-1" k3="1"/>
<feColorMatrix type="matrix" values="0 0 0 0 0.737255 0 0 0 0 0.741176 0 0 0 0 0.752941 0 0 0 0.2 0"/>
<feBlend mode="normal" in2="effect5_innerShadow" result="effect6_innerShadow"/>
</filter>
<filter id="filter1_ddiiii" x="54.7518" y="73.5068" width="96.2252" height="69.1348" filterUnits="userSpaceOnUse" color-interpolation-filters="sRGB">
<feFlood flood-opacity="0" result="BackgroundImageFix"/>
<feColorMatrix in="SourceAlpha" type="matrix" values="0 0 0 0 0 0 0 0 0 0 0 0 0 0 0 0 0 0 127 0"/>
<feOffset dx="-1" dy="-1"/>
<feGaussianBlur stdDeviation="1"/>
<feColorMatrix type="matrix" values="0 0 0 0 0.737255 0 0 0 0 0.741176 0 0 0 0 0.752941 0 0 0 0.5 0"/>
<feBlend mode="normal" in2="BackgroundImageFix" result="effect1_dropShadow"/>
<feColorMatrix in="SourceAlpha" type="matrix" values="0 0 0 0 0 0 0 0 0 0 0 0 0 0 0 0 0 0 127 0"/>
<feOffset dx="1" dy="1"/>
<feGaussianBlur stdDeviation="1"/>
<feColorMatrix type="matrix" values="0 0 0 0 1 0 0 0 0 1 0 0 0 0 1 0 0 0 0.3 0"/>
<feBlend mode="normal" in2="effect1_dropShadow" result="effect2_dropShadow"/>
<feBlend mode="normal" in="SourceGraphic" in2="effect2_dropShadow" result="shape"/>
<feColorMatrix in="SourceAlpha" type="matrix" values="0 0 0 0 0 0 0 0 0 0 0 0 0 0 0 0 0 0 127 0" result="hardAlpha"/>
<feOffset dx="5" dy="5"/>
<feGaussianBlur stdDeviation="6.5"/>
<feComposite in2="hardAlpha" operator="arithmetic" k2="-1" k3="1"/>
<feColorMatrix type="matrix" values="0 0 0 0 0.737255 0 0 0 0 0.741176 0 0 0 0 0.752941 0 0 0 0.9 0"/>
<feBlend mode="normal" in2="shape" result="effect3_innerShadow"/>
<feColorMatrix in="SourceAlpha" type="matrix" values="0 0 0 0 0 0 0 0 0 0 0 0 0 0 0 0 0 0 127 0" result="hardAlpha"/>
<feOffset dx="-5" dy="-5"/>
<feGaussianBlur stdDeviation="5"/>
<feComposite in2="hardAlpha" operator="arithmetic" k2="-1" k3="1"/>
<feColorMatrix type="matrix" values="0 0 0 0 1 0 0 0 0 1 0 0 0 0 1 0 0 0 0.9 0"/>
<feBlend mode="normal" in2="effect3_innerShadow" result="effect4_innerShadow"/>
<feColorMatrix in="SourceAlpha" type="matrix" values="0 0 0 0 0 0 0 0 0 0 0 0 0 0 0 0 0 0 127 0" result="hardAlpha"/>
<feOffset dx="5" dy="-5"/>
<feGaussianBlur stdDeviation="5"/>
<feComposite in2="hardAlpha" operator="arithmetic" k2="-1" k3="1"/>
<feColorMatrix type="matrix" values="0 0 0 0 0.737255 0 0 0 0 0.741176 0 0 0 0 0.752941 0 0 0 0.2 0"/>
<feBlend mode="normal" in2="effect4_innerShadow" result="effect5_innerShadow"/>
<feColorMatrix in="SourceAlpha" type="matrix" values="0 0 0 0 0 0 0 0 0 0 0 0 0 0 0 0 0 0 127 0" result="hardAlpha"/>
<feOffset dx="-5" dy="5"/>
<feGaussianBlur stdDeviation="5"/>
<feComposite in2="hardAlpha" operator="arithmetic" k2="-1" k3="1"/>
<feColorMatrix type="matrix" values="0 0 0 0 0.737255 0 0 0 0 0.741176 0 0 0 0 0.752941 0 0 0 0.2 0"/>
<feBlend mode="normal" in2="effect5_innerShadow" result="effect6_innerShadow"/>
</filter>
</defs>
</svg>
